{"glyphs":{"0":{"ha":781,"x_min":63,"x_max":717,"o":"m 390 -15 q 147 93 232 -15 q 63 400 63 201 q 147 701 63 593 q 390 808 232 808 q 632 701 547 808 q 717 400 717 594 q 633 93 717 201 q 390 -15 549 -15 m 390 113 q 543 400 543 113 q 390 682 543 682 q 238 400 238 682 q 390 113 238 113 z "},"1":{"ha":521,"x_min":51,"x_max":492,"o":"m 54 111 l 185 111 l 185 671 l 57 653 l 51 756 l 365 794 l 365 111 l 492 111 l 492 0 l 54 0 l 54 111 z "},"2":{"ha":701,"x_min":58,"x_max":631,"o":"m 631 247 l 631 0 l 58 0 l 60 107 l 297 336 q 420 471 386 422 q 454 575 454 519 q 426 656 454 625 q 342 688 397 688 q 249 651 283 688 q 215 553 215 615 q 225 472 215 524 l 76 472 q 63 564 63 521 q 140 740 63 672 q 356 808 217 808 q 552 750 481 808 q 624 594 624 692 q 573 442 624 514 q 397 256 522 371 l 251 115 l 513 115 l 513 247 l 631 247 z "},"3":{"ha":728,"x_min":42,"x_max":665,"o":"m 504 415 q 622 344 578 396 q 665 217 665 293 q 583 48 665 110 q 363 -14 501 -14 q 160 37 240 -14 q 42 182 81 88 l 178 242 q 249 146 203 179 q 356 113 294 113 q 453 143 417 113 q 490 226 490 174 q 443 324 490 292 q 299 357 396 357 l 299 460 q 433 491 386 460 q 481 582 481 522 q 449 657 481 629 q 360 685 418 685 q 260 651 300 685 q 204 557 219 617 l 63 608 q 173 757 90 706 q 372 808 256 808 q 574 751 501 808 q 647 599 647 693 q 608 484 647 532 q 504 415 569 436 z "},"4":{"ha":729,"x_min":26,"x_max":682,"o":"m 265 110 l 400 110 l 400 229 l 40 229 l 26 314 l 404 794 l 564 794 l 564 328 l 682 328 l 682 229 l 564 229 l 564 110 l 660 110 l 660 0 l 265 0 l 265 110 m 400 328 l 400 635 l 164 328 l 400 328 z "},"5":{"ha":747,"x_min":65,"x_max":679,"o":"m 418 518 q 610 448 542 518 q 679 260 679 378 q 640 112 679 174 q 530 17 600 50 q 371 -15 460 -15 q 65 106 200 -15 l 139 214 q 242 142 190 167 q 357 117 294 117 q 474 155 432 117 q 515 258 515 193 q 477 356 515 319 q 374 393 439 393 q 222 329 289 393 l 103 374 l 113 794 l 639 794 l 639 589 l 518 589 l 518 682 l 238 682 l 232 467 q 418 518 310 518 z "},"6":{"ha":713,"x_min":58,"x_max":661,"o":"m 393 526 q 533 494 472 526 q 627 401 593 461 q 661 263 661 340 q 623 118 661 181 q 516 21 585 56 q 358 -14 447 -14 q 140 60 222 -14 q 58 260 58 135 q 87 413 58 343 q 193 599 115 482 l 375 867 l 499 785 l 313 513 q 393 526 351 526 m 361 108 q 461 151 425 108 q 497 264 497 193 q 463 374 497 333 q 365 414 428 414 q 265 373 304 414 q 225 261 225 332 q 260 151 225 193 q 361 108 296 108 z "},"7":{"ha":671,"x_min":28,"x_max":615,"o":"m 439 683 l 160 683 l 160 558 l 28 558 l 28 794 l 615 794 l 615 690 l 353 0 l 178 0 l 439 683 z "},"8":{"ha":721,"x_min":53,"x_max":668,"o":"m 358 -15 q 135 47 217 -15 q 53 211 53 110 q 91 331 53 281 q 199 408 129 382 q 78 589 78 468 q 156 749 78 689 q 365 808 235 808 q 567 752 490 808 q 643 600 643 696 q 610 487 643 535 q 515 411 578 439 q 668 219 668 360 q 630 97 668 150 q 522 15 592 44 q 358 -15 451 -15 m 410 450 q 463 507 440 471 q 485 594 485 543 q 455 678 485 647 q 369 708 425 708 q 284 676 314 708 q 254 589 254 644 q 293 499 254 532 q 410 450 332 467 m 357 81 q 455 117 419 81 q 490 214 490 153 q 447 310 490 276 q 307 365 404 344 q 244 311 271 351 q 218 215 218 271 q 256 117 218 154 q 357 81 293 81 z "},"9":{"ha":713,"x_min":51,"x_max":654,"o":"m 354 810 q 572 735 490 810 q 654 535 654 660 q 625 383 654 453 q 518 197 596 314 l 338 -71 l 214 11 l 400 283 q 318 269 358 269 q 125 342 199 269 q 51 532 51 414 q 90 678 51 615 q 197 775 128 740 q 354 810 265 810 m 347 382 q 447 423 407 382 q 486 533 486 464 q 451 644 486 601 q 350 686 415 686 q 251 644 286 686 q 215 532 215 601 q 250 422 215 463 q 347 382 285 382 z "},"\u0000":{"ha":0,"x_min":0,"x_max":0,"o":""},"\r":{"ha":433,"x_min":0,"x_max":0,"o":""}," ":{"ha":433,"x_min":0,"x_max":0,"o":""},"A":{"ha":986,"x_min":33,"x_max":951,"o":"m 33 117 l 122 117 l 329 678 l 247 678 l 247 794 l 738 794 l 738 678 l 656 678 l 867 117 l 951 117 l 951 0 l 576 0 l 576 117 l 671 117 l 613 290 l 353 290 l 294 117 l 382 117 l 382 0 l 33 0 l 33 117 m 579 401 l 489 676 l 482 676 l 388 401 l 579 401 z "},"Á":{"ha":986,"x_min":33,"x_max":951,"o":"m 33 117 l 122 117 l 329 678 l 247 678 l 247 794 l 738 794 l 738 678 l 656 678 l 867 117 l 951 117 l 951 0 l 576 0 l 576 117 l 671 117 l 613 290 l 353 290 l 294 117 l 382 117 l 382 0 l 33 0 l 33 117 m 579 401 l 489 676 l 482 676 l 388 401 l 579 401 m 510 1118 l 674 1118 l 543 893 l 444 893 l 510 1118 z "},"Ă":{"ha":986,"x_min":33,"x_max":951,"o":"m 33 117 l 122 117 l 329 678 l 247 678 l 247 794 l 738 794 l 738 678 l 656 678 l 867 117 l 951 117 l 951 0 l 576 0 l 576 117 l 671 117 l 613 290 l 353 290 l 294 117 l 382 117 l 382 0 l 33 0 l 33 117 m 579 401 l 489 676 l 482 676 l 388 401 l 579 401 m 493 883 q 353 929 404 883 q 296 1060 301 975 l 407 1060 q 493 976 419 976 q 551 998 529 976 q 579 1060 574 1019 l 690 1060 q 631 930 682 975 q 493 883 581 885 z "},"Ắ":{"ha":986,"x_min":33,"x_max":951,"o":"m 33 117 l 122 117 l 329 678 l 247 678 l 247 794 l 738 794 l 738 678 l 656 678 l 867 117 l 951 117 l 951 0 l 576 0 l 576 117 l 671 117 l 613 290 l 353 290 l 294 117 l 382 117 l 382 0 l 33 0 l 33 117 m 579 401 l 489 676 l 482 676 l 388 401 l 579 401 m 500 1242 l 646 1242 l 528 1071 l 440 1071 l 500 1242 m 489 881 q 353 923 403 881 q 296 1043 303 965 l 400 1043 q 493 964 413 964 q 557 984 533 964 q 586 1043 581 1004 l 690 1043 q 631 922 682 964 q 489 881 579 881 z "},"Ặ":{"ha":986,"x_min":33,"x_max":951,"o":"m 33 117 l 122 117 l 329 678 l 247 678 l 247 794 l 738 794 l 738 678 l 656 678 l 867 117 l 951 117 l 951 0 l 576 0 l 576 117 l 671 117 l 613 290 l 353 290 l 294 117 l 382 117 l 382 0 l 33 0 l 33 117 m 579 401 l 489 676 l 482 676 l 388 401 l 579 401 m 493 883 q 353 929 404 883 q 296 1060 301 975 l 407 1060 q 493 976 419 976 q 551 998 529 976 q 579 1060 574 1019 l 690 1060 q 631 930 682 975 q 493 883 581 885 m 479 -242 q 414 -218 439 -242 q 389 -158 389 -194 q 414 -98 389 -121 q 479 -75 439 -75 q 545 -98 521 -75 q 569 -161 569 -121 q 544 -219 569 -196 q 479 -242 519 -242 z "},"Ằ":{"ha":986,"x_min":33,"x_max":951,"o":"m 33 117 l 122 117 l 329 678 l 247 678 l 247 794 l 738 794 l 738 678 l 656 678 l 867 117 l 951 117 l 951 0 l 576 0 l 576 117 l 671 117 l 613 290 l 353 290 l 294 117 l 382 117 l 382 0 l 33 0 l 33 117 m 579 401 l 489 676 l 482 676 l 388 401 l 579 401 m 339 1242 l 486 1242 l 546 1071 l 458 1071 l 339 1242 m 489 881 q 353 923 403 881 q 296 1043 303 965 l 400 1043 q 493 964 413 964 q 557 984 533 964 q 586 1043 581 1004 l 690 1043 q 631 922 682 964 q 489 881 579 881 z "},"Ẳ":{"ha":986,"x_min":33,"x_max":951,"o":"m 33 117 l 122 117 l 329 678 l 247 678 l 247 794 l 738 794 l 738 678 l 656 678 l 867 117 l 951 117 l 951 0 l 576 0 l 576 117 l 671 117 l 613 290 l 353 290 l 294 117 l 382 117 l 382 0 l 33 0 l 33 117 m 579 401 l 489 676 l 482 676 l 388 401 l 579 401 m 464 1106 q 498 1127 486 1115 q 510 1157 510 1139 q 495 1185 510 1175 q 456 1196 481 1196 q 383 1174 421 1196 l 361 1239 q 478 1278 415 1278 q 568 1249 533 1278 q 603 1172 603 1219 q 483 1044 603 1075 l 464 1106 m 489 881 q 353 923 403 881 q 296 1043 303 965 l 400 1043 q 493 964 413 964 q 557 984 533 964 q 586 1043 581 1004 l 690 1043 q 631 922 682 964 q 489 881 579 881 z "},"Ẵ":{"ha":986,"x_min":33,"x_max":951,"o":"m 33 117 l 122 117 l 329 678 l 247 678 l 247 794 l 738 794 l 738 678 l 656 678 l 867 117 l 951 117 l 951 0 l 576 0 l 576 117 l 671 117 l 613 290 l 353 290 l 294 117 l 382 117 l 382 0 l 33 0 l 33 117 m 579 401 l 489 676 l 482 676 l 388 401 l 579 401 m 592 1099 q 536 1108 564 1099 q 471 1133 508 1117 q 438 1147 467 1135 q 390 1158 410 1158 q 339 1106 344 1158 l 261 1106 q 305 1226 268 1188 q 399 1264 342 1264 q 444 1256 422 1264 q 507 1232 467 1249 q 594 1206 565 1206 q 631 1218 618 1206 q 650 1258 644 1231 l 725 1258 q 685 1139 719 1179 q 592 1099 650 1099 m 489 881 q 353 923 403 881 q 296 1043 303 965 l 400 1043 q 493 964 413 964 q 557 984 533 964 q 586 1043 581 1004 l 690 1043 q 631 922 682 964 q 489 881 579 881 z "},"Ǎ":{"ha":986,"x_min":33,"x_max":951,"o":"m 33 117 l 122 117 l 329 678 l 247 678 l 247 794 l 738 794 l 738 678 l 656 678 l 867 117 l 951 117 l 951 0 l 576 0 l 576 117 l 671 117 l 613 290 l 353 290 l 294 117 l 382 117 l 382 0 l 33 0 l 33 117 m 579 401 l 489 676 l 482 676 l 388 401 l 579 401 m 299 1106 l 413 1106 l 497 951 l 581 1106 l 686 1106 l 586 875 l 408 875 l 299 1106 z "},"Â":{"ha":986,"x_min":33,"x_max":951,"o":"m 33 117 l 122 117 l 329 678 l 247 678 l 247 794 l 738 794 l 738 678 l 656 678 l 867 117 l 951 117 l 951 0 l 576 0 l 576 117 l 671 117 l 613 290 l 353 290 l 294 117 l 382 117 l 382 0 l 33 0 l 33 117 m 579 401 l 489 676 l 482 676 l 388 401 l 579 401 m 407 1110 l 581 1110 l 697 876 l 586 876 l 493 1040 l 400 876 l 289 876 l 407 1110 z "},"Ấ":{"ha":986,"x_min":33,"x_max":951,"o":"m 33 117 l 122 117 l 329 678 l 247 678 l 247 794 l 738 794 l 738 678 l 656 678 l 867 117 l 951 117 l 951 0 l 576 0 l 576 117 l 671 117 l 613 290 l 353 290 l 294 117 l 382 117 l 382 0 l 33 0 l 33 117 m 579 401 l 489 676 l 482 676 l 388 401 l 579 401 m 715 1182 l 847 1182 l 740 1004 l 656 1004 l 715 1182 m 414 1061 l 574 1061 l 690 876 l 581 876 l 493 992 l 406 876 l 296 876 l 414 1061 z "},"Ậ":{"ha":986,"x_min":33,"x_max":951,"o":"m 33 117 l 122 117 l 329 678 l 247 678 l 247 794 l 738 794 l 738 678 l 656 678 l 867 117 l 951 117 l 951 0 l 576 0 l 576 117 l 671 117 l 613 290 l 353 290 l 294 117 l 382 117 l 382 0 l 33 0 l 33 117 m 579 401 l 489 676 l 482 676 l 388 401 l 579 401 m 407 1110 l 581 1110 l 697 876 l 586 876 l 493 1040 l 400 876 l 289 876 l 407 1110 m 479 -242 q 414 -218 439 -242 q 389 -158 389 -194 q 414 -98 389 -121 q 479 -75 439 -75 q 545 -98 521 -75 q 569 -161 569 -121 q 544 -219 569 -196 q 479 -242 519 -242 z "},"Ầ":{"ha":986,"x_min":33,"x_max":951,"o":"m 33 117 l 122 117 l 329 678 l 247 678 l 247 794 l 738 794 l 738 678 l 656 678 l 867 117 l 951 117 l 951 0 l 576 0 l 576 117 l 671 117 l 613 290 l 353 290 l 294 117 l 382 117 l 382 0 l 33 0 l 33 117 m 579 401 l 489 676 l 482 676 l 388 401 l 579 401 m 692 1004 l 586 1182 l 718 1182 l 778 1004 l 692 1004 m 414 1061 l 574 1061 l 690 876 l 581 876 l 493 992 l 406 876 l 296 876 l 414 1061 z "},"Ẩ":{"ha":986,"x_min":33,"x_max":951,"o":"m 33 117 l 122 117 l 329 678 l 247 678 l 247 794 l 738 794 l 738 678 l 656 678 l 867 117 l 951 117 l 951 0 l 576 0 l 576 117 l 671 117 l 613 290 l 353 290 l 294 117 l 382 117 l 382 0 l 33 0 l 33 117 m 579 401 l 489 676 l 482 676 l 388 401 l 579 401 m 651 1046 q 697 1099 697 1064 q 683 1129 697 1118 q 644 1140 668 1140 q 572 1118 608 1140 l 550 1183 q 665 1222 604 1222 q 757 1192 722 1222 q 792 1113 792 1161 q 760 1032 792 1064 q 671 985 729 1000 l 651 1046 m 414 1061 l 574 1061 l 690 876 l 581 876 l 493 992 l 406 876 l 296 876 l 414 1061 z "},"Ẫ":{"ha":986,"x_min":33,"x_max":951,"o":"m 33 117 l 122 117 l 329 678 l 247 678 l 247 794 l 738 794 l 738 678 l 656 678 l 867 117 l 951 117 l 951 0 l 576 0 l 576 117 l 671 117 l 613 290 l 353 290 l 294 117 l 382 117 l 382 0 l 33 0 l 33 117 m 579 401 l 489 676 l 482 676 l 388 401 l 579 401 m 592 1110 q 542 1118 567 1110 q 485 1140 517 1126 q 442 1158 464 1150 q 403 1165 419 1165 q 368 1153 381 1165 q 351 1113 356 1140 l 275 1113 q 314 1230 281 1192 q 399 1268 347 1268 q 444 1260 421 1268 q 500 1238 468 1253 q 543 1220 521 1228 q 581 1213 565 1213 q 619 1224 606 1213 q 638 1263 632 1236 l 713 1263 q 592 1110 700 1110 m 414 1061 l 574 1061 l 690 876 l 581 876 l 493 992 l 406 876 l 296 876 l 414 1061 z "},"Ȁ":{"ha":986,"x_min":33,"x_max":951,"o":"m 33 117 l 122 117 l 329 678 l 247 678 l 247 794 l 738 794 l 738 678 l 656 678 l 867 117 l 951 117 l 951 0 l 576 0 l 576 117 l 671 117 l 613 290 l 353 290 l 294 117 l 382 117 l 382 0 l 33 0 l 33 117 m 579 401 l 489 676 l 482 676 l 388 401 l 579 401 m 181 1124 l 344 1124 l 414 893 l 315 893 l 181 1124 m 421 1124 l 585 1124 l 653 893 l 554 893 l 421 1124 z "},"Ä":{"ha":986,"x_min":33,"x_max":951,"o":"m 33 117 l 122 117 l 329 678 l 247 678 l 247 794 l 738 794 l 738 678 l 656 678 l 867 117 l 951 117 l 951 0 l 576 0 l 576 117 l 671 117 l 613 290 l 353 290 l 294 117 l 382 117 l 382 0 l 33 0 l 33 117 m 579 401 l 489 676 l 482 676 l 388 401 l 579 401 m 336 894 q 269 918 296 894 q 243 983 243 942 q 269 1048 243 1024 q 336 1072 296 1072 q 401 1048 375 1072 q 428 983 428 1024 q 401 918 428 942 q 336 894 375 894 m 650 894 q 585 918 611 894 q 558 983 558 942 q 585 1048 558 1024 q 650 1072 611 1072 q 717 1048 690 1072 q 743 983 743 1024 q 717 918 743 942 q 650 894 690 894 z "},"Ȧ":{"ha":986,"x_min":33,"x_max":951,"o":"m 33 117 l 122 117 l 329 678 l 247 678 l 247 794 l 738 794 l 738 678 l 656 678 l 867 117 l 951 117 l 951 0 l 576 0 l 576 117 l 671 117 l 613 290 l 353 290 l 294 117 l 382 117 l 382 0 l 33 0 l 33 117 m 579 401 l 489 676 l 482 676 l 388 401 l 579 401 m 493 897 q 423 924 450 897 q 396 990 396 950 q 423 1056 396 1031 q 493 1082 450 1082 q 564 1056 538 1082 q 590 988 590 1031 q 563 922 590 947 q 493 897 536 897 z "},"Ạ":{"ha":986,"x_min":33,"x_max":951,"o":"m 33 117 l 122 117 l 329 678 l 247 678 l 247 794 l 738 794 l 738 678 l 656 678 l 867 117 l 951 117 l 951 0 l 576 0 l 576 117 l 671 117 l 613 290 l 353 290 l 294 117 l 382 117 l 382 0 l 33 0 l 33 117 m 579 401 l 489 676 l 482 676 l 388 401 l 579 401 m 479 -242 q 414 -218 439 -242 q 389 -158 389 -194 q 414 -98 389 -121 q 479 -75 439 -75 q 545 -98 521 -75 q 569 -161 569 -121 q 544 -219 569 -196 q 479 -242 519 -242 z "},"À":{"ha":986,"x_min":33,"x_max":951,"o":"m 33 117 l 122 117 l 329 678 l 247 678 l 247 794 l 738 794 l 738 678 l 656 678 l 867 117 l 951 117 l 951 0 l 576 0 l 576 117 l 671 117 l 613 290 l 353 290 l 294 117 l 382 117 l 382 0 l 33 0 l 33 117 m 579 401 l 489 676 l 482 676 l 388 401 l 579 401 m 311 1118 l 475 1118 l 540 893 l 442 893 l 311 1118 z "},"Ả":{"ha":986,"x_min":33,"x_max":951,"o":"m 33 117 l 122 117 l 329 678 l 247 678 l 247 794 l 738 794 l 738 678 l 656 678 l 867 117 l 951 117 l 951 0 l 576 0 l 576 117 l 671 117 l 613 290 l 353 290 l 294 117 l 382 117 l 382 0 l 33 0 l 33 117 m 579 401 l 489 676 l 482 676 l 388 401 l 579 401 m 468 915 q 514 968 514 933 q 499 999 514 988 q 461 1010 485 1010 q 389 988 425 1010 l 367 1053 q 482 1092 421 1092 q 574 1061 539 1092 q 608 982 608 1031 q 577 901 608 933 q 488 854 546 869 l 468 915 z "},"Ȃ":{"ha":986,"x_min":33,"x_max":951,"o":"m 33 117 l 122 117 l 329 678 l 247 678 l 247 794 l 738 794 l 738 678 l 656 678 l 867 117 l 951 117 l 951 0 l 576 0 l 576 117 l 671 117 l 613 290 l 353 290 l 294 117 l 382 117 l 382 0 l 33 0 l 33 117 m 579 401 l 489 676 l 482 676 l 388 401 l 579 401 m 297 864 q 354 1005 303 956 q 493 1054 406 1054 q 631 1004 579 1054 q 688 864 682 954 l 579 864 q 493 944 567 944 q 434 924 457 944 q 406 864 411 903 l 297 864 z "},"Ā":{"ha":986,"x_min":33,"x_max":951,"o":"m 33 117 l 122 117 l 329 678 l 247 678 l 247 794 l 738 794 l 738 678 l 656 678 l 867 117 l 951 117 l 951 0 l 576 0 l 576 117 l 671 117 l 613 290 l 353 290 l 294 117 l 382 117 l 382 0 l 33 0 l 33 117 m 579 401 l 489 676 l 482 676 l 388 401 l 579 401 m 325 988 l 661 988 l 661 894 l 325 894 l 325 988 z "},"Ą":{"ha":986,"x_min":33,"x_max":951,"o":"m 33 117 l 122 117 l 329 678 l 247 678 l 247 794 l 738 794 l 738 678 l 656 678 l 867 117 l 951 117 l 951 0 l 576 0 l 576 117 l 671 117 l 613 290 l 353 290 l 294 117 l 382 117 l 382 0 l 33 0 l 33 117 m 579 401 l 489 676 l 482 676 l 388 401 l 579 401 m 799 -257 q 711 -226 744 -257 q 678 -146 678 -194 q 763 0 678 -74 l 831 0 q 785 -60 800 -33 q 769 -111 769 -86 q 789 -153 769 -137 q 840 -169 808 -169 q 899 -156 871 -169 l 899 -231 q 799 -257 846 -257 z "},"Å":{"ha":986,"x_min":33,"x_max":951,"o":"m 33 117 l 122 117 l 329 678 l 247 678 l 247 794 l 738 794 l 738 678 l 656 678 l 867 117 l 951 117 l 951 0 l 576 0 l 576 117 l 671 117 l 613 290 l 353 290 l 294 117 l 382 117 l 382 0 l 33 0 l 33 117 m 579 401 l 489 676 l 482 676 l 388 401 l 579 401 m 496 860 q 404 892 438 860 q 371 976 371 924 q 403 1062 371 1031 q 493 1093 435 1093 q 583 1062 550 1093 q 615 976 615 1031 q 583 892 615 925 q 496 860 551 860 m 493 915 q 538 932 522 915 q 554 976 554 949 q 538 1022 554 1006 q 493 1039 522 1039 q 447 1022 464 1039 q 431 976 431 1004 q 447 932 431 949 q 493 915 464 915 z "},"Ǻ":{"ha":986,"x_min":33,"x_max":951,"o":"m 33 117 l 122 117 l 329 678 l 247 678 l 247 794 l 738 794 l 738 678 l 656 678 l 867 117 l 951 117 l 951 0 l 576 0 l 576 117 l 671 117 l 613 290 l 353 290 l 294 117 l 382 117 l 382 0 l 33 0 l 33 117 m 579 401 l 489 676 l 482 676 l 388 401 l 579 401 m 496 860 q 404 892 438 860 q 371 976 371 924 q 403 1062 371 1031 q 493 1093 435 1093 q 583 1062 550 1093 q 615 976 615 1031 q 583 892 615 925 q 496 860 551 860 m 493 915 q 538 932 522 915 q 554 976 554 949 q 538 1022 554 1006 q 493 1039 522 1039 q 447 1022 464 1039 q 431 976 431 1004 q 447 932 431 949 q 493 915 464 915 m 510 1372 l 674 1372 l 543 1147 l 444 1147 l 510 1372 z "},"Ã":{"ha":986,"x_min":33,"x_max":951,"o":"m 33 117 l 122 117 l 329 678 l 247 678 l 247 794 l 738 794 l 738 678 l 656 678 l 867 117 l 951 117 l 951 0 l 576 0 l 576 117 l 671 117 l 613 290 l 353 290 l 294 117 l 382 117 l 382 0 l 33 0 l 33 117 m 579 401 l 489 676 l 482 676 l 388 401 l 579 401 m 589 894 q 535 903 563 894 q 469 929 507 913 q 436 943 463 932 q 390 954 410 954 q 339 901 344 954 l 261 901 q 306 1032 268 990 q 400 1074 343 1074 q 449 1065 425 1074 q 514 1040 474 1057 q 594 1014 572 1014 q 650 1068 640 1014 l 725 1068 q 683 939 719 983 q 589 894 647 894 z "},"Æ":{"ha":1361,"x_min":22,"x_max":1297,"o":"m 22 117 l 114 117 l 439 678 l 360 678 l 360 794 l 1243 794 l 1260 526 l 1135 526 l 1122 678 l 794 678 l 808 461 l 981 461 l 975 546 l 1069 546 l 1090 263 l 994 263 l 988 349 l 813 349 l 826 118 l 1167 118 l 1156 278 l 1279 278 l 1297 0 l 547 0 l 547 117 l 636 117 l 626 282 l 382 282 l 294 117 l 376 117 l 376 0 l 22 0 l 22 117 m 622 390 l 606 678 l 594 678 l 435 390 l 622 390 z "},"Ǽ":{"ha":1361,"x_min":22,"x_max":1297,"o":"m 22 117 l 114 117 l 439 678 l 360 678 l 360 794 l 1243 794 l 1260 526 l 1135 526 l 1122 678 l 794 678 l 808 461 l 981 461 l 975 546 l 1069 546 l 1090 263 l 994 263 l 988 349 l 813 349 l 826 118 l 1167 118 l 1156 278 l 1279 278 l 1297 0 l 547 0 l 547 117 l 636 117 l 626 282 l 382 282 l 294 117 l 376 117 l 376 0 l 22 0 l 22 117 m 622 390 l 606 678 l 594 678 l 435 390 l 622 390 m 792 1118 l 956 1118 l 825 893 l 726 893 l 792 1118 z "},"Ǣ":{"ha":1361,"x_min":22,"x_max":1297,"o":"m 22 117 l 114 117 l 439 678 l 360 678 l 360 794 l 1243 794 l 1260 526 l 1135 526 l 1122 678 l 794 678 l 808 461 l 981 461 l 975 546 l 1069 546 l 1090 263 l 994 263 l 988 349 l 813 349 l 826 118 l 1167 118 l 1156 278 l 1279 278 l 1297 0 l 547 0 l 547 117 l 636 117 l 626 282 l 382 282 l 294 117 l 376 117 l 376 0 l 22 0 l 22 117 m 622 390 l 606 678 l 594 678 l 435 390 l 622 390 m 607 988 l 943 988 l 943 894 l 607 894 l 607 988 z "},"B":{"ha":874,"x_min":61,"x_max":825,"o":"m 61 117 l 151 117 l 151 678 l 61 678 l 61 794 l 497 794 q 712 744 640 794 q 783 600 783 693 q 642 431 783 464 q 780 358 735 413 q 825 225 825 304 q 748 60 825 121 q 514 0 671 0 l 61 0 l 61 117 m 464 475 q 590 579 590 475 q 557 654 590 631 q 450 678 524 678 l 342 678 l 342 475 l 464 475 m 476 118 q 628 242 628 118 q 590 331 628 300 q 474 363 551 363 l 342 363 l 342 118 l 476 118 z "},"Ḃ":{"ha":874,"x_min":61,"x_max":825,"o":"m 61 117 l 151 117 l 151 678 l 61 678 l 61 794 l 497 794 q 712 744 640 794 q 783 600 783 693 q 642 431 783 464 q 780 358 735 413 q 825 225 825 304 q 748 60 825 121 q 514 0 671 0 l 61 0 l 61 117 m 464 475 q 590 579 590 475 q 557 654 590 631 q 450 678 524 678 l 342 678 l 342 475 l 464 475 m 476 118 q 628 242 628 118 q 590 331 628 300 q 474 363 551 363 l 342 363 l 342 118 l 476 118 m 415 897 q 345 924 372 897 q 318 990 318 950 q 345 1056 318 1031 q 415 1082 372 1082 q 486 1056 460 1082 q 513 988 513 1031 q 485 922 513 947 q 415 897 458 897 z "},"C":{"ha":968,"x_min":57,"x_max":893,"o":"m 893 246 q 752 53 856 119 q 496 -15 649 -14 q 269 36 368 -15 q 113 181 169 88 q 57 397 57 274 q 110 613 57 519 q 260 757 164 706 q 479 808 356 808 q 635 781 567 808 q 744 701 703 753 l 744 794 l 874 794 l 874 528 l 763 526 q 663 640 722 603 q 519 676 604 676 q 325 599 397 676 q 253 400 253 522 q 285 251 253 315 q 376 153 318 188 q 507 118 433 118 q 658 164 596 118 q 746 303 719 210 l 893 246 z "},"Ć":{"ha":968,"x_min":57,"x_max":893,"o":"m 893 246 q 752 53 856 119 q 496 -15 649 -14 q 269 36 368 -15 q 113 181 169 88 q 57 397 57 274 q 110 613 57 519 q 260 757 164 706 q 479 808 356 808 q 635 781 567 808 q 744 701 703 753 l 744 794 l 874 794 l 874 528 l 763 526 q 663 640 722 603 q 519 676 604 676 q 325 599 397 676 q 253 400 253 522 q 285 251 253 315 q 376 153 318 188 q 507 118 433 118 q 658 164 596 118 q 746 303 719 210 l 893 246 m 517 1118 l 681 1118 l 550 893 l 451 893 l 517 1118 z "},"Č":{"ha":968,"x_min":57,"x_max":893,"o":"m 893 246 q 752 53 856 119 q 496 -15 649 -14 q 269 36 368 -15 q 113 181 169 88 q 57 397 57 274 q 110 613 57 519 q 260 757 164 706 q 479 808 356 808 q 635 781 567 808 q 744 701 703 753 l 744 794 l 874 794 l 874 528 l 763 526 q 663 640 722 603 q 519 676 604 676 q 325 599 397 676 q 253 400 253 522 q 285 251 253 315 q 376 153 318 188 q 507 118 433 118 q 658 164 596 118 q 746 303 719 210 l 893 246 m 306 1106 l 419 1106 l 504 951 l 588 1106 l 693 1106 l 593 875 l 415 875 l 306 1106 z "},"Ç":{"ha":968,"x_min":57,"x_max":893,"o":"m 893 246 q 760 58 857 125 q 519 -15 664 -8 l 501 -79 q 577 -112 551 -86 q 603 -175 603 -139 q 569 -244 603 -221 q 486 -268 536 -268 q 364 -236 424 -268 l 364 -187 q 442 -204 417 -204 q 479 -194 465 -204 q 493 -164 493 -185 q 413 -118 493 -122 l 454 -14 q 247 48 338 -6 q 107 191 157 101 q 57 397 57 281 q 110 613 57 519 q 260 757 164 706 q 479 808 356 808 q 635 781 567 808 q 744 701 703 753 l 744 794 l 874 794 l 874 528 l 763 526 q 663 640 722 603 q 519 676 604 676 q 325 599 397 676 q 253 400 253 522 q 285 251 253 315 q 376 153 318 188 q 507 118 433 118 q 658 164 596 118 q 746 303 719 210 l 893 246 z "},"Ḉ":{"ha":968,"x_min":57,"x_max":893,"o":"m 550 893 l 451 893 l 517 1118 l 681 1118 l 550 893 m 893 246 q 760 58 857 125 q 519 -15 664 -8 l 501 -79 q 577 -112 551 -86 q 603 -175 603 -139 q 569 -244 603 -221 q 486 -268 536 -268 q 364 -236 424 -268 l 364 -187 q 442 -204 417 -204 q 479 -194 465 -204 q 493 -164 493 -185 q 413 -118 493 -122 l 454 -14 q 247 48 338 -6 q 107 191 157 101 q 57 397 57 281 q 110 613 57 519 q 260 757 164 706 q 479 808 356 808 q 635 781 567 808 q 744 701 703 753 l 744 794 l 874 794 l 874 528 l 763 526 q 663 640 722 603 q 519 676 604 676 q 325 599 397 676 q 253 400 253 522 q 285 251 253 315 q 376 153 318 188 q 507 118 433 118 q 658 164 596 118 q 746 303 719 210 l 893 246 z "},"Ĉ":{"ha":968,"x_min":57,"x_max":893,"o":"m 893 246 q 752 53 856 119 q 496 -15 649 -14 q 269 36 368 -15 q 113 181 169 88 q 57 397 57 274 q 110 613 57 519 q 260 757 164 706 q 479 808 356 808 q 635 781 567 808 q 744 701 703 753 l 744 794 l 874 794 l 874 528 l 763 526 q 663 640 722 603 q 519 676 604 676 q 325 599 397 676 q 253 400 253 522 q 285 251 253 315 q 376 153 318 188 q 507 118 433 118 q 658 164 596 118 q 746 303 719 210 l 893 246 m 414 1110 l 588 1110 l 704 876 l 593 876 l 500 1040 l 407 876 l 296 876 l 414 1110 z "},"Ċ":{"ha":968,"x_min":57,"x_max":893,"o":"m 893 246 q 752 53 856 119 q 496 -15 649 -14 q 269 36 368 -15 q 113 181 169 88 q 57 397 57 274 q 110 613 57 519 q 260 757 164 706 q 479 808 356 808 q 635 781 567 808 q 744 701 703 753 l 744 794 l 874 794 l 874 528 l 763 526 q 663 640 722 603 q 519 676 604 676 q 325 599 397 676 q 253 400 253 522 q 285 251 253 315 q 376 153 318 188 q 507 118 433 118 q 658 164 596 118 q 746 303 719 210 l 893 246 m 500 897 q 430 924 457 897 q 403 990 403 950 q 430 1056 403 1031 q 500 1082 457 1082 q 571 1056 544 1082 q 597 988 597 1031 q 570 922 597 947 q 500 897 543 897 z "},"D":{"ha":993,"x_min":63,"x_max":936,"o":"m 63 117 l 153 117 l 153 678 l 63 678 l 63 794 l 519 794 q 748 742 654 794 q 889 599 842 689 q 936 403 936 510 q 829 110 936 219 q 521 0 722 0 l 63 0 l 63 117 m 490 117 q 677 192 617 117 q 738 401 738 268 q 676 602 738 526 q 492 678 615 678 l 343 678 l 343 117 l 490 117 z "},"Ǳ":{"ha":1807,"x_min":63,"x_max":1747,"o":"m 63 117 l 153 117 l 153 678 l 63 678 l 63 794 l 519 794 q 748 742 654 794 q 889 599 842 689 q 936 403 936 510 q 829 110 936 219 q 521 0 722 0 l 63 0 l 63 117 m 490 117 q 677 192 617 117 q 738 401 738 268 q 676 602 738 526 q 492 678 615 678 l 343 678 l 343 117 l 490 117 m 1060 101 l 1485 681 l 1200 681 l 1200 514 l 1074 514 l 1074 794 l 1736 794 l 1736 699 l 1308 115 l 1618 115 l 1618 296 l 1747 296 l 1747 0 l 1060 0 l 1060 101 z "},"Ǆ":{"ha":1807,"x_min":63,"x_max":1747,"o":"m 63 117 l 153 117 l 153 678 l 63 678 l 63 794 l 519 794 q 748 742 654 794 q 889 599 842 689 q 936 403 936 510 q 829 110 936 219 q 521 0 722 0 l 63 0 l 63 117 m 490 117 q 677 192 617 117 q 738 401 738 268 q 676 602 738 526 q 492 678 615 678 l 343 678 l 343 117 l 490 117 m 1060 101 l 1485 681 l 1200 681 l 1200 514 l 1074 514 l 1074 794 l 1736 794 l 1736 699 l 1308 115 l 1618 115 l 1618 296 l 1747 296 l 1747 0 l 1060 0 l 1060 101 m 1218 1106 l 1332 1106 l 1417 951 l 1500 1106 l 1606 1106 l 1506 875 l 1328 875 l 1218 1106 z "},"Ð":{"ha":1007,"x_min":63,"x_max":936,"o":"m 519 794 q 748 742 654 794 q 889 599 842 689 q 936 403 936 510 q 829 110 936 219 q 521 0 722 0 l 63 0 l 63 117 l 153 117 l 153 350 l 63 350 l 63 458 l 153 458 l 153 678 l 63 678 l 63 794 l 519 794 m 490 117 q 677 192 617 117 q 738 401 738 268 q 676 602 738 526 q 492 678 615 678 l 343 678 l 343 458 l 432 458 l 432 350 l 343 350 l 343 117 l 490 117 z "},"Ď":{"ha":993,"x_min":63,"x_max":936,"o":"m 63 117 l 153 117 l 153 678 l 63 678 l 63 794 l 519 794 q 748 742 654 794 q 889 599 842 689 q 936 403 936 510 q 829 110 936 219 q 521 0 722 0 l 63 0 l 63 117 m 490 117 q 677 192 617 117 q 738 401 738 268 q 676 602 738 526 q 492 678 615 678 l 343 678 l 343 117 l 490 117 m 329 1106 l 443 1106 l 528 951 l 611 1106 l 717 1106 l 617 875 l 439 875 l 329 1106 z "},"Đ":{"ha":1007,"x_min":63,"x_max":936,"o":"m 519 794 q 748 742 654 794 q 889 599 842 689 q 936 403 936 510 q 829 110 936 219 q 521 0 722 0 l 63 0 l 63 117 l 153 117 l 153 350 l 63 350 l 63 458 l 153 458 l 153 678 l 63 678 l 63 794 l 519 794 m 490 117 q 677 192 617 117 q 738 401 738 268 q 676 602 738 526 q 492 678 615 678 l 343 678 l 343 458 l 432 458 l 432 350 l 343 350 l 343 117 l 490 117 z "},"Ḋ":{"ha":993,"x_min":63,"x_max":936,"o":"m 63 117 l 153 117 l 153 678 l 63 678 l 63 794 l 519 794 q 748 742 654 794 q 889 599 842 689 q 936 403 936 510 q 829 110 936 219 q 521 0 722 0 l 63 0 l 63 117 m 490 117 q 677 192 617 117 q 738 401 738 268 q 676 602 738 526 q 492 678 615 678 l 343 678 l 343 117 l 490 117 m 524 897 q 453 924 481 897 q 426 990 426 950 q 453 1056 426 1031 q 524 1082 481 1082 q 594 1056 568 1082 q 621 988 621 1031 q 594 922 621 947 q 524 897 567 897 z "},"Ḍ":{"ha":993,"x_min":63,"x_max":936,"o":"m 63 117 l 153 117 l 153 678 l 63 678 l 63 794 l 519 794 q 748 742 654 794 q 889 599 842 689 q 936 403 936 510 q 829 110 936 219 q 521 0 722 0 l 63 0 l 63 117 m 490 117 q 677 192 617 117 q 738 401 738 268 q 676 602 738 526 q 492 678 615 678 l 343 678 l 343 117 l 490 117 m 521 -242 q 456 -218 481 -242 q 431 -158 431 -194 q 456 -98 431 -121 q 521 -75 481 -75 q 587 -98 563 -75 q 611 -161 611 -121 q 586 -219 611 -196 q 521 -242 561 -242 z "},"Ḏ":{"ha":993,"x_min":63,"x_max":936,"o":"m 63 117 l 153 117 l 153 678 l 63 678 l 63 794 l 519 794 q 748 742 654 794 q 889 599 842 689 q 936 403 936 510 q 829 110 936 219 q 521 0 722 0 l 63 0 l 63 117 m 490 117 q 677 192 617 117 q 738 401 738 268 q 676 602 738 526 q 492 678 615 678 l 343 678 l 343 117 l 490 117 m 353 -85 l 689 -85 l 689 -178 l 353 -178 l 353 -85 z "},"ǲ":{"ha":1586,"x_min":63,"x_max":1539,"o":"m 63 117 l 153 117 l 153 678 l 63 678 l 63 794 l 519 794 q 748 742 654 794 q 889 599 842 689 q 936 403 936 510 q 829 110 936 219 q 521 0 722 0 l 63 0 l 63 117 m 490 117 q 677 192 617 117 q 738 401 738 268 q 676 602 738 526 q 492 678 615 678 l 343 678 l 343 117 l 490 117 m 1015 90 l 1333 453 l 1126 453 l 1126 346 l 1019 346 l 1019 553 l 1529 553 l 1529 460 l 1208 97 l 1432 97 l 1432 218 l 1539 218 l 1539 0 l 1015 0 l 1015 90 z "},"ǅ":{"ha":1617,"x_min":63,"x_max":1569,"o":"m 63 117 l 153 117 l 153 678 l 63 678 l 63 794 l 519 794 q 748 742 654 794 q 889 599 842 689 q 936 403 936 510 q 829 110 936 219 q 521 0 722 0 l 63 0 l 63 117 m 490 117 q 677 192 617 117 q 738 401 738 268 q 676 602 738 526 q 492 678 615 678 l 343 678 l 343 117 l 490 117 m 1046 90 l 1364 453 l 1157 453 l 1157 346 l 1050 346 l 1050 553 l 1560 553 l 1560 460 l 1239 97 l 1463 97 l 1463 218 l 1569 218 l 1569 0 l 1046 0 l 1046 90 m 1121 864 l 1235 864 l 1319 710 l 1403 864 l 1508 864 l 1408 633 l 1231 633 l 1121 864 z "},"E":{"ha":869,"x_min":61,"x_max":799,"o":"m 61 117 l 151 117 l 151 678 l 61 678 l 61 794 l 792 794 l 792 535 l 668 535 l 668 678 l 343 678 l 343 465 l 510 465 l 510 549 l 606 549 l 606 267 l 511 267 l 511 353 l 343 353 l 343 118 l 674 118 l 674 271 l 799 271 l 799 0 l 61 0 l 61 117 z "},"É":{"ha":869,"x_min":61,"x_max":799,"o":"m 61 117 l 151 117 l 151 678 l 61 678 l 61 794 l 792 794 l 792 535 l 668 535 l 668 678 l 343 678 l 343 465 l 510 465 l 510 549 l 606 549 l 606 267 l 511 267 l 511 353 l 343 353 l 343 118 l 674 118 l 674 271 l 799 271 l 799 0 l 61 0 l 61 117 m 478 1118 l 642 1118 l 511 893 l 413 893 l 478 1118 z "},"Ĕ":{"ha":869,"x_min":61,"x_max":799,"o":"m 61 117 l 151 117 l 151 678 l 61 678 l 61 794 l 792 794 l 792 535 l 668 535 l 668 678 l 343 678 l 343 465 l 510 465 l 510 549 l 606 549 l 606 267 l 511 267 l 511 353 l 343 353 l 343 118 l 674 118 l 674 271 l 799 271 l 799 0 l 61 0 l 61 117 m 461 883 q 321 929 372 883 q 264 1060 269 975 l 375 1060 q 461 976 388 976 q 519 998 497 976 q 547 1060 542 1019 l 658 1060 q 599 930 650 975 q 461 883 549 885 z "},"Ě":{"ha":869,"x_min":61,"x_max":799,"o":"m 61 117 l 151 117 l 151 678 l 61 678 l 61 794 l 792 794 l 792 535 l 668 535 l 668 678 l 343 678 l 343 465 l 510 465 l 510 549 l 606 549 l 606 267 l 511 267 l 511 353 l 343 353 l 343 118 l 674 118 l 674 271 l 799 271 l 799 0 l 61 0 l 61 117 m 267 1106 l 381 1106 l 465 951 l 549 1106 l 654 1106 l 554 875 l 376 875 l 267 1106 z "},"Ȩ":{"ha":869,"x_min":61,"x_max":799,"o":"m 61 117 l 151 117 l 151 678 l 61 678 l 61 794 l 792 794 l 792 535 l 668 535 l 668 678 l 343 678 l 343 465 l 510 465 l 510 549 l 606 549 l 606 267 l 511 267 l 511 353 l 343 353 l 343 118 l 674 118 l 674 271 l 799 271 l 799 0 l 61 0 l 61 117 m 456 -268 q 333 -236 393 -268 l 333 -187 q 411 -204 386 -204 q 449 -194 435 -204 q 463 -164 463 -185 q 382 -118 463 -122 l 429 0 l 493 0 l 471 -79 q 547 -112 521 -86 q 572 -175 572 -139 q 539 -244 572 -221 q 456 -268 506 -268 z "},"Ḝ":{"ha":869,"x_min":61,"x_max":799,"o":"m 61 117 l 151 117 l 151 678 l 61 678 l 61 794 l 792 794 l 792 535 l 668 535 l 668 678 l 343 678 l 343 465 l 510 465 l 510 549 l 606 549 l 606 267 l 511 267 l 511 353 l 343 353 l 343 118 l 674 118 l 674 271 l 799 271 l 799 0 l 61 0 l 61 117 m 456 -268 q 333 -236 393 -268 l 333 -187 q 411 -204 386 -204 q 449 -194 435 -204 q 463 -164 463 -185 q 382 -118 463 -122 l 429 0 l 493 0 l 471 -79 q 547 -112 521 -86 q 572 -175 572 -139 q 539 -244 572 -221 q 456 -268 506 -268 m 461 883 q 321 929 372 883 q 264 1060 269 975 l 375 1060 q 461 976 388 976 q 519 998 497 976 q 547 1060 542 1019 l 658 1060 q 599 930 650 975 q 461 883 549 885 z "},"Ê":{"ha":869,"x_min":61,"x_max":799,"o":"m 61 117 l 151 117 l 151 678 l 61 678 l 61 794 l 792 794 l 792 535 l 668 535 l 668 678 l 343 678 l 343 465 l 510 465 l 510 549 l 606 549 l 606 267 l 511 267 l 511 353 l 343 353 l 343 118 l 674 118 l 674 271 l 799 271 l 799 0 l 61 0 l 61 117 m 375 1110 l 549 1110 l 665 876 l 554 876 l 461 1040 l 368 876 l 257 876 l 375 1110 z "},"Ế":{"ha":869,"x_min":61,"x_max":815,"o":"m 61 117 l 151 117 l 151 678 l 61 678 l 61 794 l 792 794 l 792 535 l 668 535 l 668 678 l 343 678 l 343 465 l 510 465 l 510 549 l 606 549 l 606 267 l 511 267 l 511 353 l 343 353 l 343 118 l 674 118 l 674 271 l 799 271 l 799 0 l 61 0 l 61 117 m 683 1182 l 815 1182 l 708 1004 l 624 1004 l 683 1182 m 382 1061 l 542 1061 l 658 876 l 549 876 l 461 992 l 374 876 l 264 876 l 382 1061 z "},"Ệ":{"ha":869,"x_min":61,"x_max":799,"o":"m 61 117 l 151 117 l 151 678 l 61 678 l 61 794 l 792 794 l 792 535 l 668 535 l 668 678 l 343 678 l 343 465 l 510 465 l 510 549 l 606 549 l 606 267 l 511 267 l 511 353 l 343 353 l 343 118 l 674 118 l 674 271 l 799 271 l 799 0 l 61 0 l 61 117 m 375 1110 l 549 1110 l 665 876 l 554 876 l 461 1040 l 368 876 l 257 876 l 375 1110 m 460 -242 q 394 -218 419 -242 q 369 -158 369 -194 q 394 -98 369 -121 q 460 -75 419 -75 q 526 -98 501 -75 q 550 -161 550 -121 q 525 -219 550 -196 q 460 -242 500 -242 z "},"Ề":{"ha":869,"x_min":61,"x_max":799,"o":"m 61 117 l 151 117 l 151 678 l 61 678 l 61 794 l 792 794 l 792 535 l 668 535 l 668 678 l 343 678 l 343 465 l 510 465 l 510 549 l 606 549 l 606 267 l 511 267 l 511 353 l 343 353 l 343 118 l 674 118 l 674 271 l 799 271 l 799 0 l 61 0 l 61 117 m 660 1004 l 554 1182 l 686 1182 l 746 1004 l 660 1004 m 382 1061 l 542 1061 l 658 876 l 549 876 l 461 992 l 374 876 l 264 876 l 382 1061 z "},"Ể":{"ha":869,"x_min":61,"x_max":799,"o":"m 61 117 l 151 117 l 151 678 l 61 678 l 61 794 l 792 794 l 792 535 l 668 535 l 668 678 l 343 678 l 343 465 l 510 465 l 510 549 l 606 549 l 606 267 l 511 267 l 511 353 l 343 353 l 343 118 l 674 118 l 674 271 l 799 271 l 799 0 l 61 0 l 61 117 m 619 1046 q 665 1099 665 1064 q 651 1129 665 1118 q 613 1140 636 1140 q 540 1118 576 1140 l 518 1183 q 633 1222 572 1222 q 725 1192 690 1222 q 760 1113 760 1161 q 728 1032 760 1064 q 639 985 697 1000 l 619 1046 m 382 1061 l 542 1061 l 658 876 l 549 876 l 461 992 l 374 876 l 264 876 l 382 1061 z "},"Ễ":{"ha":869,"x_min":61,"x_max":799,"o":"m 61 117 l 151 117 l 151 678 l 61 678 l 61 794 l 792 794 l 792 535 l 668 535 l 668 678 l 343 678 l 343 465 l 510 465 l 510 549 l 606 549 l 606 267 l 511 267 l 511 353 l 343 353 l 343 118 l 674 118 l 674 271 l 799 271 l 799 0 l 61 0 l 61 117 m 560 1110 q 510 1118 535 1110 q 453 1140 485 1126 q 410 1158 432 1150 q 371 1165 388 1165 q 336 1153 349 1165 q 319 1113 324 1140 l 243 1113 q 282 1230 249 1192 q 367 1268 315 1268 q 413 1260 389 1268 q 468 1238 436 1253 q 511 1220 489 1228 q 549 1213 533 1213 q 587 1224 574 1213 q 606 1263 600 1236 l 681 1263 q 560 1110 668 1110 m 382 1061 l 542 1061 l 658 876 l 549 876 l 461 992 l 374 876 l 264 876 l 382 1061 z "},"Ȅ":{"ha":869,"x_min":61,"x_max":799,"o":"m 61 117 l 151 117 l 151 678 l 61 678 l 61 794 l 792 794 l 792 535 l 668 535 l 668 678 l 343 678 l 343 465 l 510 465 l 510 549 l 606 549 l 606 267 l 511 267 l 511 353 l 343 353 l 343 118 l 674 118 l 674 271 l 799 271 l 799 0 l 61 0 l 61 117 m 149 1124 l 313 1124 l 382 893 l 283 893 l 149 1124 m 389 1124 l 553 1124 l 621 893 l 522 893 l 389 1124 z "},"Ë":{"ha":869,"x_min":61,"x_max":799,"o":"m 61 117 l 151 117 l 151 678 l 61 678 l 61 794 l 792 794 l 792 535 l 668 535 l 668 678 l 343 678 l 343 465 l 510 465 l 510 549 l 606 549 l 606 267 l 511 267 l 511 353 l 343 353 l 343 118 l 674 118 l 674 271 l 799 271 l 799 0 l 61 0 l 61 117 m 304 894 q 238 918 264 894 q 211 983 211 942 q 238 1048 211 1024 q 304 1072 264 1072 q 369 1048 343 1072 q 396 983 396 1024 q 369 918 396 942 q 304 894 343 894 m 618 894 q 553 918 579 894 q 526 983 526 942 q 553 1048 526 1024 q 618 1072 579 1072 q 685 1048 658 1072 q 711 983 711 1024 q 685 918 711 942 q 618 894 658 894 z "},"Ė":{"ha":869,"x_min":61,"x_max":799,"o":"m 61 117 l 151 117 l 151 678 l 61 678 l 61 794 l 792 794 l 792 535 l 668 535 l 668 678 l 343 678 l 343 465 l 510 465 l 510 549 l 606 549 l 606 267 l 511 267 l 511 353 l 343 353 l 343 118 l 674 118 l 674 271 l 799 271 l 799 0 l 61 0 l 61 117 m 461 897 q 391 924 418 897 q 364 990 364 950 q 391 1056 364 1031 q 461 1082 418 1082 q 532 1056 506 1082 q 558 988 558 1031 q 531 922 558 947 q 461 897 504 897 z "},"Ẹ":{"ha":869,"x_min":61,"x_max":799,"o":"m 61 117 l 151 117 l 151 678 l 61 678 l 61 794 l 792 794 l 792 535 l 668 535 l 668 678 l 343 678 l 343 465 l 510 465 l 510 549 l 606 549 l 606 267 l 511 267 l 511 353 l 343 353 l 343 118 l 674 118 l 674 271 l 799 271 l 799 0 l 61 0 l 61 117 m 460 -242 q 394 -218 419 -242 q 369 -158 369 -194 q 394 -98 369 -121 q 460 -75 419 -75 q 526 -98 501 -75 q 550 -161 550 -121 q 525 -219 550 -196 q 460 -242 500 -242 z "},"È":{"ha":869,"x_min":61,"x_max":799,"o":"m 61 117 l 151 117 l 151 678 l 61 678 l 61 794 l 792 794 l 792 535 l 668 535 l 668 678 l 343 678 l 343 465 l 510 465 l 510 549 l 606 549 l 606 267 l 511 267 l 511 353 l 343 353 l 343 118 l 674 118 l 674 271 l 799 271 l 799 0 l 61 0 l 61 117 m 279 1118 l 443 1118 l 508 893 l 410 893 l 279 1118 z "},"Ẻ":{"ha":869,"x_min":61,"x_max":799,"o":"m 61 117 l 151 117 l 151 678 l 61 678 l 61 794 l 792 794 l 792 535 l 668 535 l 668 678 l 343 678 l 343 465 l 510 465 l 510 549 l 606 549 l 606 267 l 511 267 l 511 353 l 343 353 l 343 118 l 674 118 l 674 271 l 799 271 l 799 0 l 61 0 l 61 117 m 436 915 q 482 968 482 933 q 467 999 482 988 q 429 1010 453 1010 q 357 988 393 1010 l 335 1053 q 450 1092 389 1092 q 542 1061 507 1092 q 576 982 576 1031 q 545 901 576 933 q 456 854 514 869 l 436 915 z "},"Ȇ":{"ha":869,"x_min":61,"x_max":799,"o":"m 61 117 l 151 117 l 151 678 l 61 678 l 61 794 l 792 794 l 792 535 l 668 535 l 668 678 l 343 678 l 343 465 l 510 465 l 510 549 l 606 549 l 606 267 l 511 267 l 511 353 l 343 353 l 343 118 l 674 118 l 674 271 l 799 271 l 799 0 l 61 0 l 61 117 m 265 864 q 322 1005 271 956 q 461 1054 374 1054 q 599 1004 547 1054 q 656 864 650 954 l 547 864 q 461 944 535 944 q 402 924 425 944 q 374 864 379 903 l 265 864 z "},"Ē":{"ha":869,"x_min":61,"x_max":799,"o":"m 61 117 l 151 117 l 151 678 l 61 678 l 61 794 l 792 794 l 792 535 l 668 535 l 668 678 l 343 678 l 343 465 l 510 465 l 510 549 l 606 549 l 606 267 l 511 267 l 511 353 l 343 353 l 343 118 l 674 118 l 674 271 l 799 271 l 799 0 l 61 0 l 61 117 m 293 988 l 629 988 l 629 894 l 293 894 l 293 988 z "},"Ḗ":{"ha":869,"x_min":61,"x_max":799,"o":"m 61 117 l 151 117 l 151 678 l 61 678 l 61 794 l 792 794 l 792 535 l 668 535 l 668 678 l 343 678 l 343 465 l 510 465 l 510 549 l 606 549 l 606 267 l 511 267 l 511 353 l 343 353 l 343 118 l 674 118 l 674 271 l 799 271 l 799 0 l 61 0 l 61 117 m 293 988 l 629 988 l 629 894 l 293 894 l 293 988 m 478 1304 l 642 1304 l 511 1079 l 413 1079 l 478 1304 z "},"Ḕ":{"ha":869,"x_min":61,"x_max":799,"o":"m 61 117 l 151 117 l 151 678 l 61 678 l 61 794 l 792 794 l 792 535 l 668 535 l 668 678 l 343 678 l 343 465 l 510 465 l 510 549 l 606 549 l 606 267 l 511 267 l 511 353 l 343 353 l 343 118 l 674 118 l 674 271 l 799 271 l 799 0 l 61 0 l 61 117 m 293 988 l 629 988 l 629 894 l 293 894 l 293 988 m 279 1304 l 443 1304 l 508 1079 l 410 1079 l 279 1304 z "},"Ę":{"ha":869,"x_min":61,"x_max":799,"o":"m 61 117 l 151 117 l 151 678 l 61 678 l 61 794 l 792 794 l 792 535 l 668 535 l 668 678 l 343 678 l 343 465 l 510 465 l 510 549 l 606 549 l 606 267 l 511 267 l 511 353 l 343 353 l 343 118 l 674 118 l 674 271 l 799 271 l 799 0 l 61 0 l 61 117 m 688 -257 q 600 -226 633 -257 q 567 -146 567 -194 q 651 0 567 -74 l 719 0 q 674 -60 689 -33 q 658 -111 658 -86 q 678 -153 658 -137 q 729 -169 697 -169 q 788 -156 760 -169 l 788 -231 q 688 -257 735 -257 z "},"Ẽ":{"ha":869,"x_min":61,"x_max":799,"o":"m 61 117 l 151 117 l 151 678 l 61 678 l 61 794 l 792 794 l 792 535 l 668 535 l 668 678 l 343 678 l 343 465 l 510 465 l 510 549 l 606 549 l 606 267 l 511 267 l 511 353 l 343 353 l 343 118 l 674 118 l 674 271 l 799 271 l 799 0 l 61 0 l 61 117 m 557 894 q 503 903 531 894 q 438 929 475 913 q 404 943 431 932 q 358 954 378 954 q 307 901 313 954 l 229 901 q 274 1032 236 990 q 368 1074 311 1074 q 417 1065 393 1074 q 482 1040 442 1057 q 563 1014 540 1014 q 618 1068 608 1014 l 693 1068 q 651 939 688 983 q 557 894 615 894 z "},"F":{"ha":813,"x_min":61,"x_max":785,"o":"m 61 117 l 151 117 l 151 678 l 61 678 l 61 794 l 785 794 l 785 529 l 660 529 l 660 678 l 342 678 l 342 467 l 506 467 l 506 547 l 603 547 l 603 268 l 507 268 l 507 353 l 342 353 l 342 117 l 439 117 l 439 0 l 61 0 l 61 117 z "},"Ḟ":{"ha":813,"x_min":61,"x_max":785,"o":"m 61 117 l 151 117 l 151 678 l 61 678 l 61 794 l 785 794 l 785 529 l 660 529 l 660 678 l 342 678 l 342 467 l 506 467 l 506 547 l 603 547 l 603 268 l 507 268 l 507 353 l 342 353 l 342 117 l 439 117 l 439 0 l 61 0 l 61 117 m 438 897 q 367 924 394 897 q 340 990 340 950 q 367 1056 340 1031 q 438 1082 394 1082 q 508 1056 482 1082 q 535 988 535 1031 q 508 922 535 947 q 438 897 481 897 z "},"G":{"ha":993,"x_min":56,"x_max":922,"o":"m 922 422 l 922 371 q 809 86 922 186 q 504 -14 696 -14 q 267 38 369 -14 q 110 183 165 89 q 56 397 56 276 q 110 612 56 518 q 262 757 164 706 q 486 808 360 808 q 642 781 575 808 q 753 704 710 754 l 753 794 l 886 794 l 886 525 l 771 525 q 524 676 697 676 q 329 603 401 676 q 257 401 257 529 q 326 195 257 271 q 513 119 396 119 q 669 166 608 121 q 738 303 731 211 l 589 303 l 589 422 l 922 422 z "},"Ǵ":{"ha":993,"x_min":56,"x_max":922,"o":"m 922 422 l 922 371 q 809 86 922 186 q 504 -14 696 -14 q 267 38 369 -14 q 110 183 165 89 q 56 397 56 276 q 110 612 56 518 q 262 757 164 706 q 486 808 360 808 q 642 781 575 808 q 753 704 710 754 l 753 794 l 886 794 l 886 525 l 771 525 q 524 676 697 676 q 329 603 401 676 q 257 401 257 529 q 326 195 257 271 q 513 119 396 119 q 669 166 608 121 q 738 303 731 211 l 589 303 l 589 422 l 922 422 m 538 1118 l 701 1118 l 571 893 l 472 893 l 538 1118 z "},"Ğ":{"ha":993,"x_min":56,"x_max":922,"o":"m 922 422 l 922 371 q 809 86 922 186 q 504 -14 696 -14 q 267 38 369 -14 q 110 183 165 89 q 56 397 56 276 q 110 612 56 518 q 262 757 164 706 q 486 808 360 808 q 642 781 575 808 q 753 704 710 754 l 753 794 l 886 794 l 886 525 l 771 525 q 524 676 697 676 q 329 603 401 676 q 257 401 257 529 q 326 195 257 271 q 513 119 396 119 q 669 166 608 121 q 738 303 731 211 l 589 303 l 589 422 l 922 422 m 521 883 q 381 929 432 883 q 324 1060 329 975 l 435 1060 q 521 976 447 976 q 579 998 557 976 q 607 1060 601 1019 l 718 1060 q 659 930 710 975 q 521 883 608 885 z "},"Ǧ":{"ha":993,"x_min":56,"x_max":922,"o":"m 922 422 l 922 371 q 809 86 922 186 q 504 -14 696 -14 q 267 38 369 -14 q 110 183 165 89 q 56 397 56 276 q 110 612 56 518 q 262 757 164 706 q 486 808 360 808 q 642 781 575 808 q 753 704 710 754 l 753 794 l 886 794 l 886 525 l 771 525 q 524 676 697 676 q 329 603 401 676 q 257 401 257 529 q 326 195 257 271 q 513 119 396 119 q 669 166 608 121 q 738 303 731 211 l 589 303 l 589 422 l 922 422 m 326 1106 l 440 1106 l 525 951 l 608 1106 l 714 1106 l 614 875 l 436 875 l 326 1106 z "},"Ĝ":{"ha":993,"x_min":56,"x_max":922,"o":"m 922 422 l 922 371 q 809 86 922 186 q 504 -14 696 -14 q 267 38 369 -14 q 110 183 165 89 q 56 397 56 276 q 110 612 56 518 q 262 757 164 706 q 486 808 360 808 q 642 781 575 808 q 753 704 710 754 l 753 794 l 886 794 l 886 525 l 771 525 q 524 676 697 676 q 329 603 401 676 q 257 401 257 529 q 326 195 257 271 q 513 119 396 119 q 669 166 608 121 q 738 303 731 211 l 589 303 l 589 422 l 922 422 m 435 1110 l 608 1110 l 725 876 l 614 876 l 521 1040 l 428 876 l 317 876 l 435 1110 z "},"Ģ":{"ha":993,"x_min":56,"x_max":922,"o":"m 922 422 l 922 371 q 809 86 922 186 q 504 -14 696 -14 q 267 38 369 -14 q 110 183 165 89 q 56 397 56 276 q 110 612 56 518 q 262 757 164 706 q 486 808 360 808 q 642 781 575 808 q 753 704 710 754 l 753 794 l 886 794 l 886 525 l 771 525 q 524 676 697 676 q 329 603 401 676 q 257 401 257 529 q 326 195 257 271 q 513 119 396 119 q 669 166 608 121 q 738 303 731 211 l 589 303 l 589 422 l 922 422 m 433 -326 q 496 -295 476 -319 q 515 -222 515 -271 l 428 -222 l 428 -75 l 600 -75 l 600 -204 q 561 -340 600 -296 q 433 -385 522 -385 l 433 -326 z "},"Ġ":{"ha":993,"x_min":56,"x_max":922,"o":"m 922 422 l 922 371 q 809 86 922 186 q 504 -14 696 -14 q 267 38 369 -14 q 110 183 165 89 q 56 397 56 276 q 110 612 56 518 q 262 757 164 706 q 486 808 360 808 q 642 781 575 808 q 753 704 710 754 l 753 794 l 886 794 l 886 525 l 771 525 q 524 676 697 676 q 329 603 401 676 q 257 401 257 529 q 326 195 257 271 q 513 119 396 119 q 669 166 608 121 q 738 303 731 211 l 589 303 l 589 422 l 922 422 m 521 897 q 451 924 478 897 q 424 990 424 950 q 451 1056 424 1031 q 521 1082 478 1082 q 592 1056 565 1082 q 618 988 618 1031 q 591 922 618 947 q 521 897 564 897 z "},"Ḡ":{"ha":993,"x_min":56,"x_max":922,"o":"m 922 422 l 922 371 q 809 86 922 186 q 504 -14 696 -14 q 267 38 369 -14 q 110 183 165 89 q 56 397 56 276 q 110 612 56 518 q 262 757 164 706 q 486 808 360 808 q 642 781 575 808 q 753 704 710 754 l 753 794 l 886 794 l 886 525 l 771 525 q 524 676 697 676 q 329 603 401 676 q 257 401 257 529 q 326 195 257 271 q 513 119 396 119 q 669 166 608 121 q 738 303 731 211 l 589 303 l 589 422 l 922 422 m 353 988 l 689 988 l 689 894 l 353 894 l 353 988 z "},"H":{"ha":1013,"x_min":61,"x_max":951,"o":"m 61 117 l 151 117 l 151 678 l 61 678 l 61 794 l 432 794 l 432 678 l 342 678 l 342 463 l 671 463 l 671 678 l 581 678 l 581 794 l 951 794 l 951 678 l 861 678 l 861 117 l 951 117 l 951 0 l 581 0 l 581 117 l 671 117 l 671 349 l 342 349 l 342 117 l 432 117 l 432 0 l 61 0 l 61 117 z "},"Ħ":{"ha":1013,"x_min":61,"x_max":951,"o":"m 861 678 l 861 611 l 944 611 l 944 533 l 861 533 l 861 117 l 951 117 l 951 0 l 581 0 l 581 117 l 671 117 l 671 349 l 342 349 l 342 117 l 432 117 l 432 0 l 61 0 l 61 117 l 151 117 l 151 533 l 74 533 l 74 611 l 151 611 l 151 678 l 61 678 l 61 794 l 432 794 l 432 678 l 342 678 l 342 611 l 671 611 l 671 678 l 581 678 l 581 794 l 951 794 l 951 678 l 861 678 m 671 533 l 342 533 l 342 463 l 671 463 l 671 533 z "},"Ḫ":{"ha":1013,"x_min":61,"x_max":951,"o":"m 61 117 l 151 117 l 151 678 l 61 678 l 61 794 l 432 794 l 432 678 l 342 678 l 342 463 l 671 463 l 671 678 l 581 678 l 581 794 l 951 794 l 951 678 l 861 678 l 861 117 l 951 117 l 951 0 l 581 0 l 581 117 l 671 117 l 671 349 l 342 349 l 342 117 l 432 117 l 432 0 l 61 0 l 61 117 m 521 -251 q 381 -206 432 -251 q 324 -75 329 -160 l 435 -75 q 521 -158 447 -158 q 579 -137 557 -158 q 607 -75 601 -115 l 718 -75 q 659 -205 710 -160 q 521 -251 608 -250 z "},"Ȟ":{"ha":1013,"x_min":61,"x_max":951,"o":"m 61 117 l 151 117 l 151 678 l 61 678 l 61 794 l 432 794 l 432 678 l 342 678 l 342 463 l 671 463 l 671 678 l 581 678 l 581 794 l 951 794 l 951 678 l 861 678 l 861 117 l 951 117 l 951 0 l 581 0 l 581 117 l 671 117 l 671 349 l 342 349 l 342 117 l 432 117 l 432 0 l 61 0 l 61 117 m 315 1106 l 429 1106 l 514 951 l 597 1106 l 703 1106 l 603 875 l 425 875 l 315 1106 z "},"Ĥ":{"ha":1013,"x_min":61,"x_max":951,"o":"m 61 117 l 151 117 l 151 678 l 61 678 l 61 794 l 432 794 l 432 678 l 342 678 l 342 463 l 671 463 l 671 678 l 581 678 l 581 794 l 951 794 l 951 678 l 861 678 l 861 117 l 951 117 l 951 0 l 581 0 l 581 117 l 671 117 l 671 349 l 342 349 l 342 117 l 432 117 l 432 0 l 61 0 l 61 117 m 424 1110 l 597 1110 l 714 876 l 603 876 l 510 1040 l 417 876 l 306 876 l 424 1110 z "},"Ḥ":{"ha":1013,"x_min":61,"x_max":951,"o":"m 61 117 l 151 117 l 151 678 l 61 678 l 61 794 l 432 794 l 432 678 l 342 678 l 342 463 l 671 463 l 671 678 l 581 678 l 581 794 l 951 794 l 951 678 l 861 678 l 861 117 l 951 117 l 951 0 l 581 0 l 581 117 l 671 117 l 671 349 l 342 349 l 342 117 l 432 117 l 432 0 l 61 0 l 61 117 m 521 -242 q 456 -218 481 -242 q 431 -158 431 -194 q 456 -98 431 -121 q 521 -75 481 -75 q 587 -98 563 -75 q 611 -161 611 -121 q 586 -219 611 -196 q 521 -242 561 -242 z "},"I":{"ha":511,"x_min":69,"x_max":442,"o":"m 69 117 l 160 117 l 160 678 l 69 678 l 69 794 l 442 794 l 442 678 l 350 678 l 350 117 l 442 117 l 442 0 l 69 0 l 69 117 z "},"Ĳ":{"ha":1018,"x_min":69,"x_max":975,"o":"m 69 117 l 160 117 l 160 678 l 69 678 l 69 794 l 442 794 l 442 678 l 350 678 l 350 117 l 442 117 l 442 0 l 69 0 l 69 117 m 540 -39 l 603 -39 q 678 -9 657 -39 q 699 82 699 21 l 699 685 l 603 685 l 603 794 l 975 794 l 975 685 l 889 685 l 889 92 q 831 -116 889 -50 q 639 -182 772 -182 l 540 -182 l 540 -39 z "},"Í":{"ha":511,"x_min":69,"x_max":442,"o":"m 69 117 l 160 117 l 160 678 l 69 678 l 69 794 l 442 794 l 442 678 l 350 678 l 350 117 l 442 117 l 442 0 l 69 0 l 69 117 m 272 1118 l 436 1118 l 306 893 l 207 893 l 272 1118 z "},"Ĭ":{"ha":511,"x_min":58,"x_max":453,"o":"m 69 117 l 160 117 l 160 678 l 69 678 l 69 794 l 442 794 l 442 678 l 350 678 l 350 117 l 442 117 l 442 0 l 69 0 l 69 117 m 256 883 q 115 929 167 883 q 58 1060 64 975 l 169 1060 q 256 976 182 976 q 314 998 292 976 q 342 1060 336 1019 l 453 1060 q 394 930 444 975 q 256 883 343 885 z "},"Ǐ":{"ha":511,"x_min":61,"x_max":449,"o":"m 69 117 l 160 117 l 160 678 l 69 678 l 69 794 l 442 794 l 442 678 l 350 678 l 350 117 l 442 117 l 442 0 l 69 0 l 69 117 m 61 1106 l 175 1106 l 260 951 l 343 1106 l 449 1106 l 349 875 l 171 875 l 61 1106 z "},"Î":{"ha":511,"x_min":51,"x_max":460,"o":"m 69 117 l 160 117 l 160 678 l 69 678 l 69 794 l 442 794 l 442 678 l 350 678 l 350 117 l 442 117 l 442 0 l 69 0 l 69 117 m 169 1110 l 343 1110 l 460 876 l 349 876 l 256 1040 l 163 876 l 51 876 l 169 1110 z "},"Ȉ":{"ha":511,"x_min":-57,"x_max":442,"o":"m 69 117 l 160 117 l 160 678 l 69 678 l 69 794 l 442 794 l 442 678 l 350 678 l 350 117 l 442 117 l 442 0 l 69 0 l 69 117 m -57 1124 l 107 1124 l 176 893 l 78 893 l -57 1124 m 183 1124 l 347 1124 l 415 893 l 317 893 l 183 1124 z "},"Ï":{"ha":511,"x_min":6,"x_max":506,"o":"m 69 117 l 160 117 l 160 678 l 69 678 l 69 794 l 442 794 l 442 678 l 350 678 l 350 117 l 442 117 l 442 0 l 69 0 l 69 117 m 99 894 q 32 918 58 894 q 6 983 6 942 q 32 1048 6 1024 q 99 1072 58 1072 q 164 1048 138 1072 q 190 983 190 1024 q 164 918 190 942 q 99 894 138 894 m 413 894 q 347 918 374 894 q 321 983 321 942 q 347 1048 321 1024 q 413 1072 374 1072 q 479 1048 453 1072 q 506 983 506 1024 q 479 918 506 942 q 413 894 453 894 z "},"Ḯ":{"ha":511,"x_min":6,"x_max":506,"o":"m 69 117 l 160 117 l 160 678 l 69 678 l 69 794 l 442 794 l 442 678 l 350 678 l 350 117 l 442 117 l 442 0 l 69 0 l 69 117 m 99 894 q 32 918 58 894 q 6 983 6 942 q 32 1048 6 1024 q 99 1072 58 1072 q 164 1048 138 1072 q 190 983 190 1024 q 164 918 190 942 q 99 894 138 894 m 413 894 q 347 918 374 894 q 321 983 321 942 q 347 1048 321 1024 q 413 1072 374 1072 q 479 1048 453 1072 q 506 983 506 1024 q 479 918 506 942 q 413 894 453 894 m 272 1376 l 436 1376 l 306 1151 l 207 1151 l 272 1376 z "},"İ":{"ha":511,"x_min":69,"x_max":442,"o":"m 69 117 l 160 117 l 160 678 l 69 678 l 69 794 l 442 794 l 442 678 l 350 678 l 350 117 l 442 117 l 442 0 l 69 0 l 69 117 m 256 897 q 185 924 213 897 q 158 990 158 950 q 185 1056 158 1031 q 256 1082 213 1082 q 326 1056 300 1082 q 353 988 353 1031 q 326 922 353 947 q 256 897 299 897 z "},"Ị":{"ha":511,"x_min":69,"x_max":442,"o":"m 69 117 l 160 117 l 160 678 l 69 678 l 69 794 l 442 794 l 442 678 l 350 678 l 350 117 l 442 117 l 442 0 l 69 0 l 69 117 m 256 -242 q 190 -218 215 -242 q 165 -158 165 -194 q 190 -98 165 -121 q 256 -75 215 -75 q 322 -98 297 -75 q 346 -161 346 -121 q 321 -219 346 -196 q 256 -242 296 -242 z "},"Ì":{"ha":511,"x_min":69,"x_max":442,"o":"m 69 117 l 160 117 l 160 678 l 69 678 l 69 794 l 442 794 l 442 678 l 350 678 l 350 117 l 442 117 l 442 0 l 69 0 l 69 117 m 74 1118 l 238 1118 l 303 893 l 204 893 l 74 1118 z "},"Ỉ":{"ha":511,"x_min":69,"x_max":442,"o":"m 69 117 l 160 117 l 160 678 l 69 678 l 69 794 l 442 794 l 442 678 l 350 678 l 350 117 l 442 117 l 442 0 l 69 0 l 69 117 m 231 915 q 276 968 276 933 q 262 999 276 988 q 224 1010 247 1010 q 151 988 188 1010 l 129 1053 q 244 1092 183 1092 q 336 1061 301 1092 q 371 982 371 1031 q 340 901 371 933 q 250 854 308 869 l 231 915 z "},"Ȋ":{"ha":511,"x_min":60,"x_max":450,"o":"m 69 117 l 160 117 l 160 678 l 69 678 l 69 794 l 442 794 l 442 678 l 350 678 l 350 117 l 442 117 l 442 0 l 69 0 l 69 117 m 60 864 q 117 1005 65 956 q 256 1054 168 1054 q 393 1004 342 1054 q 450 864 444 954 l 342 864 q 256 944 329 944 q 197 924 219 944 q 168 864 174 903 l 60 864 z "},"Ī":{"ha":511,"x_min":69,"x_max":442,"o":"m 69 117 l 160 117 l 160 678 l 69 678 l 69 794 l 442 794 l 442 678 l 350 678 l 350 117 l 442 117 l 442 0 l 69 0 l 69 117 m 88 988 l 424 988 l 424 894 l 88 894 l 88 988 z "},"Į":{"ha":511,"x_min":69,"x_max":442,"o":"m 69 117 l 160 117 l 160 678 l 69 678 l 69 794 l 442 794 l 442 678 l 350 678 l 350 117 l 442 117 l 442 0 l 69 0 l 69 117 m 261 -257 q 174 -226 207 -257 q 140 -146 140 -194 q 225 0 140 -74 l 293 0 q 247 -60 263 -33 q 232 -111 232 -86 q 251 -153 232 -137 q 303 -169 271 -169 q 361 -156 333 -169 l 361 -231 q 261 -257 308 -257 z "},"Ĩ":{"ha":511,"x_min":24,"x_max":488,"o":"m 69 117 l 160 117 l 160 678 l 69 678 l 69 794 l 442 794 l 442 678 l 350 678 l 350 117 l 442 117 l 442 0 l 69 0 l 69 117 m 351 894 q 297 903 325 894 q 232 929 269 913 q 199 943 225 932 q 153 954 172 954 q 101 901 107 954 l 24 901 q 68 1032 31 990 q 163 1074 106 1074 q 212 1065 188 1074 q 276 1040 236 1057 q 357 1014 335 1014 q 413 1068 403 1014 l 488 1068 q 446 939 482 983 q 351 894 410 894 z "},"J":{"ha":507,"x_min":29,"x_max":464,"o":"m 29 -39 l 92 -39 q 167 -9 146 -39 q 188 82 188 21 l 188 685 l 92 685 l 92 794 l 464 794 l 464 685 l 378 685 l 378 92 q 319 -116 378 -50 q 128 -182 261 -182 l 29 -182 l 29 -39 z "},"Ĵ":{"ha":507,"x_min":29,"x_max":483,"o":"m 29 -39 l 92 -39 q 167 -9 146 -39 q 188 82 188 21 l 188 685 l 92 685 l 92 794 l 464 794 l 464 685 l 378 685 l 378 92 q 319 -116 378 -50 q 128 -182 261 -182 l 29 -182 l 29 -39 m 193 1110 l 367 1110 l 483 876 l 372 876 l 279 1040 l 186 876 l 75 876 l 193 1110 z "},"K":{"ha":936,"x_min":61,"x_max":897,"o":"m 61 117 l 151 117 l 151 678 l 61 678 l 61 794 l 433 794 l 433 678 l 343 678 l 343 421 l 610 678 l 533 678 l 533 794 l 885 794 l 885 678 l 807 678 l 525 407 l 819 117 l 897 117 l 897 0 l 531 0 l 531 117 l 603 117 l 343 378 l 343 117 l 433 117 l 433 0 l 61 0 l 61 117 z "},"Ǩ":{"ha":936,"x_min":61,"x_max":897,"o":"m 61 117 l 151 117 l 151 678 l 61 678 l 61 794 l 433 794 l 433 678 l 343 678 l 343 421 l 610 678 l 533 678 l 533 794 l 885 794 l 885 678 l 807 678 l 525 407 l 819 117 l 897 117 l 897 0 l 531 0 l 531 117 l 603 117 l 343 378 l 343 117 l 433 117 l 433 0 l 61 0 l 61 117 m 286 1106 l 400 1106 l 485 951 l 568 1106 l 674 1106 l 574 875 l 396 875 l 286 1106 z "},"Ķ":{"ha":936,"x_min":61,"x_max":897,"o":"m 61 117 l 151 117 l 151 678 l 61 678 l 61 794 l 433 794 l 433 678 l 343 678 l 343 421 l 610 678 l 533 678 l 533 794 l 885 794 l 885 678 l 807 678 l 525 407 l 819 117 l 897 117 l 897 0 l 531 0 l 531 117 l 603 117 l 343 378 l 343 117 l 433 117 l 433 0 l 61 0 l 61 117 m 429 -326 q 492 -295 472 -319 q 511 -222 511 -271 l 424 -222 l 424 -75 l 596 -75 l 596 -204 q 557 -340 596 -296 q 429 -385 518 -385 l 429 -326 z "},"L":{"ha":767,"x_min":61,"x_max":733,"o":"m 61 117 l 151 117 l 151 685 l 61 685 l 61 794 l 432 794 l 432 685 l 342 685 l 342 117 l 600 117 l 600 339 l 733 339 l 733 0 l 61 0 l 61 117 z "},"Ǉ":{"ha":1274,"x_min":61,"x_max":1231,"o":"m 61 117 l 151 117 l 151 685 l 61 685 l 61 794 l 432 794 l 432 685 l 342 685 l 342 117 l 600 117 l 600 339 l 733 339 l 733 0 l 61 0 l 61 117 m 796 -39 l 858 -39 q 933 -9 913 -39 q 954 82 954 21 l 954 685 l 858 685 l 858 794 l 1231 794 l 1231 685 l 1144 685 l 1144 92 q 1086 -116 1144 -50 q 894 -182 1028 -182 l 796 -182 l 796 -39 z "},"Ĺ":{"ha":767,"x_min":61,"x_max":733,"o":"m 61 117 l 151 117 l 151 685 l 61 685 l 61 794 l 432 794 l 432 685 l 342 685 l 342 117 l 600 117 l 600 339 l 733 339 l 733 0 l 61 0 l 61 117 m 264 1118 l 428 1118 l 297 893 l 199 893 l 264 1118 z "},"Ľ":{"ha":767,"x_min":61,"x_max":733,"o":"m 61 117 l 151 117 l 151 685 l 61 685 l 61 794 l 432 794 l 432 685 l 342 685 l 342 117 l 600 117 l 600 339 l 733 339 l 733 0 l 61 0 l 61 117 m 560 538 q 625 567 604 543 q 646 642 646 590 l 560 642 l 560 794 l 732 794 l 732 660 q 692 524 732 571 q 560 478 651 478 l 560 538 z "},"Ļ":{"ha":767,"x_min":61,"x_max":733,"o":"m 61 117 l 151 117 l 151 685 l 61 685 l 61 794 l 432 794 l 432 685 l 342 685 l 342 117 l 600 117 l 600 339 l 733 339 l 733 0 l 61 0 l 61 117 m 324 -326 q 386 -295 367 -319 q 406 -222 406 -271 l 318 -222 l 318 -75 l 490 -75 l 490 -204 q 451 -340 490 -296 q 324 -385 413 -385 l 324 -326 z "},"Ŀ":{"ha":767,"x_min":61,"x_max":733,"o":"m 61 117 l 151 117 l 151 685 l 61 685 l 61 794 l 432 794 l 432 685 l 342 685 l 342 117 l 600 117 l 600 339 l 733 339 l 733 0 l 61 0 l 61 117 m 626 460 q 565 483 590 460 q 540 542 540 507 q 565 599 540 576 q 626 622 590 622 q 689 599 664 622 q 714 542 714 576 q 689 483 714 507 q 626 460 664 460 z "},"Ḷ":{"ha":767,"x_min":61,"x_max":733,"o":"m 61 117 l 151 117 l 151 685 l 61 685 l 61 794 l 432 794 l 432 685 l 342 685 l 342 117 l 600 117 l 600 339 l 733 339 l 733 0 l 61 0 l 61 117 m 403 -242 q 338 -218 363 -242 q 313 -158 313 -194 q 338 -98 313 -121 q 403 -75 363 -75 q 469 -98 444 -75 q 493 -161 493 -121 q 468 -219 493 -196 q 403 -242 443 -242 z "},"ǈ":{"ha":1156,"x_min":61,"x_max":1089,"o":"m 61 117 l 151 117 l 151 685 l 61 685 l 61 794 l 432 794 l 432 685 l 342 685 l 342 117 l 600 117 l 600 339 l 733 339 l 733 0 l 61 0 l 61 117 m 982 661 q 907 689 936 661 q 878 761 878 717 q 907 832 878 804 q 982 860 936 860 q 1058 833 1029 860 q 1086 761 1086 806 q 1058 689 1086 717 q 982 661 1029 661 m 764 -96 l 819 -96 q 898 -71 876 -96 q 919 15 919 -46 l 919 442 l 813 442 l 813 553 l 1089 553 l 1089 40 q 1029 -158 1089 -94 q 832 -222 969 -222 l 764 -222 l 764 -96 z "},"Ḻ":{"ha":767,"x_min":61,"x_max":733,"o":"m 61 117 l 151 117 l 151 685 l 61 685 l 61 794 l 432 794 l 432 685 l 342 685 l 342 117 l 600 117 l 600 339 l 733 339 l 733 0 l 61 0 l 61 117 m 235 -85 l 571 -85 l 571 -178 l 235 -178 l 235 -85 z "},"Ł":{"ha":767,"x_min":61,"x_max":733,"o":"m 733 339 l 733 0 l 61 0 l 61 117 l 151 117 l 151 310 l 61 271 l 61 361 l 151 400 l 151 685 l 61 685 l 61 794 l 432 794 l 432 685 l 342 685 l 342 483 l 536 568 l 536 478 l 342 393 l 342 117 l 600 117 l 600 339 l 733 339 z "},"M":{"ha":1214,"x_min":63,"x_max":1153,"o":"m 63 117 l 150 117 l 150 678 l 63 678 l 63 794 l 410 794 l 615 321 l 814 794 l 1153 794 l 1153 678 l 1064 678 l 1064 117 l 1153 117 l 1153 0 l 796 0 l 796 117 l 882 117 l 882 628 l 632 35 l 554 35 l 300 628 l 300 117 l 386 117 l 386 0 l 63 0 l 63 117 z "},"Ṁ":{"ha":1214,"x_min":63,"x_max":1153,"o":"m 63 117 l 150 117 l 150 678 l 63 678 l 63 794 l 410 794 l 615 321 l 814 794 l 1153 794 l 1153 678 l 1064 678 l 1064 117 l 1153 117 l 1153 0 l 796 0 l 796 117 l 882 117 l 882 628 l 632 35 l 554 35 l 300 628 l 300 117 l 386 117 l 386 0 l 63 0 l 63 117 m 610 897 q 540 924 567 897 q 513 990 513 950 q 540 1056 513 1031 q 610 1082 567 1082 q 681 1056 654 1082 q 707 988 707 1031 q 680 922 707 947 q 610 897 653 897 z "},"Ṃ":{"ha":1214,"x_min":63,"x_max":1153,"o":"m 63 117 l 150 117 l 150 678 l 63 678 l 63 794 l 410 794 l 615 321 l 814 794 l 1153 794 l 1153 678 l 1064 678 l 1064 117 l 1153 117 l 1153 0 l 796 0 l 796 117 l 882 117 l 882 628 l 632 35 l 554 35 l 300 628 l 300 117 l 386 117 l 386 0 l 63 0 l 63 117 m 593 -242 q 528 -218 553 -242 q 503 -158 503 -194 q 528 -98 503 -121 q 593 -75 553 -75 q 659 -98 635 -75 q 683 -161 683 -121 q 658 -219 683 -196 q 593 -242 633 -242 z "},"N":{"ha":1018,"x_min":63,"x_max":974,"o":"m 63 117 l 154 117 l 154 678 l 63 678 l 63 794 l 375 794 l 751 242 l 751 678 l 654 678 l 654 794 l 974 794 l 974 678 l 883 678 l 883 0 l 692 0 l 283 601 l 283 117 l 381 117 l 381 0 l 63 0 l 63 117 z "},"Ǌ":{"ha":1525,"x_min":63,"x_max":1482,"o":"m 63 117 l 154 117 l 154 678 l 63 678 l 63 794 l 375 794 l 751 242 l 751 678 l 654 678 l 654 794 l 974 794 l 974 678 l 883 678 l 883 0 l 692 0 l 283 601 l 283 117 l 381 117 l 381 0 l 63 0 l 63 117 m 1047 -39 l 1110 -39 q 1185 -9 1164 -39 q 1206 82 1206 21 l 1206 685 l 1110 685 l 1110 794 l 1482 794 l 1482 685 l 1396 685 l 1396 92 q 1338 -116 1396 -50 q 1146 -182 1279 -182 l 1047 -182 l 1047 -39 z "},"Ń":{"ha":1018,"x_min":63,"x_max":974,"o":"m 63 117 l 154 117 l 154 678 l 63 678 l 63 794 l 375 794 l 751 242 l 751 678 l 654 678 l 654 794 l 974 794 l 974 678 l 883 678 l 883 0 l 692 0 l 283 601 l 283 117 l 381 117 l 381 0 l 63 0 l 63 117 m 539 1118 l 703 1118 l 572 893 l 474 893 l 539 1118 z "},"Ň":{"ha":1018,"x_min":63,"x_max":974,"o":"m 63 117 l 154 117 l 154 678 l 63 678 l 63 794 l 375 794 l 751 242 l 751 678 l 654 678 l 654 794 l 974 794 l 974 678 l 883 678 l 883 0 l 692 0 l 283 601 l 283 117 l 381 117 l 381 0 l 63 0 l 63 117 m 328 1106 l 442 1106 l 526 951 l 610 1106 l 715 1106 l 615 875 l 438 875 l 328 1106 z "},"Ņ":{"ha":1018,"x_min":63,"x_max":974,"o":"m 63 117 l 154 117 l 154 678 l 63 678 l 63 794 l 375 794 l 751 242 l 751 678 l 654 678 l 654 794 l 974 794 l 974 678 l 883 678 l 883 0 l 692 0 l 283 601 l 283 117 l 381 117 l 381 0 l 63 0 l 63 117 m 450 -326 q 513 -295 493 -319 q 532 -222 532 -271 l 444 -222 l 444 -75 l 617 -75 l 617 -204 q 578 -340 617 -296 q 450 -385 539 -385 l 450 -326 z "},"Ṅ":{"ha":1018,"x_min":63,"x_max":974,"o":"m 63 117 l 154 117 l 154 678 l 63 678 l 63 794 l 375 794 l 751 242 l 751 678 l 654 678 l 654 794 l 974 794 l 974 678 l 883 678 l 883 0 l 692 0 l 283 601 l 283 117 l 381 117 l 381 0 l 63 0 l 63 117 m 522 897 q 452 924 479 897 q 425 990 425 950 q 452 1056 425 1031 q 522 1082 479 1082 q 593 1056 567 1082 q 619 988 619 1031 q 592 922 619 947 q 522 897 565 897 z "},"Ṇ":{"ha":1018,"x_min":63,"x_max":974,"o":"m 63 117 l 154 117 l 154 678 l 63 678 l 63 794 l 375 794 l 751 242 l 751 678 l 654 678 l 654 794 l 974 794 l 974 678 l 883 678 l 883 0 l 692 0 l 283 601 l 283 117 l 381 117 l 381 0 l 63 0 l 63 117 m 529 -242 q 464 -218 489 -242 q 439 -158 439 -194 q 464 -98 439 -121 q 529 -75 489 -75 q 595 -98 571 -75 q 619 -161 619 -121 q 594 -219 619 -196 q 529 -242 569 -242 z "},"Ǹ":{"ha":1018,"x_min":63,"x_max":974,"o":"m 63 117 l 154 117 l 154 678 l 63 678 l 63 794 l 375 794 l 751 242 l 751 678 l 654 678 l 654 794 l 974 794 l 974 678 l 883 678 l 883 0 l 692 0 l 283 601 l 283 117 l 381 117 l 381 0 l 63 0 l 63 117 m 340 1118 l 504 1118 l 569 893 l 471 893 l 340 1118 z "},"Ŋ":{"ha":1010,"x_min":61,"x_max":965,"o":"m 540 -149 l 582 -149 q 699 -116 654 -149 q 743 -18 744 -83 l 282 572 l 282 117 l 379 117 l 379 0 l 61 0 l 61 117 l 153 117 l 153 678 l 61 678 l 61 794 l 333 794 l 743 256 l 743 678 l 646 678 l 646 794 l 965 794 l 965 678 l 875 678 l 875 0 q 808 -196 875 -131 q 614 -261 740 -261 l 540 -261 l 540 -149 z "},"ǋ":{"ha":1407,"x_min":63,"x_max":1340,"o":"m 63 117 l 154 117 l 154 678 l 63 678 l 63 794 l 375 794 l 751 242 l 751 678 l 654 678 l 654 794 l 974 794 l 974 678 l 883 678 l 883 0 l 692 0 l 283 601 l 283 117 l 381 117 l 381 0 l 63 0 l 63 117 m 1233 661 q 1158 689 1188 661 q 1129 761 1129 717 q 1158 832 1129 804 q 1233 860 1188 860 q 1309 833 1281 860 q 1338 761 1338 806 q 1309 689 1338 717 q 1233 661 1281 661 m 1015 -96 l 1071 -96 q 1149 -71 1128 -96 q 1171 15 1171 -46 l 1171 442 l 1064 442 l 1064 553 l 1340 553 l 1340 40 q 1281 -158 1340 -94 q 1083 -222 1221 -222 l 1015 -222 l 1015 -96 z "},"Ṉ":{"ha":1018,"x_min":63,"x_max":974,"o":"m 63 117 l 154 117 l 154 678 l 63 678 l 63 794 l 375 794 l 751 242 l 751 678 l 654 678 l 654 794 l 974 794 l 974 678 l 883 678 l 883 0 l 692 0 l 283 601 l 283 117 l 381 117 l 381 0 l 63 0 l 63 117 m 361 -85 l 697 -85 l 697 -178 l 361 -178 l 361 -85 z "},"Ñ":{"ha":1018,"x_min":63,"x_max":974,"o":"m 63 117 l 154 117 l 154 678 l 63 678 l 63 794 l 375 794 l 751 242 l 751 678 l 654 678 l 654 794 l 974 794 l 974 678 l 883 678 l 883 0 l 692 0 l 283 601 l 283 117 l 381 117 l 381 0 l 63 0 l 63 117 m 618 894 q 564 903 592 894 q 499 929 536 913 q 465 943 492 932 q 419 954 439 954 q 368 901 374 954 l 290 901 q 335 1032 297 990 q 429 1074 372 1074 q 478 1065 454 1074 q 543 1040 503 1057 q 624 1014 601 1014 q 679 1068 669 1014 l 754 1068 q 713 939 749 983 q 618 894 676 894 z "},"O":{"ha":1003,"x_min":57,"x_max":944,"o":"m 501 -15 q 268 38 369 -15 q 112 184 167 90 q 57 394 57 278 q 112 607 57 513 q 268 755 167 701 q 501 808 369 808 q 734 755 633 808 q 890 607 835 701 q 944 396 944 513 q 890 184 944 278 q 734 38 835 90 q 501 -15 633 -15 m 501 118 q 678 197 613 118 q 744 399 744 276 q 680 599 744 521 q 504 676 615 676 q 324 599 390 676 q 257 397 257 522 q 323 197 257 275 q 501 118 389 118 z "},"Ó":{"ha":1003,"x_min":57,"x_max":944,"o":"m 501 -15 q 268 38 369 -15 q 112 184 167 90 q 57 394 57 278 q 112 607 57 513 q 268 755 167 701 q 501 808 369 808 q 734 755 633 808 q 890 607 835 701 q 944 396 944 513 q 890 184 944 278 q 734 38 835 90 q 501 -15 633 -15 m 501 118 q 678 197 613 118 q 744 399 744 276 q 680 599 744 521 q 504 676 615 676 q 324 599 390 676 q 257 397 257 522 q 323 197 257 275 q 501 118 389 118 m 517 1118 l 681 1118 l 550 893 l 451 893 l 517 1118 z "},"Ŏ":{"ha":1003,"x_min":57,"x_max":944,"o":"m 501 -15 q 268 38 369 -15 q 112 184 167 90 q 57 394 57 278 q 112 607 57 513 q 268 755 167 701 q 501 808 369 808 q 734 755 633 808 q 890 607 835 701 q 944 396 944 513 q 890 184 944 278 q 734 38 835 90 q 501 -15 633 -15 m 501 118 q 678 197 613 118 q 744 399 744 276 q 680 599 744 521 q 504 676 615 676 q 324 599 390 676 q 257 397 257 522 q 323 197 257 275 q 501 118 389 118 m 500 883 q 360 929 411 883 q 303 1060 308 975 l 414 1060 q 500 976 426 976 q 558 998 536 976 q 586 1060 581 1019 l 697 1060 q 638 930 689 975 q 500 883 588 885 z "},"Ǒ":{"ha":1003,"x_min":57,"x_max":944,"o":"m 501 -15 q 268 38 369 -15 q 112 184 167 90 q 57 394 57 278 q 112 607 57 513 q 268 755 167 701 q 501 808 369 808 q 734 755 633 808 q 890 607 835 701 q 944 396 944 513 q 890 184 944 278 q 734 38 835 90 q 501 -15 633 -15 m 501 118 q 678 197 613 118 q 744 399 744 276 q 680 599 744 521 q 504 676 615 676 q 324 599 390 676 q 257 397 257 522 q 323 197 257 275 q 501 118 389 118 m 306 1106 l 419 1106 l 504 951 l 588 1106 l 693 1106 l 593 875 l 415 875 l 306 1106 z "},"Ô":{"ha":1003,"x_min":57,"x_max":944,"o":"m 501 -15 q 268 38 369 -15 q 112 184 167 90 q 57 394 57 278 q 112 607 57 513 q 268 755 167 701 q 501 808 369 808 q 734 755 633 808 q 890 607 835 701 q 944 396 944 513 q 890 184 944 278 q 734 38 835 90 q 501 -15 633 -15 m 501 118 q 678 197 613 118 q 744 399 744 276 q 680 599 744 521 q 504 676 615 676 q 324 599 390 676 q 257 397 257 522 q 323 197 257 275 q 501 118 389 118 m 414 1110 l 588 1110 l 704 876 l 593 876 l 500 1040 l 407 876 l 296 876 l 414 1110 z "},"Ố":{"ha":1003,"x_min":57,"x_max":944,"o":"m 501 -15 q 268 38 369 -15 q 112 184 167 90 q 57 394 57 278 q 112 607 57 513 q 268 755 167 701 q 501 808 369 808 q 734 755 633 808 q 890 607 835 701 q 944 396 944 513 q 890 184 944 278 q 734 38 835 90 q 501 -15 633 -15 m 501 118 q 678 197 613 118 q 744 399 744 276 q 680 599 744 521 q 504 676 615 676 q 324 599 390 676 q 257 397 257 522 q 323 197 257 275 q 501 118 389 118 m 722 1182 l 854 1182 l 747 1004 l 663 1004 l 722 1182 m 421 1061 l 581 1061 l 697 876 l 588 876 l 500 992 l 413 876 l 303 876 l 421 1061 z "},"Ộ":{"ha":1003,"x_min":57,"x_max":944,"o":"m 501 -15 q 268 38 369 -15 q 112 184 167 90 q 57 394 57 278 q 112 607 57 513 q 268 755 167 701 q 501 808 369 808 q 734 755 633 808 q 890 607 835 701 q 944 396 944 513 q 890 184 944 278 q 734 38 835 90 q 501 -15 633 -15 m 501 118 q 678 197 613 118 q 744 399 744 276 q 680 599 744 521 q 504 676 615 676 q 324 599 390 676 q 257 397 257 522 q 323 197 257 275 q 501 118 389 118 m 501 -242 q 436 -218 461 -242 q 411 -158 411 -194 q 436 -98 411 -121 q 501 -75 461 -75 q 567 -98 543 -75 q 592 -161 592 -121 q 567 -219 592 -196 q 501 -242 542 -242 m 414 1110 l 588 1110 l 704 876 l 593 876 l 500 1040 l 407 876 l 296 876 l 414 1110 z "},"Ồ":{"ha":1003,"x_min":57,"x_max":944,"o":"m 501 -15 q 268 38 369 -15 q 112 184 167 90 q 57 394 57 278 q 112 607 57 513 q 268 755 167 701 q 501 808 369 808 q 734 755 633 808 q 890 607 835 701 q 944 396 944 513 q 890 184 944 278 q 734 38 835 90 q 501 -15 633 -15 m 501 118 q 678 197 613 118 q 744 399 744 276 q 680 599 744 521 q 504 676 615 676 q 324 599 390 676 q 257 397 257 522 q 323 197 257 275 q 501 118 389 118 m 699 1004 l 593 1182 l 725 1182 l 785 1004 l 699 1004 m 421 1061 l 581 1061 l 697 876 l 588 876 l 500 992 l 413 876 l 303 876 l 421 1061 z "},"Ổ":{"ha":1003,"x_min":57,"x_max":944,"o":"m 501 -15 q 268 38 369 -15 q 112 184 167 90 q 57 394 57 278 q 112 607 57 513 q 268 755 167 701 q 501 808 369 808 q 734 755 633 808 q 890 607 835 701 q 944 396 944 513 q 890 184 944 278 q 734 38 835 90 q 501 -15 633 -15 m 501 118 q 678 197 613 118 q 744 399 744 276 q 680 599 744 521 q 504 676 615 676 q 324 599 390 676 q 257 397 257 522 q 323 197 257 275 q 501 118 389 118 m 658 1046 q 704 1099 704 1064 q 690 1129 704 1118 q 651 1140 675 1140 q 579 1118 615 1140 l 557 1183 q 672 1222 611 1222 q 764 1192 729 1222 q 799 1113 799 1161 q 767 1032 799 1064 q 678 985 736 1000 l 658 1046 m 421 1061 l 581 1061 l 697 876 l 588 876 l 500 992 l 413 876 l 303 876 l 421 1061 z "},"Ỗ":{"ha":1003,"x_min":57,"x_max":944,"o":"m 501 -15 q 268 38 369 -15 q 112 184 167 90 q 57 394 57 278 q 112 607 57 513 q 268 755 167 701 q 501 808 369 808 q 734 755 633 808 q 890 607 835 701 q 944 396 944 513 q 890 184 944 278 q 734 38 835 90 q 501 -15 633 -15 m 501 118 q 678 197 613 118 q 744 399 744 276 q 680 599 744 521 q 504 676 615 676 q 324 599 390 676 q 257 397 257 522 q 323 197 257 275 q 501 118 389 118 m 599 1110 q 549 1118 574 1110 q 492 1140 524 1126 q 449 1158 471 1150 q 410 1165 426 1165 q 375 1153 388 1165 q 358 1113 363 1140 l 282 1113 q 321 1230 288 1192 q 406 1268 354 1268 q 451 1260 428 1268 q 507 1238 475 1253 q 550 1220 528 1228 q 588 1213 572 1213 q 626 1224 613 1213 q 644 1263 639 1236 l 719 1263 q 599 1110 707 1110 m 421 1061 l 581 1061 l 697 876 l 588 876 l 500 992 l 413 876 l 303 876 l 421 1061 z "},"Ȍ":{"ha":1003,"x_min":57,"x_max":944,"o":"m 501 -15 q 268 38 369 -15 q 112 184 167 90 q 57 394 57 278 q 112 607 57 513 q 268 755 167 701 q 501 808 369 808 q 734 755 633 808 q 890 607 835 701 q 944 396 944 513 q 890 184 944 278 q 734 38 835 90 q 501 -15 633 -15 m 501 118 q 678 197 613 118 q 744 399 744 276 q 680 599 744 521 q 504 676 615 676 q 324 599 390 676 q 257 397 257 522 q 323 197 257 275 q 501 118 389 118 m 188 1124 l 351 1124 l 421 893 l 322 893 l 188 1124 m 428 1124 l 592 1124 l 660 893 l 561 893 l 428 1124 z "},"Ö":{"ha":1003,"x_min":57,"x_max":944,"o":"m 501 -15 q 268 38 369 -15 q 112 184 167 90 q 57 394 57 278 q 112 607 57 513 q 268 755 167 701 q 501 808 369 808 q 734 755 633 808 q 890 607 835 701 q 944 396 944 513 q 890 184 944 278 q 734 38 835 90 q 501 -15 633 -15 m 501 118 q 678 197 613 118 q 744 399 744 276 q 680 599 744 521 q 504 676 615 676 q 324 599 390 676 q 257 397 257 522 q 323 197 257 275 q 501 118 389 118 m 343 894 q 276 918 303 894 q 250 983 250 942 q 276 1048 250 1024 q 343 1072 303 1072 q 408 1048 382 1072 q 435 983 435 1024 q 408 918 435 942 q 343 894 382 894 m 657 894 q 592 918 618 894 q 565 983 565 942 q 592 1048 565 1024 q 657 1072 618 1072 q 724 1048 697 1072 q 750 983 750 1024 q 724 918 750 942 q 657 894 697 894 z "},"Ȫ":{"ha":1003,"x_min":57,"x_max":944,"o":"m 501 -15 q 268 38 369 -15 q 112 184 167 90 q 57 394 57 278 q 112 607 57 513 q 268 755 167 701 q 501 808 369 808 q 734 755 633 808 q 890 607 835 701 q 944 396 944 513 q 890 184 944 278 q 734 38 835 90 q 501 -15 633 -15 m 501 118 q 678 197 613 118 q 744 399 744 276 q 680 599 744 521 q 504 676 615 676 q 324 599 390 676 q 257 397 257 522 q 323 197 257 275 q 501 118 389 118 m 343 894 q 276 918 303 894 q 250 983 250 942 q 276 1048 250 1024 q 343 1072 303 1072 q 408 1048 382 1072 q 435 983 435 1024 q 408 918 435 942 q 343 894 382 894 m 657 894 q 592 918 618 894 q 565 983 565 942 q 592 1048 565 1024 q 657 1072 618 1072 q 724 1048 697 1072 q 750 983 750 1024 q 724 918 750 942 q 657 894 697 894 m 332 1246 l 668 1246 l 668 1153 l 332 1153 l 332 1246 z "},"Ȯ":{"ha":1003,"x_min":57,"x_max":944,"o":"m 501 -15 q 268 38 369 -15 q 112 184 167 90 q 57 394 57 278 q 112 607 57 513 q 268 755 167 701 q 501 808 369 808 q 734 755 633 808 q 890 607 835 701 q 944 396 944 513 q 890 184 944 278 q 734 38 835 90 q 501 -15 633 -15 m 501 118 q 678 197 613 118 q 744 399 744 276 q 680 599 744 521 q 504 676 615 676 q 324 599 390 676 q 257 397 257 522 q 323 197 257 275 q 501 118 389 118 m 500 897 q 430 924 457 897 q 403 990 403 950 q 430 1056 403 1031 q 500 1082 457 1082 q 571 1056 544 1082 q 597 988 597 1031 q 570 922 597 947 q 500 897 543 897 z "},"Ȱ":{"ha":1003,"x_min":57,"x_max":944,"o":"m 501 -15 q 268 38 369 -15 q 112 184 167 90 q 57 394 57 278 q 112 607 57 513 q 268 755 167 701 q 501 808 369 808 q 734 755 633 808 q 890 607 835 701 q 944 396 944 513 q 890 184 944 278 q 734 38 835 90 q 501 -15 633 -15 m 501 118 q 678 197 613 118 q 744 399 744 276 q 680 599 744 521 q 504 676 615 676 q 324 599 390 676 q 257 397 257 522 q 323 197 257 275 q 501 118 389 118 m 500 897 q 430 924 457 897 q 403 990 403 950 q 430 1056 403 1031 q 500 1082 457 1082 q 571 1056 544 1082 q 597 988 597 1031 q 570 922 597 947 q 500 897 543 897 m 332 1250 l 668 1250 l 668 1157 l 332 1157 l 332 1250 z "},"Ọ":{"ha":1003,"x_min":57,"x_max":944,"o":"m 501 -15 q 268 38 369 -15 q 112 184 167 90 q 57 394 57 278 q 112 607 57 513 q 268 755 167 701 q 501 808 369 808 q 734 755 633 808 q 890 607 835 701 q 944 396 944 513 q 890 184 944 278 q 734 38 835 90 q 501 -15 633 -15 m 501 118 q 678 197 613 118 q 744 399 744 276 q 680 599 744 521 q 504 676 615 676 q 324 599 390 676 q 257 397 257 522 q 323 197 257 275 q 501 118 389 118 m 501 -242 q 436 -218 461 -242 q 411 -158 411 -194 q 436 -98 411 -121 q 501 -75 461 -75 q 567 -98 543 -75 q 592 -161 592 -121 q 567 -219 592 -196 q 501 -242 542 -242 z "},"Ò":{"ha":1003,"x_min":57,"x_max":944,"o":"m 501 -15 q 268 38 369 -15 q 112 184 167 90 q 57 394 57 278 q 112 607 57 513 q 268 755 167 701 q 501 808 369 808 q 734 755 633 808 q 890 607 835 701 q 944 396 944 513 q 890 184 944 278 q 734 38 835 90 q 501 -15 633 -15 m 501 118 q 678 197 613 118 q 744 399 744 276 q 680 599 744 521 q 504 676 615 676 q 324 599 390 676 q 257 397 257 522 q 323 197 257 275 q 501 118 389 118 m 318 1118 l 482 1118 l 547 893 l 449 893 l 318 1118 z "},"Ỏ":{"ha":1003,"x_min":57,"x_max":944,"o":"m 501 -15 q 268 38 369 -15 q 112 184 167 90 q 57 394 57 278 q 112 607 57 513 q 268 755 167 701 q 501 808 369 808 q 734 755 633 808 q 890 607 835 701 q 944 396 944 513 q 890 184 944 278 q 734 38 835 90 q 501 -15 633 -15 m 501 118 q 678 197 613 118 q 744 399 744 276 q 680 599 744 521 q 504 676 615 676 q 324 599 390 676 q 257 397 257 522 q 323 197 257 275 q 501 118 389 118 m 475 915 q 521 968 521 933 q 506 999 521 988 q 468 1010 492 1010 q 396 988 432 1010 l 374 1053 q 489 1092 428 1092 q 581 1061 546 1092 q 615 982 615 1031 q 584 901 615 933 q 494 854 553 869 l 475 915 z "},"Ơ":{"ha":1003,"x_min":57,"x_max":944,"o":"m 775 729 q 900 587 856 674 q 944 396 944 500 q 890 184 944 278 q 734 38 835 90 q 501 -15 633 -15 q 268 38 369 -15 q 112 184 167 90 q 57 394 57 278 q 112 607 57 513 q 267 756 167 701 q 499 810 368 810 q 581 804 531 810 q 649 799 628 799 q 718 822 692 799 q 749 893 744 846 l 882 893 q 849 792 876 833 q 775 729 822 750 m 501 118 q 678 197 613 118 q 744 399 744 276 q 678 600 744 522 q 501 678 613 678 q 323 599 389 676 q 257 397 257 521 q 323 197 257 275 q 501 118 389 118 z "},"Ớ":{"ha":1003,"x_min":57,"x_max":944,"o":"m 775 729 q 900 587 856 674 q 944 396 944 500 q 890 184 944 278 q 734 38 835 90 q 501 -15 633 -15 q 268 38 369 -15 q 112 184 167 90 q 57 394 57 278 q 112 607 57 513 q 267 756 167 701 q 499 810 368 810 q 581 804 531 810 q 649 799 628 799 q 718 822 692 799 q 749 893 744 846 l 882 893 q 849 792 876 833 q 775 729 822 750 m 501 118 q 678 197 613 118 q 744 399 744 276 q 678 600 744 522 q 501 678 613 678 q 323 599 389 676 q 257 397 257 521 q 323 197 257 275 q 501 118 389 118 m 517 1118 l 681 1118 l 550 893 l 451 893 l 517 1118 z "},"Ợ":{"ha":1003,"x_min":57,"x_max":944,"o":"m 775 729 q 900 587 856 674 q 944 396 944 500 q 890 184 944 278 q 734 38 835 90 q 501 -15 633 -15 q 268 38 369 -15 q 112 184 167 90 q 57 394 57 278 q 112 607 57 513 q 267 756 167 701 q 499 810 368 810 q 581 804 531 810 q 649 799 628 799 q 718 822 692 799 q 749 893 744 846 l 882 893 q 849 792 876 833 q 775 729 822 750 m 501 118 q 678 197 613 118 q 744 399 744 276 q 678 600 744 522 q 501 678 613 678 q 323 599 389 676 q 257 397 257 521 q 323 197 257 275 q 501 118 389 118 m 501 -242 q 436 -218 461 -242 q 411 -158 411 -194 q 436 -98 411 -121 q 501 -75 461 -75 q 567 -98 543 -75 q 592 -161 592 -121 q 567 -219 592 -196 q 501 -242 542 -242 z "},"Ờ":{"ha":1003,"x_min":57,"x_max":944,"o":"m 775 729 q 900 587 856 674 q 944 396 944 500 q 890 184 944 278 q 734 38 835 90 q 501 -15 633 -15 q 268 38 369 -15 q 112 184 167 90 q 57 394 57 278 q 112 607 57 513 q 267 756 167 701 q 499 810 368 810 q 581 804 531 810 q 649 799 628 799 q 718 822 692 799 q 749 893 744 846 l 882 893 q 849 792 876 833 q 775 729 822 750 m 501 118 q 678 197 613 118 q 744 399 744 276 q 678 600 744 522 q 501 678 613 678 q 323 599 389 676 q 257 397 257 521 q 323 197 257 275 q 501 118 389 118 m 318 1118 l 482 1118 l 547 893 l 449 893 l 318 1118 z "},"Ở":{"ha":1003,"x_min":57,"x_max":944,"o":"m 775 729 q 900 587 856 674 q 944 396 944 500 q 890 184 944 278 q 734 38 835 90 q 501 -15 633 -15 q 268 38 369 -15 q 112 184 167 90 q 57 394 57 278 q 112 607 57 513 q 267 756 167 701 q 499 810 368 810 q 581 804 531 810 q 649 799 628 799 q 718 822 692 799 q 749 893 744 846 l 882 893 q 849 792 876 833 q 775 729 822 750 m 501 118 q 678 197 613 118 q 744 399 744 276 q 678 600 744 522 q 501 678 613 678 q 323 599 389 676 q 257 397 257 521 q 323 197 257 275 q 501 118 389 118 m 475 915 q 521 968 521 933 q 506 999 521 988 q 468 1010 492 1010 q 396 988 432 1010 l 374 1053 q 489 1092 428 1092 q 581 1061 546 1092 q 615 982 615 1031 q 584 901 615 933 q 494 854 553 869 l 475 915 z "},"Ỡ":{"ha":1003,"x_min":57,"x_max":944,"o":"m 775 729 q 900 587 856 674 q 944 396 944 500 q 890 184 944 278 q 734 38 835 90 q 501 -15 633 -15 q 268 38 369 -15 q 112 184 167 90 q 57 394 57 278 q 112 607 57 513 q 267 756 167 701 q 499 810 368 810 q 581 804 531 810 q 649 799 628 799 q 718 822 692 799 q 749 893 744 846 l 882 893 q 849 792 876 833 q 775 729 822 750 m 501 118 q 678 197 613 118 q 744 399 744 276 q 678 600 744 522 q 501 678 613 678 q 323 599 389 676 q 257 397 257 521 q 323 197 257 275 q 501 118 389 118 m 596 894 q 542 903 569 894 q 476 929 514 913 q 443 943 469 932 q 397 954 417 954 q 346 901 351 954 l 268 901 q 313 1032 275 990 q 407 1074 350 1074 q 456 1065 432 1074 q 521 1040 481 1057 q 601 1014 579 1014 q 657 1068 647 1014 l 732 1068 q 690 939 726 983 q 596 894 654 894 z "},"Ő":{"ha":1003,"x_min":57,"x_max":944,"o":"m 501 -15 q 268 38 369 -15 q 112 184 167 90 q 57 394 57 278 q 112 607 57 513 q 268 755 167 701 q 501 808 369 808 q 734 755 633 808 q 890 607 835 701 q 944 396 944 513 q 890 184 944 278 q 734 38 835 90 q 501 -15 633 -15 m 501 118 q 678 197 613 118 q 744 399 744 276 q 680 599 744 521 q 504 676 615 676 q 324 599 390 676 q 257 397 257 522 q 323 197 257 275 q 501 118 389 118 m 394 1124 l 558 1124 l 425 893 l 326 893 l 394 1124 m 633 1124 l 799 1124 l 664 893 l 565 893 l 633 1124 z "},"Ȏ":{"ha":1003,"x_min":57,"x_max":944,"o":"m 501 -15 q 268 38 369 -15 q 112 184 167 90 q 57 394 57 278 q 112 607 57 513 q 268 755 167 701 q 501 808 369 808 q 734 755 633 808 q 890 607 835 701 q 944 396 944 513 q 890 184 944 278 q 734 38 835 90 q 501 -15 633 -15 m 501 118 q 678 197 613 118 q 744 399 744 276 q 680 599 744 521 q 504 676 615 676 q 324 599 390 676 q 257 397 257 522 q 323 197 257 275 q 501 118 389 118 m 304 864 q 361 1005 310 956 q 500 1054 413 1054 q 638 1004 586 1054 q 694 864 689 954 l 586 864 q 500 944 574 944 q 441 924 464 944 q 413 864 418 903 l 304 864 z "},"Ō":{"ha":1003,"x_min":57,"x_max":944,"o":"m 501 -15 q 268 38 369 -15 q 112 184 167 90 q 57 394 57 278 q 112 607 57 513 q 268 755 167 701 q 501 808 369 808 q 734 755 633 808 q 890 607 835 701 q 944 396 944 513 q 890 184 944 278 q 734 38 835 90 q 501 -15 633 -15 m 501 118 q 678 197 613 118 q 744 399 744 276 q 680 599 744 521 q 504 676 615 676 q 324 599 390 676 q 257 397 257 522 q 323 197 257 275 q 501 118 389 118 m 332 988 l 668 988 l 668 894 l 332 894 l 332 988 z "},"Ṓ":{"ha":1003,"x_min":57,"x_max":944,"o":"m 501 -15 q 268 38 369 -15 q 112 184 167 90 q 57 394 57 278 q 112 607 57 513 q 268 755 167 701 q 501 808 369 808 q 734 755 633 808 q 890 607 835 701 q 944 396 944 513 q 890 184 944 278 q 734 38 835 90 q 501 -15 633 -15 m 501 118 q 678 197 613 118 q 744 399 744 276 q 680 599 744 521 q 504 676 615 676 q 324 599 390 676 q 257 397 257 522 q 323 197 257 275 q 501 118 389 118 m 332 988 l 668 988 l 668 894 l 332 894 l 332 988 m 517 1304 l 681 1304 l 550 1079 l 451 1079 l 517 1304 z "},"Ṑ":{"ha":1003,"x_min":57,"x_max":944,"o":"m 501 -15 q 268 38 369 -15 q 112 184 167 90 q 57 394 57 278 q 112 607 57 513 q 268 755 167 701 q 501 808 369 808 q 734 755 633 808 q 890 607 835 701 q 944 396 944 513 q 890 184 944 278 q 734 38 835 90 q 501 -15 633 -15 m 501 118 q 678 197 613 118 q 744 399 744 276 q 680 599 744 521 q 504 676 615 676 q 324 599 390 676 q 257 397 257 522 q 323 197 257 275 q 501 118 389 118 m 332 988 l 668 988 l 668 894 l 332 894 l 332 988 m 318 1304 l 482 1304 l 547 1079 l 449 1079 l 318 1304 z "},"Ǫ":{"ha":1003,"x_min":57,"x_max":944,"o":"m 944 396 q 897 196 944 285 q 760 52 849 107 q 553 -12 671 -3 q 503 -111 503 -72 q 522 -153 503 -137 q 574 -169 542 -169 q 632 -156 604 -169 l 632 -231 q 532 -257 579 -257 q 444 -226 478 -257 q 411 -146 411 -194 q 479 -15 411 -81 q 257 44 353 -11 q 109 190 161 99 q 57 394 57 281 q 112 607 57 513 q 268 755 167 701 q 501 808 369 808 q 734 755 633 808 q 890 607 835 701 q 944 396 944 513 m 257 397 q 323 197 257 275 q 501 118 389 118 q 678 197 613 118 q 744 399 744 276 q 680 599 744 521 q 504 676 615 676 q 324 599 390 676 q 257 397 257 522 z "},"Ø":{"ha":946,"x_min":29,"x_max":917,"o":"m 778 704 q 881 569 844 649 q 917 394 917 489 q 862 183 917 276 q 706 36 807 89 q 474 -17 606 -17 q 257 28 357 -17 l 188 -62 l 111 -10 l 178 76 q 68 214 107 132 q 29 393 29 296 q 84 606 29 511 q 240 753 139 700 q 474 807 342 807 q 700 756 601 807 l 767 842 l 843 789 l 778 704 m 229 396 q 282 213 229 286 l 608 636 q 474 675 553 675 q 295 597 361 675 q 229 396 229 519 m 474 117 q 651 196 585 117 q 717 397 717 275 q 674 568 717 497 l 350 149 q 474 117 403 117 z "},"Ǿ":{"ha":946,"x_min":29,"x_max":917,"o":"m 778 704 q 881 569 844 649 q 917 394 917 489 q 862 183 917 276 q 706 36 807 89 q 474 -17 606 -17 q 257 28 357 -17 l 188 -62 l 111 -10 l 178 76 q 68 214 107 132 q 29 393 29 296 q 84 606 29 511 q 240 753 139 700 q 474 807 342 807 q 700 756 601 807 l 767 842 l 843 789 l 778 704 m 229 396 q 282 213 229 286 l 608 636 q 474 675 553 675 q 295 597 361 675 q 229 396 229 519 m 474 117 q 651 196 585 117 q 717 397 717 275 q 674 568 717 497 l 350 149 q 474 117 403 117 m 489 1118 l 653 1118 l 522 893 l 424 893 l 489 1118 z "},"Õ":{"ha":1003,"x_min":57,"x_max":944,"o":"m 501 -15 q 268 38 369 -15 q 112 184 167 90 q 57 394 57 278 q 112 607 57 513 q 268 755 167 701 q 501 808 369 808 q 734 755 633 808 q 890 607 835 701 q 944 396 944 513 q 890 184 944 278 q 734 38 835 90 q 501 -15 633 -15 m 501 118 q 678 197 613 118 q 744 399 744 276 q 680 599 744 521 q 504 676 615 676 q 324 599 390 676 q 257 397 257 522 q 323 197 257 275 q 501 118 389 118 m 596 894 q 542 903 569 894 q 476 929 514 913 q 443 943 469 932 q 397 954 417 954 q 346 901 351 954 l 268 901 q 313 1032 275 990 q 407 1074 350 1074 q 456 1065 432 1074 q 521 1040 481 1057 q 601 1014 579 1014 q 657 1068 647 1014 l 732 1068 q 690 939 726 983 q 596 894 654 894 z "},"Ṍ":{"ha":1003,"x_min":57,"x_max":944,"o":"m 501 -15 q 268 38 369 -15 q 112 184 167 90 q 57 394 57 278 q 112 607 57 513 q 268 755 167 701 q 501 808 369 808 q 734 755 633 808 q 890 607 835 701 q 944 396 944 513 q 890 184 944 278 q 734 38 835 90 q 501 -15 633 -15 m 501 118 q 678 197 613 118 q 744 399 744 276 q 680 599 744 521 q 504 676 615 676 q 324 599 390 676 q 257 397 257 522 q 323 197 257 275 q 501 118 389 118 m 596 894 q 542 903 569 894 q 476 929 514 913 q 443 943 469 932 q 397 954 417 954 q 346 901 351 954 l 268 901 q 313 1032 275 990 q 407 1074 350 1074 q 456 1065 432 1074 q 521 1040 481 1057 q 601 1014 579 1014 q 657 1068 647 1014 l 732 1068 q 690 939 726 983 q 596 894 654 894 m 518 1364 l 682 1364 l 551 1139 l 453 1139 l 518 1364 z "},"Ṏ":{"ha":1003,"x_min":57,"x_max":944,"o":"m 501 -15 q 268 38 369 -15 q 112 184 167 90 q 57 394 57 278 q 112 607 57 513 q 268 755 167 701 q 501 808 369 808 q 734 755 633 808 q 890 607 835 701 q 944 396 944 513 q 890 184 944 278 q 734 38 835 90 q 501 -15 633 -15 m 501 118 q 678 197 613 118 q 744 399 744 276 q 680 599 744 521 q 504 676 615 676 q 324 599 390 676 q 257 397 257 522 q 323 197 257 275 q 501 118 389 118 m 596 894 q 542 903 569 894 q 476 929 514 913 q 443 943 469 932 q 397 954 417 954 q 346 901 351 954 l 268 901 q 313 1032 275 990 q 407 1074 350 1074 q 456 1065 432 1074 q 521 1040 481 1057 q 601 1014 579 1014 q 657 1068 647 1014 l 732 1068 q 690 939 726 983 q 596 894 654 894 m 344 1140 q 278 1164 304 1140 q 251 1229 251 1188 q 278 1294 251 1269 q 344 1318 304 1318 q 410 1294 383 1318 q 436 1229 436 1269 q 410 1164 436 1188 q 344 1140 383 1140 m 658 1140 q 593 1164 619 1140 q 567 1229 567 1188 q 593 1294 567 1269 q 658 1318 619 1318 q 725 1294 699 1318 q 751 1229 751 1269 q 725 1164 751 1188 q 658 1140 699 1140 z "},"Ȭ":{"ha":1003,"x_min":57,"x_max":944,"o":"m 501 -15 q 268 38 369 -15 q 112 184 167 90 q 57 394 57 278 q 112 607 57 513 q 268 755 167 701 q 501 808 369 808 q 734 755 633 808 q 890 607 835 701 q 944 396 944 513 q 890 184 944 278 q 734 38 835 90 q 501 -15 633 -15 m 501 118 q 678 197 613 118 q 744 399 744 276 q 680 599 744 521 q 504 676 615 676 q 324 599 390 676 q 257 397 257 522 q 323 197 257 275 q 501 118 389 118 m 596 894 q 542 903 569 894 q 476 929 514 913 q 443 943 469 932 q 397 954 417 954 q 346 901 351 954 l 268 901 q 313 1032 275 990 q 407 1074 350 1074 q 456 1065 432 1074 q 521 1040 481 1057 q 601 1014 579 1014 q 657 1068 647 1014 l 732 1068 q 690 939 726 983 q 596 894 654 894 m 333 1233 l 669 1233 l 669 1140 l 333 1140 l 333 1233 z "},"Œ":{"ha":1385,"x_min":57,"x_max":1314,"o":"m 521 0 q 276 48 381 0 q 114 185 171 96 q 57 397 57 275 q 114 608 57 518 q 275 746 171 697 q 519 794 379 794 l 1307 794 l 1307 533 l 1183 533 l 1183 678 l 858 678 l 858 460 l 1028 460 l 1028 544 l 1124 544 l 1124 264 l 1028 264 l 1028 349 l 858 349 l 858 117 l 1189 117 l 1189 275 l 1314 275 l 1314 0 l 521 0 m 668 117 l 668 678 l 544 678 q 334 603 411 676 q 257 400 257 529 q 335 194 257 271 q 544 117 413 117 l 668 117 z "},"P":{"ha":842,"x_min":61,"x_max":804,"o":"m 61 117 l 151 117 l 151 678 l 61 678 l 61 794 l 479 794 q 722 738 640 794 q 804 561 804 681 q 489 317 804 317 l 396 317 l 396 433 l 467 433 q 571 465 535 433 q 607 558 607 497 q 574 647 607 617 q 479 678 540 678 l 342 678 l 342 117 l 439 117 l 439 0 l 61 0 l 61 117 z "},"Ṗ":{"ha":842,"x_min":61,"x_max":804,"o":"m 61 117 l 151 117 l 151 678 l 61 678 l 61 794 l 479 794 q 722 738 640 794 q 804 561 804 681 q 489 317 804 317 l 396 317 l 396 433 l 467 433 q 571 465 535 433 q 607 558 607 497 q 574 647 607 617 q 479 678 540 678 l 342 678 l 342 117 l 439 117 l 439 0 l 61 0 l 61 117 m 432 897 q 362 924 389 897 q 335 990 335 950 q 362 1056 335 1031 q 432 1082 389 1082 q 503 1056 476 1082 q 529 988 529 1031 q 502 922 529 947 q 432 897 475 897 z "},"Þ":{"ha":832,"x_min":69,"x_max":794,"o":"m 503 603 q 722 556 650 603 q 794 411 794 508 q 724 265 794 311 q 506 218 653 218 l 399 218 l 399 299 l 476 299 q 570 326 538 299 q 603 411 603 354 q 569 490 603 463 q 475 517 536 517 l 350 517 l 350 117 l 447 117 l 447 0 l 69 0 l 69 117 l 160 117 l 160 678 l 69 678 l 69 794 l 447 794 l 447 678 l 350 678 l 350 603 l 503 603 z "},"Q":{"ha":1000,"x_min":57,"x_max":944,"o":"m 754 -226 q 422 -8 528 -226 q 228 61 311 6 q 101 203 146 117 q 57 394 57 289 q 112 607 57 513 q 268 755 167 701 q 501 808 369 808 q 734 755 633 808 q 890 607 835 701 q 944 396 944 513 q 901 206 944 292 q 777 64 858 119 q 588 -8 696 8 q 658 -81 613 -56 q 763 -106 703 -106 q 872 -86 811 -106 l 872 -206 q 754 -226 818 -226 m 501 118 q 678 197 613 118 q 744 399 744 276 q 680 599 744 521 q 504 676 615 676 q 324 599 390 676 q 257 397 257 522 q 323 197 257 275 q 501 118 389 118 z "},"R":{"ha":936,"x_min":61,"x_max":893,"o":"m 61 117 l 151 117 l 151 678 l 61 678 l 61 794 l 519 794 q 745 739 663 794 q 828 569 828 683 q 650 360 828 400 l 799 118 l 893 118 l 893 0 l 661 0 l 467 338 l 394 338 l 394 457 l 501 457 q 602 488 571 457 q 633 572 633 519 q 603 649 633 619 q 513 678 572 678 l 342 678 l 342 117 l 429 117 l 429 0 l 61 0 l 61 117 z "},"Ŕ":{"ha":936,"x_min":61,"x_max":893,"o":"m 61 117 l 151 117 l 151 678 l 61 678 l 61 794 l 519 794 q 745 739 663 794 q 828 569 828 683 q 650 360 828 400 l 799 118 l 893 118 l 893 0 l 661 0 l 467 338 l 394 338 l 394 457 l 501 457 q 602 488 571 457 q 633 572 633 519 q 603 649 633 619 q 513 678 572 678 l 342 678 l 342 117 l 429 117 l 429 0 l 61 0 l 61 117 m 475 1118 l 639 1118 l 508 893 l 410 893 l 475 1118 z "},"Ř":{"ha":936,"x_min":61,"x_max":893,"o":"m 61 117 l 151 117 l 151 678 l 61 678 l 61 794 l 519 794 q 745 739 663 794 q 828 569 828 683 q 650 360 828 400 l 799 118 l 893 118 l 893 0 l 661 0 l 467 338 l 394 338 l 394 457 l 501 457 q 602 488 571 457 q 633 572 633 519 q 603 649 633 619 q 513 678 572 678 l 342 678 l 342 117 l 429 117 l 429 0 l 61 0 l 61 117 m 264 1106 l 378 1106 l 463 951 l 546 1106 l 651 1106 l 551 875 l 374 875 l 264 1106 z "},"Ŗ":{"ha":936,"x_min":61,"x_max":893,"o":"m 61 117 l 151 117 l 151 678 l 61 678 l 61 794 l 519 794 q 745 739 663 794 q 828 569 828 683 q 650 360 828 400 l 799 118 l 893 118 l 893 0 l 661 0 l 467 338 l 394 338 l 394 457 l 501 457 q 602 488 571 457 q 633 572 633 519 q 603 649 633 619 q 513 678 572 678 l 342 678 l 342 117 l 429 117 l 429 0 l 61 0 l 61 117 m 404 -326 q 467 -295 447 -319 q 486 -222 486 -271 l 399 -222 l 399 -75 l 571 -75 l 571 -204 q 532 -340 571 -296 q 404 -385 493 -385 l 404 -326 z "},"Ȑ":{"ha":936,"x_min":61,"x_max":893,"o":"m 61 117 l 151 117 l 151 678 l 61 678 l 61 794 l 519 794 q 745 739 663 794 q 828 569 828 683 q 650 360 828 400 l 799 118 l 893 118 l 893 0 l 661 0 l 467 338 l 394 338 l 394 457 l 501 457 q 602 488 571 457 q 633 572 633 519 q 603 649 633 619 q 513 678 572 678 l 342 678 l 342 117 l 429 117 l 429 0 l 61 0 l 61 117 m 146 1124 l 310 1124 l 379 893 l 281 893 l 146 1124 m 386 1124 l 550 1124 l 618 893 l 519 893 l 386 1124 z "},"Ṛ":{"ha":936,"x_min":61,"x_max":893,"o":"m 61 117 l 151 117 l 151 678 l 61 678 l 61 794 l 519 794 q 745 739 663 794 q 828 569 828 683 q 650 360 828 400 l 799 118 l 893 118 l 893 0 l 661 0 l 467 338 l 394 338 l 394 457 l 501 457 q 602 488 571 457 q 633 572 633 519 q 603 649 633 619 q 513 678 572 678 l 342 678 l 342 117 l 429 117 l 429 0 l 61 0 l 61 117 m 483 -242 q 418 -218 443 -242 q 393 -158 393 -194 q 418 -98 393 -121 q 483 -75 443 -75 q 549 -98 525 -75 q 574 -161 574 -121 q 549 -219 574 -196 q 483 -242 524 -242 z "},"Ȓ":{"ha":936,"x_min":61,"x_max":893,"o":"m 61 117 l 151 117 l 151 678 l 61 678 l 61 794 l 519 794 q 745 739 663 794 q 828 569 828 683 q 650 360 828 400 l 799 118 l 893 118 l 893 0 l 661 0 l 467 338 l 394 338 l 394 457 l 501 457 q 602 488 571 457 q 633 572 633 519 q 603 649 633 619 q 513 678 572 678 l 342 678 l 342 117 l 429 117 l 429 0 l 61 0 l 61 117 m 263 864 q 319 1005 268 956 q 458 1054 371 1054 q 596 1004 544 1054 q 653 864 647 954 l 544 864 q 458 944 532 944 q 399 924 422 944 q 371 864 376 903 l 263 864 z "},"Ṟ":{"ha":936,"x_min":61,"x_max":893,"o":"m 61 117 l 151 117 l 151 678 l 61 678 l 61 794 l 519 794 q 745 739 663 794 q 828 569 828 683 q 650 360 828 400 l 799 118 l 893 118 l 893 0 l 661 0 l 467 338 l 394 338 l 394 457 l 501 457 q 602 488 571 457 q 633 572 633 519 q 603 649 633 619 q 513 678 572 678 l 342 678 l 342 117 l 429 117 l 429 0 l 61 0 l 61 117 m 315 -85 l 651 -85 l 651 -178 l 315 -178 l 315 -85 z "},"S":{"ha":786,"x_min":79,"x_max":729,"o":"m 463 483 q 665 399 601 457 q 729 231 729 342 q 657 53 729 121 q 461 -14 585 -14 q 322 14 389 -14 q 218 89 256 42 l 218 0 l 85 0 l 85 269 l 204 269 q 288 147 226 193 q 435 100 349 100 q 522 126 490 100 q 553 199 553 151 q 520 277 553 253 q 403 318 488 301 l 332 332 q 143 417 207 357 q 79 579 79 478 q 150 747 79 685 q 339 810 221 810 q 470 787 413 810 q 565 722 528 764 l 565 794 l 690 794 l 690 565 l 575 565 q 509 658 556 621 q 379 696 463 696 q 295 672 325 696 q 265 606 265 647 q 302 533 265 558 q 419 492 339 507 l 463 483 z "},"Ś":{"ha":786,"x_min":79,"x_max":729,"o":"m 463 483 q 665 399 601 457 q 729 231 729 342 q 657 53 729 121 q 461 -14 585 -14 q 322 14 389 -14 q 218 89 256 42 l 218 0 l 85 0 l 85 269 l 204 269 q 288 147 226 193 q 435 100 349 100 q 522 126 490 100 q 553 199 553 151 q 520 277 553 253 q 403 318 488 301 l 332 332 q 143 417 207 357 q 79 579 79 478 q 150 747 79 685 q 339 810 221 810 q 470 787 413 810 q 565 722 528 764 l 565 794 l 690 794 l 690 565 l 575 565 q 509 658 556 621 q 379 696 463 696 q 295 672 325 696 q 265 606 265 647 q 302 533 265 558 q 419 492 339 507 l 463 483 m 435 1118 l 599 1118 l 468 893 l 369 893 l 435 1118 z "},"Ṥ":{"ha":786,"x_min":79,"x_max":729,"o":"m 463 483 q 665 399 601 457 q 729 231 729 342 q 657 53 729 121 q 461 -14 585 -14 q 322 14 389 -14 q 218 89 256 42 l 218 0 l 85 0 l 85 269 l 204 269 q 288 147 226 193 q 435 100 349 100 q 522 126 490 100 q 553 199 553 151 q 520 277 553 253 q 403 318 488 301 l 332 332 q 143 417 207 357 q 79 579 79 478 q 150 747 79 685 q 339 810 221 810 q 470 787 413 810 q 565 722 528 764 l 565 794 l 690 794 l 690 565 l 575 565 q 509 658 556 621 q 379 696 463 696 q 295 672 325 696 q 265 606 265 647 q 302 533 265 558 q 419 492 339 507 l 463 483 m 435 1118 l 599 1118 l 468 893 l 369 893 l 435 1118 m 418 1240 q 348 1267 375 1240 q 321 1333 321 1293 q 348 1399 321 1374 q 418 1425 375 1425 q 489 1399 463 1425 q 515 1331 515 1374 q 488 1265 515 1290 q 418 1240 461 1240 z "},"Š":{"ha":786,"x_min":79,"x_max":729,"o":"m 463 483 q 665 399 601 457 q 729 231 729 342 q 657 53 729 121 q 461 -14 585 -14 q 322 14 389 -14 q 218 89 256 42 l 218 0 l 85 0 l 85 269 l 204 269 q 288 147 226 193 q 435 100 349 100 q 522 126 490 100 q 553 199 553 151 q 520 277 553 253 q 403 318 488 301 l 332 332 q 143 417 207 357 q 79 579 79 478 q 150 747 79 685 q 339 810 221 810 q 470 787 413 810 q 565 722 528 764 l 565 794 l 690 794 l 690 565 l 575 565 q 509 658 556 621 q 379 696 463 696 q 295 672 325 696 q 265 606 265 647 q 302 533 265 558 q 419 492 339 507 l 463 483 m 224 1106 l 338 1106 l 422 951 l 506 1106 l 611 1106 l 511 875 l 333 875 l 224 1106 z "},"Ṧ":{"ha":786,"x_min":79,"x_max":729,"o":"m 463 483 q 665 399 601 457 q 729 231 729 342 q 657 53 729 121 q 461 -14 585 -14 q 322 14 389 -14 q 218 89 256 42 l 218 0 l 85 0 l 85 269 l 204 269 q 288 147 226 193 q 435 100 349 100 q 522 126 490 100 q 553 199 553 151 q 520 277 553 253 q 403 318 488 301 l 332 332 q 143 417 207 357 q 79 579 79 478 q 150 747 79 685 q 339 810 221 810 q 470 787 413 810 q 565 722 528 764 l 565 794 l 690 794 l 690 565 l 575 565 q 509 658 556 621 q 379 696 463 696 q 295 672 325 696 q 265 606 265 647 q 302 533 265 558 q 419 492 339 507 l 463 483 m 224 1106 l 338 1106 l 422 951 l 506 1106 l 611 1106 l 511 875 l 333 875 l 224 1106 m 418 1203 q 348 1229 375 1203 q 321 1296 321 1256 q 348 1362 321 1336 q 418 1388 375 1388 q 489 1362 463 1388 q 515 1293 515 1336 q 488 1228 515 1253 q 418 1203 461 1203 z "},"Ş":{"ha":786,"x_min":79,"x_max":729,"o":"m 457 -14 l 439 -79 q 515 -112 489 -86 q 540 -175 540 -139 q 507 -244 540 -221 q 424 -268 474 -268 q 301 -236 361 -268 l 301 -187 q 379 -204 354 -204 q 417 -194 403 -204 q 431 -164 431 -185 q 350 -118 431 -122 l 394 -8 q 292 28 339 3 q 218 89 246 53 l 218 0 l 85 0 l 85 269 l 204 269 q 288 147 226 193 q 435 100 349 100 q 522 126 490 100 q 553 199 553 151 q 520 277 553 253 q 403 318 488 301 l 332 332 q 143 417 207 357 q 79 579 79 478 q 150 747 79 685 q 339 810 221 810 q 470 787 413 810 q 565 722 528 764 l 565 794 l 690 794 l 690 565 l 575 565 q 509 658 556 621 q 379 696 463 696 q 295 672 325 696 q 265 606 265 647 q 302 533 265 558 q 419 492 339 507 l 463 483 q 665 399 601 457 q 729 231 729 342 q 657 53 729 121 q 461 -14 585 -14 l 457 -14 z "},"Ŝ":{"ha":786,"x_min":79,"x_max":729,"o":"m 463 483 q 665 399 601 457 q 729 231 729 342 q 657 53 729 121 q 461 -14 585 -14 q 322 14 389 -14 q 218 89 256 42 l 218 0 l 85 0 l 85 269 l 204 269 q 288 147 226 193 q 435 100 349 100 q 522 126 490 100 q 553 199 553 151 q 520 277 553 253 q 403 318 488 301 l 332 332 q 143 417 207 357 q 79 579 79 478 q 150 747 79 685 q 339 810 221 810 q 470 787 413 810 q 565 722 528 764 l 565 794 l 690 794 l 690 565 l 575 565 q 509 658 556 621 q 379 696 463 696 q 295 672 325 696 q 265 606 265 647 q 302 533 265 558 q 419 492 339 507 l 463 483 m 332 1110 l 506 1110 l 622 876 l 511 876 l 418 1040 l 325 876 l 214 876 l 332 1110 z "},"Ș":{"ha":786,"x_min":79,"x_max":729,"o":"m 463 483 q 665 399 601 457 q 729 231 729 342 q 657 53 729 121 q 461 -14 585 -14 q 322 14 389 -14 q 218 89 256 42 l 218 0 l 85 0 l 85 269 l 204 269 q 288 147 226 193 q 435 100 349 100 q 522 126 490 100 q 553 199 553 151 q 520 277 553 253 q 403 318 488 301 l 332 332 q 143 417 207 357 q 79 579 79 478 q 150 747 79 685 q 339 810 221 810 q 470 787 413 810 q 565 722 528 764 l 565 794 l 690 794 l 690 565 l 575 565 q 509 658 556 621 q 379 696 463 696 q 295 672 325 696 q 265 606 265 647 q 302 533 265 558 q 419 492 339 507 l 463 483 m 349 -326 q 411 -295 392 -319 q 431 -222 431 -271 l 343 -222 l 343 -75 l 515 -75 l 515 -204 q 476 -340 515 -296 q 349 -385 438 -385 l 349 -326 z "},"Ṡ":{"ha":786,"x_min":79,"x_max":729,"o":"m 463 483 q 665 399 601 457 q 729 231 729 342 q 657 53 729 121 q 461 -14 585 -14 q 322 14 389 -14 q 218 89 256 42 l 218 0 l 85 0 l 85 269 l 204 269 q 288 147 226 193 q 435 100 349 100 q 522 126 490 100 q 553 199 553 151 q 520 277 553 253 q 403 318 488 301 l 332 332 q 143 417 207 357 q 79 579 79 478 q 150 747 79 685 q 339 810 221 810 q 470 787 413 810 q 565 722 528 764 l 565 794 l 690 794 l 690 565 l 575 565 q 509 658 556 621 q 379 696 463 696 q 295 672 325 696 q 265 606 265 647 q 302 533 265 558 q 419 492 339 507 l 463 483 m 418 897 q 348 924 375 897 q 321 990 321 950 q 348 1056 321 1031 q 418 1082 375 1082 q 489 1056 463 1082 q 515 988 515 1031 q 488 922 515 947 q 418 897 461 897 z "},"Ṣ":{"ha":786,"x_min":79,"x_max":729,"o":"m 463 483 q 665 399 601 457 q 729 231 729 342 q 657 53 729 121 q 461 -14 585 -14 q 322 14 389 -14 q 218 89 256 42 l 218 0 l 85 0 l 85 269 l 204 269 q 288 147 226 193 q 435 100 349 100 q 522 126 490 100 q 553 199 553 151 q 520 277 553 253 q 403 318 488 301 l 332 332 q 143 417 207 357 q 79 579 79 478 q 150 747 79 685 q 339 810 221 810 q 470 787 413 810 q 565 722 528 764 l 565 794 l 690 794 l 690 565 l 575 565 q 509 658 556 621 q 379 696 463 696 q 295 672 325 696 q 265 606 265 647 q 302 533 265 558 q 419 492 339 507 l 463 483 m 428 -242 q 363 -218 388 -242 q 338 -158 338 -194 q 363 -98 338 -121 q 428 -75 388 -75 q 494 -98 469 -75 q 518 -161 518 -121 q 493 -219 518 -196 q 428 -242 468 -242 z "},"Ṩ":{"ha":786,"x_min":79,"x_max":729,"o":"m 463 483 q 665 399 601 457 q 729 231 729 342 q 657 53 729 121 q 461 -14 585 -14 q 322 14 389 -14 q 218 89 256 42 l 218 0 l 85 0 l 85 269 l 204 269 q 288 147 226 193 q 435 100 349 100 q 522 126 490 100 q 553 199 553 151 q 520 277 553 253 q 403 318 488 301 l 332 332 q 143 417 207 357 q 79 579 79 478 q 150 747 79 685 q 339 810 221 810 q 470 787 413 810 q 565 722 528 764 l 565 794 l 690 794 l 690 565 l 575 565 q 509 658 556 621 q 379 696 463 696 q 295 672 325 696 q 265 606 265 647 q 302 533 265 558 q 419 492 339 507 l 463 483 m 428 -242 q 363 -218 388 -242 q 338 -158 338 -194 q 363 -98 338 -121 q 428 -75 388 -75 q 494 -98 469 -75 q 518 -161 518 -121 q 493 -219 518 -196 q 428 -242 468 -242 m 418 897 q 348 924 375 897 q 321 990 321 950 q 348 1056 321 1031 q 418 1082 375 1082 q 489 1056 463 1082 q 515 988 515 1031 q 488 922 515 947 q 418 897 461 897 z "},"ẞ":{"ha":875,"x_min":60,"x_max":826,"o":"m 501 119 q 644 240 644 128 q 592 338 644 306 q 442 371 539 371 l 442 449 l 603 660 q 475 681 543 681 q 356 642 399 681 q 314 528 314 604 l 314 117 l 392 117 l 392 0 l 60 0 l 60 117 l 129 117 l 129 519 q 213 734 129 660 q 464 808 297 808 q 742 744 619 808 l 742 629 l 601 447 q 826 221 826 413 q 742 44 826 101 q 501 -14 658 -14 l 501 119 z "},"Ə":{"ha":936,"x_min":56,"x_max":878,"o":"m 453 807 q 676 756 579 807 q 825 613 772 706 q 878 397 878 519 q 824 181 878 275 q 676 36 771 88 q 457 -15 581 -15 q 239 35 329 -15 q 102 177 149 86 q 56 388 56 268 l 56 436 l 674 436 q 591 594 658 538 q 421 650 524 650 q 131 543 272 650 l 65 668 q 240 768 142 729 q 453 807 338 807 m 463 119 q 608 174 553 119 q 675 329 664 229 l 256 329 q 312 175 256 231 q 463 119 368 119 z "},"T":{"ha":850,"x_min":35,"x_max":814,"o":"m 235 117 l 331 117 l 331 681 l 163 681 l 163 507 l 35 507 l 35 794 l 814 794 l 814 507 l 688 507 l 688 681 l 521 681 l 521 117 l 618 117 l 618 0 l 235 0 l 235 117 z "},"Ŧ":{"ha":850,"x_min":35,"x_max":814,"o":"m 814 794 l 814 507 l 688 507 l 688 681 l 521 681 l 521 436 l 608 436 l 608 343 l 521 343 l 521 117 l 618 117 l 618 0 l 235 0 l 235 117 l 331 117 l 331 343 l 242 343 l 242 436 l 331 436 l 331 681 l 163 681 l 163 507 l 35 507 l 35 794 l 814 794 z "},"Ť":{"ha":850,"x_min":35,"x_max":814,"o":"m 235 117 l 331 117 l 331 681 l 163 681 l 163 507 l 35 507 l 35 794 l 814 794 l 814 507 l 688 507 l 688 681 l 521 681 l 521 117 l 618 117 l 618 0 l 235 0 l 235 117 m 229 1106 l 343 1106 l 428 951 l 511 1106 l 617 1106 l 517 875 l 339 875 l 229 1106 z "},"Ţ":{"ha":850,"x_min":35,"x_max":814,"o":"m 235 117 l 331 117 l 331 681 l 163 681 l 163 507 l 35 507 l 35 794 l 814 794 l 814 507 l 688 507 l 688 681 l 521 681 l 521 117 l 618 117 l 618 0 l 235 0 l 235 117 m 422 -268 q 300 -236 360 -268 l 300 -187 q 378 -204 353 -204 q 415 -194 401 -204 q 429 -164 429 -185 q 349 -118 429 -122 l 396 0 l 460 0 l 438 -79 q 513 -112 488 -86 q 539 -175 539 -139 q 506 -244 539 -221 q 422 -268 472 -268 z "},"Ț":{"ha":850,"x_min":35,"x_max":814,"o":"m 235 117 l 331 117 l 331 681 l 163 681 l 163 507 l 35 507 l 35 794 l 814 794 l 814 507 l 688 507 l 688 681 l 521 681 l 521 117 l 618 117 l 618 0 l 235 0 l 235 117 m 347 -326 q 410 -295 390 -319 q 429 -222 429 -271 l 342 -222 l 342 -75 l 514 -75 l 514 -204 q 475 -340 514 -296 q 347 -385 436 -385 l 347 -326 z "},"Ṫ":{"ha":850,"x_min":35,"x_max":814,"o":"m 235 117 l 331 117 l 331 681 l 163 681 l 163 507 l 35 507 l 35 794 l 814 794 l 814 507 l 688 507 l 688 681 l 521 681 l 521 117 l 618 117 l 618 0 l 235 0 l 235 117 m 424 897 q 353 924 381 897 q 326 990 326 950 q 353 1056 326 1031 q 424 1082 381 1082 q 494 1056 468 1082 q 521 988 521 1031 q 494 922 521 947 q 424 897 467 897 z "},"Ṭ":{"ha":850,"x_min":35,"x_max":814,"o":"m 235 117 l 331 117 l 331 681 l 163 681 l 163 507 l 35 507 l 35 794 l 814 794 l 814 507 l 688 507 l 688 681 l 521 681 l 521 117 l 618 117 l 618 0 l 235 0 l 235 117 m 426 -242 q 361 -218 386 -242 q 336 -158 336 -194 q 361 -98 336 -121 q 426 -75 386 -75 q 492 -98 468 -75 q 517 -161 517 -121 q 492 -219 517 -196 q 426 -242 467 -242 z "},"Ṯ":{"ha":850,"x_min":35,"x_max":814,"o":"m 235 117 l 331 117 l 331 681 l 163 681 l 163 507 l 35 507 l 35 794 l 814 794 l 814 507 l 688 507 l 688 681 l 521 681 l 521 117 l 618 117 l 618 0 l 235 0 l 235 117 m 258 -85 l 594 -85 l 594 -178 l 258 -178 l 258 -85 z "},"U":{"ha":951,"x_min":42,"x_max":914,"o":"m 482 -14 q 219 65 307 -14 q 131 289 131 144 l 131 678 l 42 678 l 42 794 l 413 794 l 413 678 l 319 678 l 319 283 q 365 154 319 200 q 494 108 411 108 q 630 154 582 108 q 678 283 678 200 l 678 678 l 599 678 l 599 794 l 914 794 l 914 678 l 826 678 l 826 286 q 736 63 826 139 q 482 -14 646 -14 z "},"Ú":{"ha":951,"x_min":42,"x_max":914,"o":"m 482 -14 q 219 65 307 -14 q 131 289 131 144 l 131 678 l 42 678 l 42 794 l 413 794 l 413 678 l 319 678 l 319 283 q 365 154 319 200 q 494 108 411 108 q 630 154 582 108 q 678 283 678 200 l 678 678 l 599 678 l 599 794 l 914 794 l 914 678 l 826 678 l 826 286 q 736 63 826 139 q 482 -14 646 -14 m 510 1118 l 674 1118 l 543 893 l 444 893 l 510 1118 z "},"Ŭ":{"ha":951,"x_min":42,"x_max":914,"o":"m 482 -14 q 219 65 307 -14 q 131 289 131 144 l 131 678 l 42 678 l 42 794 l 413 794 l 413 678 l 319 678 l 319 283 q 365 154 319 200 q 494 108 411 108 q 630 154 582 108 q 678 283 678 200 l 678 678 l 599 678 l 599 794 l 914 794 l 914 678 l 826 678 l 826 286 q 736 63 826 139 q 482 -14 646 -14 m 493 883 q 353 929 404 883 q 296 1060 301 975 l 407 1060 q 493 976 419 976 q 551 998 529 976 q 579 1060 574 1019 l 690 1060 q 631 930 682 975 q 493 883 581 885 z "},"Ǔ":{"ha":951,"x_min":42,"x_max":914,"o":"m 482 -14 q 219 65 307 -14 q 131 289 131 144 l 131 678 l 42 678 l 42 794 l 413 794 l 413 678 l 319 678 l 319 283 q 365 154 319 200 q 494 108 411 108 q 630 154 582 108 q 678 283 678 200 l 678 678 l 599 678 l 599 794 l 914 794 l 914 678 l 826 678 l 826 286 q 736 63 826 139 q 482 -14 646 -14 m 299 1106 l 413 1106 l 497 951 l 581 1106 l 686 1106 l 586 875 l 408 875 l 299 1106 z "},"Û":{"ha":951,"x_min":42,"x_max":914,"o":"m 482 -14 q 219 65 307 -14 q 131 289 131 144 l 131 678 l 42 678 l 42 794 l 413 794 l 413 678 l 319 678 l 319 283 q 365 154 319 200 q 494 108 411 108 q 630 154 582 108 q 678 283 678 200 l 678 678 l 599 678 l 599 794 l 914 794 l 914 678 l 826 678 l 826 286 q 736 63 826 139 q 482 -14 646 -14 m 407 1110 l 581 1110 l 697 876 l 586 876 l 493 1040 l 400 876 l 289 876 l 407 1110 z "},"Ȕ":{"ha":951,"x_min":42,"x_max":914,"o":"m 482 -14 q 219 65 307 -14 q 131 289 131 144 l 131 678 l 42 678 l 42 794 l 413 794 l 413 678 l 319 678 l 319 283 q 365 154 319 200 q 494 108 411 108 q 630 154 582 108 q 678 283 678 200 l 678 678 l 599 678 l 599 794 l 914 794 l 914 678 l 826 678 l 826 286 q 736 63 826 139 q 482 -14 646 -14 m 181 1124 l 344 1124 l 414 893 l 315 893 l 181 1124 m 421 1124 l 585 1124 l 653 893 l 554 893 l 421 1124 z "},"Ü":{"ha":951,"x_min":42,"x_max":914,"o":"m 482 -14 q 219 65 307 -14 q 131 289 131 144 l 131 678 l 42 678 l 42 794 l 413 794 l 413 678 l 319 678 l 319 283 q 365 154 319 200 q 494 108 411 108 q 630 154 582 108 q 678 283 678 200 l 678 678 l 599 678 l 599 794 l 914 794 l 914 678 l 826 678 l 826 286 q 736 63 826 139 q 482 -14 646 -14 m 336 894 q 269 918 296 894 q 243 983 243 942 q 269 1048 243 1024 q 336 1072 296 1072 q 401 1048 375 1072 q 428 983 428 1024 q 401 918 428 942 q 336 894 375 894 m 650 894 q 585 918 611 894 q 558 983 558 942 q 585 1048 558 1024 q 650 1072 611 1072 q 717 1048 690 1072 q 743 983 743 1024 q 717 918 743 942 q 650 894 690 894 z "},"Ụ":{"ha":951,"x_min":42,"x_max":914,"o":"m 482 -14 q 219 65 307 -14 q 131 289 131 144 l 131 678 l 42 678 l 42 794 l 413 794 l 413 678 l 319 678 l 319 283 q 365 154 319 200 q 494 108 411 108 q 630 154 582 108 q 678 283 678 200 l 678 678 l 599 678 l 599 794 l 914 794 l 914 678 l 826 678 l 826 286 q 736 63 826 139 q 482 -14 646 -14 m 489 -242 q 424 -218 449 -242 q 399 -158 399 -194 q 424 -98 399 -121 q 489 -75 449 -75 q 555 -98 531 -75 q 579 -161 579 -121 q 554 -219 579 -196 q 489 -242 529 -242 z "},"Ù":{"ha":951,"x_min":42,"x_max":914,"o":"m 482 -14 q 219 65 307 -14 q 131 289 131 144 l 131 678 l 42 678 l 42 794 l 413 794 l 413 678 l 319 678 l 319 283 q 365 154 319 200 q 494 108 411 108 q 630 154 582 108 q 678 283 678 200 l 678 678 l 599 678 l 599 794 l 914 794 l 914 678 l 826 678 l 826 286 q 736 63 826 139 q 482 -14 646 -14 m 311 1118 l 475 1118 l 540 893 l 442 893 l 311 1118 z "},"Ủ":{"ha":951,"x_min":42,"x_max":914,"o":"m 482 -14 q 219 65 307 -14 q 131 289 131 144 l 131 678 l 42 678 l 42 794 l 413 794 l 413 678 l 319 678 l 319 283 q 365 154 319 200 q 494 108 411 108 q 630 154 582 108 q 678 283 678 200 l 678 678 l 599 678 l 599 794 l 914 794 l 914 678 l 826 678 l 826 286 q 736 63 826 139 q 482 -14 646 -14 m 468 915 q 514 968 514 933 q 499 999 514 988 q 461 1010 485 1010 q 389 988 425 1010 l 367 1053 q 482 1092 421 1092 q 574 1061 539 1092 q 608 982 608 1031 q 577 901 608 933 q 488 854 546 869 l 468 915 z "},"Ư":{"ha":951,"x_min":42,"x_max":960,"o":"m 960 893 q 919 780 954 825 q 826 717 885 735 l 826 286 q 736 63 826 139 q 482 -14 646 -14 q 219 65 307 -14 q 131 289 131 144 l 131 678 l 42 678 l 42 794 l 413 794 l 413 678 l 319 678 l 319 283 q 365 154 319 200 q 494 108 411 108 q 630 154 582 108 q 678 283 678 200 l 678 678 l 599 678 l 599 794 l 726 794 q 794 819 768 794 q 825 893 821 843 l 960 893 z "},"Ứ":{"ha":951,"x_min":42,"x_max":960,"o":"m 960 893 q 919 780 954 825 q 826 717 885 735 l 826 286 q 736 63 826 139 q 482 -14 646 -14 q 219 65 307 -14 q 131 289 131 144 l 131 678 l 42 678 l 42 794 l 413 794 l 413 678 l 319 678 l 319 283 q 365 154 319 200 q 494 108 411 108 q 630 154 582 108 q 678 283 678 200 l 678 678 l 599 678 l 599 794 l 726 794 q 794 819 768 794 q 825 893 821 843 l 960 893 m 510 1118 l 674 1118 l 543 893 l 444 893 l 510 1118 z "},"Ự":{"ha":951,"x_min":42,"x_max":960,"o":"m 960 893 q 919 780 954 825 q 826 717 885 735 l 826 286 q 736 63 826 139 q 482 -14 646 -14 q 219 65 307 -14 q 131 289 131 144 l 131 678 l 42 678 l 42 794 l 413 794 l 413 678 l 319 678 l 319 283 q 365 154 319 200 q 494 108 411 108 q 630 154 582 108 q 678 283 678 200 l 678 678 l 599 678 l 599 794 l 726 794 q 794 819 768 794 q 825 893 821 843 l 960 893 m 489 -242 q 424 -218 449 -242 q 399 -158 399 -194 q 424 -98 399 -121 q 489 -75 449 -75 q 555 -98 531 -75 q 579 -161 579 -121 q 554 -219 579 -196 q 489 -242 529 -242 z "},"Ừ":{"ha":951,"x_min":42,"x_max":960,"o":"m 960 893 q 919 780 954 825 q 826 717 885 735 l 826 286 q 736 63 826 139 q 482 -14 646 -14 q 219 65 307 -14 q 131 289 131 144 l 131 678 l 42 678 l 42 794 l 413 794 l 413 678 l 319 678 l 319 283 q 365 154 319 200 q 494 108 411 108 q 630 154 582 108 q 678 283 678 200 l 678 678 l 599 678 l 599 794 l 726 794 q 794 819 768 794 q 825 893 821 843 l 960 893 m 311 1118 l 475 1118 l 540 893 l 442 893 l 311 1118 z "},"Ử":{"ha":951,"x_min":42,"x_max":960,"o":"m 960 893 q 919 780 954 825 q 826 717 885 735 l 826 286 q 736 63 826 139 q 482 -14 646 -14 q 219 65 307 -14 q 131 289 131 144 l 131 678 l 42 678 l 42 794 l 413 794 l 413 678 l 319 678 l 319 283 q 365 154 319 200 q 494 108 411 108 q 630 154 582 108 q 678 283 678 200 l 678 678 l 599 678 l 599 794 l 726 794 q 794 819 768 794 q 825 893 821 843 l 960 893 m 468 915 q 514 968 514 933 q 499 999 514 988 q 461 1010 485 1010 q 389 988 425 1010 l 367 1053 q 482 1092 421 1092 q 574 1061 539 1092 q 608 982 608 1031 q 577 901 608 933 q 488 854 546 869 l 468 915 z "},"Ữ":{"ha":951,"x_min":42,"x_max":960,"o":"m 960 893 q 919 780 954 825 q 826 717 885 735 l 826 286 q 736 63 826 139 q 482 -14 646 -14 q 219 65 307 -14 q 131 289 131 144 l 131 678 l 42 678 l 42 794 l 413 794 l 413 678 l 319 678 l 319 283 q 365 154 319 200 q 494 108 411 108 q 630 154 582 108 q 678 283 678 200 l 678 678 l 599 678 l 599 794 l 726 794 q 794 819 768 794 q 825 893 821 843 l 960 893 m 589 894 q 535 903 563 894 q 469 929 507 913 q 436 943 463 932 q 390 954 410 954 q 339 901 344 954 l 261 901 q 306 1032 268 990 q 400 1074 343 1074 q 449 1065 425 1074 q 514 1040 474 1057 q 594 1014 572 1014 q 650 1068 640 1014 l 725 1068 q 683 939 719 983 q 589 894 647 894 z "},"Ű":{"ha":951,"x_min":42,"x_max":914,"o":"m 482 -14 q 219 65 307 -14 q 131 289 131 144 l 131 678 l 42 678 l 42 794 l 413 794 l 413 678 l 319 678 l 319 283 q 365 154 319 200 q 494 108 411 108 q 630 154 582 108 q 678 283 678 200 l 678 678 l 599 678 l 599 794 l 914 794 l 914 678 l 826 678 l 826 286 q 736 63 826 139 q 482 -14 646 -14 m 388 1124 l 551 1124 l 418 893 l 319 893 l 388 1124 m 626 1124 l 792 1124 l 657 893 l 558 893 l 626 1124 z "},"Ȗ":{"ha":951,"x_min":42,"x_max":914,"o":"m 482 -14 q 219 65 307 -14 q 131 289 131 144 l 131 678 l 42 678 l 42 794 l 413 794 l 413 678 l 319 678 l 319 283 q 365 154 319 200 q 494 108 411 108 q 630 154 582 108 q 678 283 678 200 l 678 678 l 599 678 l 599 794 l 914 794 l 914 678 l 826 678 l 826 286 q 736 63 826 139 q 482 -14 646 -14 m 297 864 q 354 1005 303 956 q 493 1054 406 1054 q 631 1004 579 1054 q 688 864 682 954 l 579 864 q 493 944 567 944 q 434 924 457 944 q 406 864 411 903 l 297 864 z "},"Ū":{"ha":951,"x_min":42,"x_max":914,"o":"m 482 -14 q 219 65 307 -14 q 131 289 131 144 l 131 678 l 42 678 l 42 794 l 413 794 l 413 678 l 319 678 l 319 283 q 365 154 319 200 q 494 108 411 108 q 630 154 582 108 q 678 283 678 200 l 678 678 l 599 678 l 599 794 l 914 794 l 914 678 l 826 678 l 826 286 q 736 63 826 139 q 482 -14 646 -14 m 325 988 l 661 988 l 661 894 l 325 894 l 325 988 z "},"Ṻ":{"ha":951,"x_min":42,"x_max":914,"o":"m 482 -14 q 219 65 307 -14 q 131 289 131 144 l 131 678 l 42 678 l 42 794 l 413 794 l 413 678 l 319 678 l 319 283 q 365 154 319 200 q 494 108 411 108 q 630 154 582 108 q 678 283 678 200 l 678 678 l 599 678 l 599 794 l 914 794 l 914 678 l 826 678 l 826 286 q 736 63 826 139 q 482 -14 646 -14 m 325 988 l 661 988 l 661 894 l 325 894 l 325 988 m 336 1081 q 269 1104 296 1081 q 243 1169 243 1128 q 269 1234 243 1210 q 336 1258 296 1258 q 401 1234 375 1258 q 428 1169 428 1210 q 401 1104 428 1128 q 336 1081 375 1081 m 650 1081 q 585 1104 611 1081 q 558 1169 558 1128 q 585 1234 558 1210 q 650 1258 611 1258 q 717 1234 690 1258 q 743 1169 743 1210 q 717 1104 743 1128 q 650 1081 690 1081 z "},"Ų":{"ha":951,"x_min":42,"x_max":914,"o":"m 914 794 l 914 678 l 826 678 l 826 286 q 744 69 826 146 q 511 -14 661 -7 q 461 -111 461 -71 q 481 -153 461 -137 q 532 -169 500 -169 q 590 -156 563 -169 l 590 -231 q 490 -257 538 -257 q 403 -226 436 -257 q 369 -146 369 -194 q 440 -12 369 -79 q 208 76 286 -3 q 131 289 131 154 l 131 678 l 42 678 l 42 794 l 413 794 l 413 678 l 319 678 l 319 283 q 365 154 319 200 q 494 108 411 108 q 630 154 582 108 q 678 283 678 200 l 678 678 l 599 678 l 599 794 l 914 794 z "},"Ů":{"ha":951,"x_min":42,"x_max":914,"o":"m 482 -14 q 219 65 307 -14 q 131 289 131 144 l 131 678 l 42 678 l 42 794 l 413 794 l 413 678 l 319 678 l 319 283 q 365 154 319 200 q 494 108 411 108 q 630 154 582 108 q 678 283 678 200 l 678 678 l 599 678 l 599 794 l 914 794 l 914 678 l 826 678 l 826 286 q 736 63 826 139 q 482 -14 646 -14 m 496 860 q 404 892 438 860 q 371 976 371 924 q 403 1062 371 1031 q 493 1093 435 1093 q 583 1062 550 1093 q 615 976 615 1031 q 583 892 615 925 q 496 860 551 860 m 493 915 q 538 932 522 915 q 554 976 554 949 q 538 1022 554 1006 q 493 1039 522 1039 q 447 1022 464 1039 q 431 976 431 1004 q 447 932 431 949 q 493 915 464 915 z "},"Ũ":{"ha":951,"x_min":42,"x_max":914,"o":"m 482 -14 q 219 65 307 -14 q 131 289 131 144 l 131 678 l 42 678 l 42 794 l 413 794 l 413 678 l 319 678 l 319 283 q 365 154 319 200 q 494 108 411 108 q 630 154 582 108 q 678 283 678 200 l 678 678 l 599 678 l 599 794 l 914 794 l 914 678 l 826 678 l 826 286 q 736 63 826 139 q 482 -14 646 -14 m 589 894 q 535 903 563 894 q 469 929 507 913 q 436 943 463 932 q 390 954 410 954 q 339 901 344 954 l 261 901 q 306 1032 268 990 q 400 1074 343 1074 q 449 1065 425 1074 q 514 1040 474 1057 q 594 1014 572 1014 q 650 1068 640 1014 l 725 1068 q 683 939 719 983 q 589 894 647 894 z "},"Ṹ":{"ha":951,"x_min":42,"x_max":914,"o":"m 482 -14 q 219 65 307 -14 q 131 289 131 144 l 131 678 l 42 678 l 42 794 l 413 794 l 413 678 l 319 678 l 319 283 q 365 154 319 200 q 494 108 411 108 q 630 154 582 108 q 678 283 678 200 l 678 678 l 599 678 l 599 794 l 914 794 l 914 678 l 826 678 l 826 286 q 736 63 826 139 q 482 -14 646 -14 m 589 894 q 535 903 563 894 q 469 929 507 913 q 436 943 463 932 q 390 954 410 954 q 339 901 344 954 l 261 901 q 306 1032 268 990 q 400 1074 343 1074 q 449 1065 425 1074 q 514 1040 474 1057 q 594 1014 572 1014 q 650 1068 640 1014 l 725 1068 q 683 939 719 983 q 589 894 647 894 m 511 1364 l 675 1364 l 544 1139 l 446 1139 l 511 1364 z "},"V":{"ha":925,"x_min":21,"x_max":903,"o":"m 103 678 l 21 678 l 21 794 l 399 794 l 399 678 l 301 678 l 483 208 l 661 678 l 565 678 l 565 794 l 903 794 l 903 678 l 822 678 l 542 0 l 401 0 l 103 678 z "},"W":{"ha":1272,"x_min":26,"x_max":1247,"o":"m 107 678 l 26 678 l 26 794 l 363 794 l 363 678 l 278 678 l 407 251 l 586 775 l 707 775 l 885 251 l 1017 678 l 925 678 l 925 794 l 1247 794 l 1247 678 l 1165 678 l 949 0 l 819 0 l 640 508 l 463 0 l 332 0 l 107 678 z "},"Ẃ":{"ha":1272,"x_min":26,"x_max":1247,"o":"m 107 678 l 26 678 l 26 794 l 363 794 l 363 678 l 278 678 l 407 251 l 586 775 l 707 775 l 885 251 l 1017 678 l 925 678 l 925 794 l 1247 794 l 1247 678 l 1165 678 l 949 0 l 819 0 l 640 508 l 463 0 l 332 0 l 107 678 m 664 1099 l 828 1099 l 697 874 l 599 874 l 664 1099 z "},"Ŵ":{"ha":1272,"x_min":26,"x_max":1247,"o":"m 107 678 l 26 678 l 26 794 l 363 794 l 363 678 l 278 678 l 407 251 l 586 775 l 707 775 l 885 251 l 1017 678 l 925 678 l 925 794 l 1247 794 l 1247 678 l 1165 678 l 949 0 l 819 0 l 640 508 l 463 0 l 332 0 l 107 678 m 561 1090 l 735 1090 l 851 857 l 740 857 l 647 1021 l 554 857 l 443 857 l 561 1090 z "},"Ẅ":{"ha":1272,"x_min":26,"x_max":1247,"o":"m 107 678 l 26 678 l 26 794 l 363 794 l 363 678 l 278 678 l 407 251 l 586 775 l 707 775 l 885 251 l 1017 678 l 925 678 l 925 794 l 1247 794 l 1247 678 l 1165 678 l 949 0 l 819 0 l 640 508 l 463 0 l 332 0 l 107 678 m 490 875 q 424 899 450 875 q 397 964 397 922 q 424 1028 397 1004 q 490 1053 450 1053 q 556 1028 529 1053 q 582 964 582 1004 q 556 899 582 922 q 490 875 529 875 m 804 875 q 739 899 765 875 q 713 964 713 922 q 739 1028 713 1004 q 804 1053 765 1053 q 871 1028 844 1053 q 897 964 897 1004 q 871 899 897 922 q 804 875 844 875 z "},"Ẁ":{"ha":1272,"x_min":26,"x_max":1247,"o":"m 107 678 l 26 678 l 26 794 l 363 794 l 363 678 l 278 678 l 407 251 l 586 775 l 707 775 l 885 251 l 1017 678 l 925 678 l 925 794 l 1247 794 l 1247 678 l 1165 678 l 949 0 l 819 0 l 640 508 l 463 0 l 332 0 l 107 678 m 465 1099 l 629 1099 l 694 874 l 596 874 l 465 1099 z "},"X":{"ha":926,"x_min":40,"x_max":886,"o":"m 40 115 l 122 115 l 343 401 l 132 679 l 51 679 l 51 794 l 411 794 l 411 679 l 338 679 l 471 492 l 607 679 l 532 679 l 532 794 l 869 794 l 869 679 l 789 679 l 579 410 l 804 115 l 886 115 l 886 0 l 524 0 l 524 115 l 599 115 l 453 321 l 306 115 l 382 115 l 382 0 l 40 0 l 40 115 z "},"Y":{"ha":914,"x_min":17,"x_max":897,"o":"m 267 117 l 365 117 l 365 313 l 104 678 l 17 678 l 17 794 l 404 794 l 404 678 l 313 678 l 482 429 l 646 678 l 554 678 l 554 794 l 897 794 l 897 678 l 807 678 l 557 314 l 557 117 l 657 117 l 657 0 l 267 0 l 267 117 z "},"Ý":{"ha":914,"x_min":17,"x_max":897,"o":"m 267 117 l 365 117 l 365 313 l 104 678 l 17 678 l 17 794 l 404 794 l 404 678 l 313 678 l 482 429 l 646 678 l 554 678 l 554 794 l 897 794 l 897 678 l 807 678 l 557 314 l 557 117 l 657 117 l 657 0 l 267 0 l 267 117 m 496 1118 l 660 1118 l 529 893 l 431 893 l 496 1118 z "},"Ŷ":{"ha":914,"x_min":17,"x_max":897,"o":"m 267 117 l 365 117 l 365 313 l 104 678 l 17 678 l 17 794 l 404 794 l 404 678 l 313 678 l 482 429 l 646 678 l 554 678 l 554 794 l 897 794 l 897 678 l 807 678 l 557 314 l 557 117 l 657 117 l 657 0 l 267 0 l 267 117 m 393 1110 l 567 1110 l 683 876 l 572 876 l 479 1040 l 386 876 l 275 876 l 393 1110 z "},"Ÿ":{"ha":914,"x_min":17,"x_max":897,"o":"m 267 117 l 365 117 l 365 313 l 104 678 l 17 678 l 17 794 l 404 794 l 404 678 l 313 678 l 482 429 l 646 678 l 554 678 l 554 794 l 897 794 l 897 678 l 807 678 l 557 314 l 557 117 l 657 117 l 657 0 l 267 0 l 267 117 m 322 894 q 256 918 282 894 q 229 983 229 942 q 256 1048 229 1024 q 322 1072 282 1072 q 388 1048 361 1072 q 414 983 414 1024 q 388 918 414 942 q 322 894 361 894 m 636 894 q 571 918 597 894 q 544 983 544 942 q 571 1048 544 1024 q 636 1072 597 1072 q 703 1048 676 1072 q 729 983 729 1024 q 703 918 729 942 q 636 894 676 894 z "},"Ẏ":{"ha":914,"x_min":17,"x_max":897,"o":"m 267 117 l 365 117 l 365 313 l 104 678 l 17 678 l 17 794 l 404 794 l 404 678 l 313 678 l 482 429 l 646 678 l 554 678 l 554 794 l 897 794 l 897 678 l 807 678 l 557 314 l 557 117 l 657 117 l 657 0 l 267 0 l 267 117 m 479 897 q 409 924 436 897 q 382 990 382 950 q 409 1056 382 1031 q 479 1082 436 1082 q 550 1056 524 1082 q 576 988 576 1031 q 549 922 576 947 q 479 897 522 897 z "},"Ỵ":{"ha":914,"x_min":17,"x_max":897,"o":"m 267 117 l 365 117 l 365 313 l 104 678 l 17 678 l 17 794 l 404 794 l 404 678 l 313 678 l 482 429 l 646 678 l 554 678 l 554 794 l 897 794 l 897 678 l 807 678 l 557 314 l 557 117 l 657 117 l 657 0 l 267 0 l 267 117 m 463 -242 q 397 -218 422 -242 q 372 -158 372 -194 q 397 -98 372 -121 q 463 -75 422 -75 q 528 -98 504 -75 q 553 -161 553 -121 q 528 -219 553 -196 q 463 -242 503 -242 z "},"Ỳ":{"ha":914,"x_min":17,"x_max":897,"o":"m 267 117 l 365 117 l 365 313 l 104 678 l 17 678 l 17 794 l 404 794 l 404 678 l 313 678 l 482 429 l 646 678 l 554 678 l 554 794 l 897 794 l 897 678 l 807 678 l 557 314 l 557 117 l 657 117 l 657 0 l 267 0 l 267 117 m 297 1118 l 461 1118 l 526 893 l 428 893 l 297 1118 z "},"Ỷ":{"ha":914,"x_min":17,"x_max":897,"o":"m 267 117 l 365 117 l 365 313 l 104 678 l 17 678 l 17 794 l 404 794 l 404 678 l 313 678 l 482 429 l 646 678 l 554 678 l 554 794 l 897 794 l 897 678 l 807 678 l 557 314 l 557 117 l 657 117 l 657 0 l 267 0 l 267 117 m 454 915 q 500 968 500 933 q 485 999 500 988 q 447 1010 471 1010 q 375 988 411 1010 l 353 1053 q 468 1092 407 1092 q 560 1061 525 1092 q 594 982 594 1031 q 563 901 594 933 q 474 854 532 869 l 454 915 z "},"Ȳ":{"ha":914,"x_min":17,"x_max":897,"o":"m 267 117 l 365 117 l 365 313 l 104 678 l 17 678 l 17 794 l 404 794 l 404 678 l 313 678 l 482 429 l 646 678 l 554 678 l 554 794 l 897 794 l 897 678 l 807 678 l 557 314 l 557 117 l 657 117 l 657 0 l 267 0 l 267 117 m 311 988 l 647 988 l 647 894 l 311 894 l 311 988 z "},"Ỹ":{"ha":914,"x_min":17,"x_max":897,"o":"m 267 117 l 365 117 l 365 313 l 104 678 l 17 678 l 17 794 l 404 794 l 404 678 l 313 678 l 482 429 l 646 678 l 554 678 l 554 794 l 897 794 l 897 678 l 807 678 l 557 314 l 557 117 l 657 117 l 657 0 l 267 0 l 267 117 m 575 894 q 521 903 549 894 q 456 929 493 913 q 422 943 449 932 q 376 954 396 954 q 325 901 331 954 l 247 901 q 292 1032 254 990 q 386 1074 329 1074 q 435 1065 411 1074 q 500 1040 460 1057 q 581 1014 558 1014 q 636 1068 626 1014 l 711 1068 q 669 939 706 983 q 575 894 633 894 z "},"Z":{"ha":814,"x_min":67,"x_max":754,"o":"m 67 101 l 492 681 l 207 681 l 207 514 l 81 514 l 81 794 l 743 794 l 743 699 l 315 115 l 625 115 l 625 296 l 754 296 l 754 0 l 67 0 l 67 101 z "},"Ź":{"ha":814,"x_min":67,"x_max":754,"o":"m 67 101 l 492 681 l 207 681 l 207 514 l 81 514 l 81 794 l 743 794 l 743 699 l 315 115 l 625 115 l 625 296 l 754 296 l 754 0 l 67 0 l 67 101 m 436 1118 l 600 1118 l 469 893 l 371 893 l 436 1118 z "},"Ž":{"ha":814,"x_min":67,"x_max":754,"o":"m 67 101 l 492 681 l 207 681 l 207 514 l 81 514 l 81 794 l 743 794 l 743 699 l 315 115 l 625 115 l 625 296 l 754 296 l 754 0 l 67 0 l 67 101 m 225 1106 l 339 1106 l 424 951 l 507 1106 l 613 1106 l 513 875 l 335 875 l 225 1106 z "},"Ż":{"ha":814,"x_min":67,"x_max":754,"o":"m 67 101 l 492 681 l 207 681 l 207 514 l 81 514 l 81 794 l 743 794 l 743 699 l 315 115 l 625 115 l 625 296 l 754 296 l 754 0 l 67 0 l 67 101 m 419 897 q 349 924 376 897 q 322 990 322 950 q 349 1056 322 1031 q 419 1082 376 1082 q 490 1056 464 1082 q 517 988 517 1031 q 490 922 517 947 q 419 897 463 897 z "},"Ẓ":{"ha":814,"x_min":67,"x_max":754,"o":"m 67 101 l 492 681 l 207 681 l 207 514 l 81 514 l 81 794 l 743 794 l 743 699 l 315 115 l 625 115 l 625 296 l 754 296 l 754 0 l 67 0 l 67 101 m 411 -242 q 346 -218 371 -242 q 321 -158 321 -194 q 346 -98 321 -121 q 411 -75 371 -75 q 477 -98 453 -75 q 501 -161 501 -121 q 476 -219 501 -196 q 411 -242 451 -242 z "},"a":{"ha":657,"x_min":47,"x_max":639,"o":"m 639 104 l 639 0 l 425 0 l 413 50 q 232 -15 332 -15 q 98 30 149 -15 q 47 147 47 75 q 109 278 47 236 q 267 319 171 319 q 400 301 336 319 l 400 340 q 371 424 400 396 q 286 453 342 453 q 101 404 203 453 l 61 503 q 187 551 119 535 q 318 567 254 567 q 500 509 435 567 q 565 351 565 451 l 565 104 l 639 104 m 199 158 q 222 101 199 122 q 283 79 244 79 q 400 122 346 79 l 400 226 q 300 242 354 242 q 228 222 257 242 q 199 158 199 201 z "},"á":{"ha":657,"x_min":47,"x_max":639,"o":"m 639 104 l 639 0 l 425 0 l 413 50 q 232 -15 332 -15 q 98 30 149 -15 q 47 147 47 75 q 109 278 47 236 q 267 319 171 319 q 400 301 336 319 l 400 340 q 371 424 400 396 q 286 453 342 453 q 101 404 203 453 l 61 503 q 187 551 119 535 q 318 567 254 567 q 500 509 435 567 q 565 351 565 451 l 565 104 l 639 104 m 199 158 q 222 101 199 122 q 283 79 244 79 q 400 122 346 79 l 400 226 q 300 242 354 242 q 228 222 257 242 q 199 158 199 201 m 338 876 l 501 876 l 371 651 l 272 651 l 338 876 z "},"ă":{"ha":657,"x_min":47,"x_max":639,"o":"m 639 104 l 639 0 l 425 0 l 413 50 q 232 -15 332 -15 q 98 30 149 -15 q 47 147 47 75 q 109 278 47 236 q 267 319 171 319 q 400 301 336 319 l 400 340 q 371 424 400 396 q 286 453 342 453 q 101 404 203 453 l 61 503 q 187 551 119 535 q 318 567 254 567 q 500 509 435 567 q 565 351 565 451 l 565 104 l 639 104 m 199 158 q 222 101 199 122 q 283 79 244 79 q 400 122 346 79 l 400 226 q 300 242 354 242 q 228 222 257 242 q 199 158 199 201 m 321 642 q 181 688 232 642 q 124 818 129 733 l 235 818 q 321 735 247 735 q 379 756 357 735 q 407 818 401 778 l 518 818 q 459 688 510 733 q 321 642 408 643 z "},"ắ":{"ha":657,"x_min":47,"x_max":639,"o":"m 639 104 l 639 0 l 425 0 l 413 50 q 232 -15 332 -15 q 98 30 149 -15 q 47 147 47 75 q 109 278 47 236 q 267 319 171 319 q 400 301 336 319 l 400 340 q 371 424 400 396 q 286 453 342 453 q 101 404 203 453 l 61 503 q 187 551 119 535 q 318 567 254 567 q 500 509 435 567 q 565 351 565 451 l 565 104 l 639 104 m 199 158 q 222 101 199 122 q 283 79 244 79 q 400 122 346 79 l 400 226 q 300 242 354 242 q 228 222 257 242 q 199 158 199 201 m 328 1000 l 474 1000 l 356 829 l 268 829 l 328 1000 m 317 639 q 181 681 231 639 q 124 801 131 724 l 228 801 q 321 722 240 722 q 385 742 361 722 q 414 801 408 763 l 518 801 q 458 681 510 722 q 317 639 407 639 z "},"ặ":{"ha":657,"x_min":47,"x_max":639,"o":"m 639 104 l 639 0 l 425 0 l 413 50 q 232 -15 332 -15 q 98 30 149 -15 q 47 147 47 75 q 109 278 47 236 q 267 319 171 319 q 400 301 336 319 l 400 340 q 371 424 400 396 q 286 453 342 453 q 101 404 203 453 l 61 503 q 187 551 119 535 q 318 567 254 567 q 500 509 435 567 q 565 351 565 451 l 565 104 l 639 104 m 199 158 q 222 101 199 122 q 283 79 244 79 q 400 122 346 79 l 400 226 q 300 242 354 242 q 228 222 257 242 q 199 158 199 201 m 349 -242 q 283 -218 308 -242 q 258 -158 258 -194 q 283 -98 258 -121 q 349 -75 308 -75 q 415 -98 390 -75 q 439 -161 439 -121 q 414 -219 439 -196 q 349 -242 389 -242 m 321 642 q 181 688 232 642 q 124 818 129 733 l 235 818 q 321 735 247 735 q 379 756 357 735 q 407 818 401 778 l 518 818 q 459 688 510 733 q 321 642 408 643 z "},"ằ":{"ha":657,"x_min":47,"x_max":639,"o":"m 639 104 l 639 0 l 425 0 l 413 50 q 232 -15 332 -15 q 98 30 149 -15 q 47 147 47 75 q 109 278 47 236 q 267 319 171 319 q 400 301 336 319 l 400 340 q 371 424 400 396 q 286 453 342 453 q 101 404 203 453 l 61 503 q 187 551 119 535 q 318 567 254 567 q 500 509 435 567 q 565 351 565 451 l 565 104 l 639 104 m 199 158 q 222 101 199 122 q 283 79 244 79 q 400 122 346 79 l 400 226 q 300 242 354 242 q 228 222 257 242 q 199 158 199 201 m 167 1000 l 314 1000 l 374 829 l 286 829 l 167 1000 m 317 639 q 181 681 231 639 q 124 801 131 724 l 228 801 q 321 722 240 722 q 385 742 361 722 q 414 801 408 763 l 518 801 q 458 681 510 722 q 317 639 407 639 z "},"ẳ":{"ha":657,"x_min":47,"x_max":639,"o":"m 639 104 l 639 0 l 425 0 l 413 50 q 232 -15 332 -15 q 98 30 149 -15 q 47 147 47 75 q 109 278 47 236 q 267 319 171 319 q 400 301 336 319 l 400 340 q 371 424 400 396 q 286 453 342 453 q 101 404 203 453 l 61 503 q 187 551 119 535 q 318 567 254 567 q 500 509 435 567 q 565 351 565 451 l 565 104 l 639 104 m 199 158 q 222 101 199 122 q 283 79 244 79 q 400 122 346 79 l 400 226 q 300 242 354 242 q 228 222 257 242 q 199 158 199 201 m 292 864 q 326 885 314 874 q 338 915 338 897 q 323 944 338 933 q 283 954 308 954 q 211 932 249 954 l 189 997 q 306 1036 243 1036 q 396 1007 361 1036 q 431 931 431 978 q 311 803 431 833 l 292 864 m 317 639 q 181 681 231 639 q 124 801 131 724 l 228 801 q 321 722 240 722 q 385 742 361 722 q 414 801 408 763 l 518 801 q 458 681 510 722 q 317 639 407 639 z "},"ẵ":{"ha":657,"x_min":47,"x_max":639,"o":"m 639 104 l 639 0 l 425 0 l 413 50 q 232 -15 332 -15 q 98 30 149 -15 q 47 147 47 75 q 109 278 47 236 q 267 319 171 319 q 400 301 336 319 l 400 340 q 371 424 400 396 q 286 453 342 453 q 101 404 203 453 l 61 503 q 187 551 119 535 q 318 567 254 567 q 500 509 435 567 q 565 351 565 451 l 565 104 l 639 104 m 199 158 q 222 101 199 122 q 283 79 244 79 q 400 122 346 79 l 400 226 q 300 242 354 242 q 228 222 257 242 q 199 158 199 201 m 419 857 q 364 866 392 857 q 299 892 336 875 q 266 905 294 893 q 218 917 238 917 q 167 864 172 917 l 89 864 q 133 984 96 946 q 226 1022 169 1022 q 272 1015 250 1022 q 335 990 294 1007 q 422 964 393 964 q 459 976 446 964 q 478 1017 472 989 l 553 1017 q 513 897 547 938 q 419 857 478 857 m 317 639 q 181 681 231 639 q 124 801 131 724 l 228 801 q 321 722 240 722 q 385 742 361 722 q 414 801 408 763 l 518 801 q 458 681 510 722 q 317 639 407 639 z "},"ǎ":{"ha":657,"x_min":47,"x_max":639,"o":"m 639 104 l 639 0 l 425 0 l 413 50 q 232 -15 332 -15 q 98 30 149 -15 q 47 147 47 75 q 109 278 47 236 q 267 319 171 319 q 400 301 336 319 l 400 340 q 371 424 400 396 q 286 453 342 453 q 101 404 203 453 l 61 503 q 187 551 119 535 q 318 567 254 567 q 500 509 435 567 q 565 351 565 451 l 565 104 l 639 104 m 199 158 q 222 101 199 122 q 283 79 244 79 q 400 122 346 79 l 400 226 q 300 242 354 242 q 228 222 257 242 q 199 158 199 201 m 126 864 l 240 864 l 325 710 l 408 864 l 514 864 l 414 633 l 236 633 l 126 864 z "},"â":{"ha":657,"x_min":47,"x_max":639,"o":"m 639 104 l 639 0 l 425 0 l 413 50 q 232 -15 332 -15 q 98 30 149 -15 q 47 147 47 75 q 109 278 47 236 q 267 319 171 319 q 400 301 336 319 l 400 340 q 371 424 400 396 q 286 453 342 453 q 101 404 203 453 l 61 503 q 187 551 119 535 q 318 567 254 567 q 500 509 435 567 q 565 351 565 451 l 565 104 l 639 104 m 199 158 q 222 101 199 122 q 283 79 244 79 q 400 122 346 79 l 400 226 q 300 242 354 242 q 228 222 257 242 q 199 158 199 201 m 235 868 l 408 868 l 525 635 l 414 635 l 321 799 l 228 635 l 117 635 l 235 868 z "},"ấ":{"ha":657,"x_min":47,"x_max":675,"o":"m 639 104 l 639 0 l 425 0 l 413 50 q 232 -15 332 -15 q 98 30 149 -15 q 47 147 47 75 q 109 278 47 236 q 267 319 171 319 q 400 301 336 319 l 400 340 q 371 424 400 396 q 286 453 342 453 q 101 404 203 453 l 61 503 q 187 551 119 535 q 318 567 254 567 q 500 509 435 567 q 565 351 565 451 l 565 104 l 639 104 m 199 158 q 222 101 199 122 q 283 79 244 79 q 400 122 346 79 l 400 226 q 300 242 354 242 q 228 222 257 242 q 199 158 199 201 m 543 940 l 675 940 l 568 763 l 483 763 l 543 940 m 242 819 l 401 819 l 518 635 l 408 635 l 321 750 l 233 635 l 124 635 l 242 819 z "},"ậ":{"ha":657,"x_min":47,"x_max":639,"o":"m 639 104 l 639 0 l 425 0 l 413 50 q 232 -15 332 -15 q 98 30 149 -15 q 47 147 47 75 q 109 278 47 236 q 267 319 171 319 q 400 301 336 319 l 400 340 q 371 424 400 396 q 286 453 342 453 q 101 404 203 453 l 61 503 q 187 551 119 535 q 318 567 254 567 q 500 509 435 567 q 565 351 565 451 l 565 104 l 639 104 m 199 158 q 222 101 199 122 q 283 79 244 79 q 400 122 346 79 l 400 226 q 300 242 354 242 q 228 222 257 242 q 199 158 199 201 m 349 -242 q 283 -218 308 -242 q 258 -158 258 -194 q 283 -98 258 -121 q 349 -75 308 -75 q 415 -98 390 -75 q 439 -161 439 -121 q 414 -219 439 -196 q 349 -242 389 -242 m 235 868 l 408 868 l 525 635 l 414 635 l 321 799 l 228 635 l 117 635 l 235 868 z "},"ầ":{"ha":657,"x_min":47,"x_max":639,"o":"m 639 104 l 639 0 l 425 0 l 413 50 q 232 -15 332 -15 q 98 30 149 -15 q 47 147 47 75 q 109 278 47 236 q 267 319 171 319 q 400 301 336 319 l 400 340 q 371 424 400 396 q 286 453 342 453 q 101 404 203 453 l 61 503 q 187 551 119 535 q 318 567 254 567 q 500 509 435 567 q 565 351 565 451 l 565 104 l 639 104 m 199 158 q 222 101 199 122 q 283 79 244 79 q 400 122 346 79 l 400 226 q 300 242 354 242 q 228 222 257 242 q 199 158 199 201 m 519 763 l 414 940 l 546 940 l 606 763 l 519 763 m 242 819 l 401 819 l 518 635 l 408 635 l 321 750 l 233 635 l 124 635 l 242 819 z "},"ẩ":{"ha":657,"x_min":47,"x_max":639,"o":"m 639 104 l 639 0 l 425 0 l 413 50 q 232 -15 332 -15 q 98 30 149 -15 q 47 147 47 75 q 109 278 47 236 q 267 319 171 319 q 400 301 336 319 l 400 340 q 371 424 400 396 q 286 453 342 453 q 101 404 203 453 l 61 503 q 187 551 119 535 q 318 567 254 567 q 500 509 435 567 q 565 351 565 451 l 565 104 l 639 104 m 199 158 q 222 101 199 122 q 283 79 244 79 q 400 122 346 79 l 400 226 q 300 242 354 242 q 228 222 257 242 q 199 158 199 201 m 479 804 q 525 857 525 822 q 510 888 525 876 q 472 899 496 899 q 400 876 436 899 l 378 942 q 493 981 432 981 q 585 950 550 981 q 619 871 619 919 q 588 790 619 822 q 499 743 557 758 l 479 804 m 242 819 l 401 819 l 518 635 l 408 635 l 321 750 l 233 635 l 124 635 l 242 819 z "},"ẫ":{"ha":657,"x_min":47,"x_max":639,"o":"m 639 104 l 639 0 l 425 0 l 413 50 q 232 -15 332 -15 q 98 30 149 -15 q 47 147 47 75 q 109 278 47 236 q 267 319 171 319 q 400 301 336 319 l 400 340 q 371 424 400 396 q 286 453 342 453 q 101 404 203 453 l 61 503 q 187 551 119 535 q 318 567 254 567 q 500 509 435 567 q 565 351 565 451 l 565 104 l 639 104 m 199 158 q 222 101 199 122 q 283 79 244 79 q 400 122 346 79 l 400 226 q 300 242 354 242 q 228 222 257 242 q 199 158 199 201 m 419 868 q 369 876 394 868 q 313 899 344 885 q 269 916 292 908 q 231 924 247 924 q 196 911 208 924 q 179 871 183 899 l 103 871 q 142 988 108 950 q 226 1026 175 1026 q 272 1019 249 1026 q 328 996 296 1011 q 371 978 349 986 q 408 971 393 971 q 447 983 433 971 q 465 1021 460 994 l 540 1021 q 419 868 528 868 m 242 819 l 401 819 l 518 635 l 408 635 l 321 750 l 233 635 l 124 635 l 242 819 z "},"ȁ":{"ha":657,"x_min":8,"x_max":639,"o":"m 639 104 l 639 0 l 425 0 l 413 50 q 232 -15 332 -15 q 98 30 149 -15 q 47 147 47 75 q 109 278 47 236 q 267 319 171 319 q 400 301 336 319 l 400 340 q 371 424 400 396 q 286 453 342 453 q 101 404 203 453 l 61 503 q 187 551 119 535 q 318 567 254 567 q 500 509 435 567 q 565 351 565 451 l 565 104 l 639 104 m 199 158 q 222 101 199 122 q 283 79 244 79 q 400 122 346 79 l 400 226 q 300 242 354 242 q 228 222 257 242 q 199 158 199 201 m 8 882 l 172 882 l 242 651 l 143 651 l 8 882 m 249 882 l 413 882 l 481 651 l 382 651 l 249 882 z "},"ä":{"ha":657,"x_min":47,"x_max":639,"o":"m 639 104 l 639 0 l 425 0 l 413 50 q 232 -15 332 -15 q 98 30 149 -15 q 47 147 47 75 q 109 278 47 236 q 267 319 171 319 q 400 301 336 319 l 400 340 q 371 424 400 396 q 286 453 342 453 q 101 404 203 453 l 61 503 q 187 551 119 535 q 318 567 254 567 q 500 509 435 567 q 565 351 565 451 l 565 104 l 639 104 m 199 158 q 222 101 199 122 q 283 79 244 79 q 400 122 346 79 l 400 226 q 300 242 354 242 q 228 222 257 242 q 199 158 199 201 m 164 653 q 97 676 124 653 q 71 742 71 700 q 97 806 71 782 q 164 831 124 831 q 229 806 203 831 q 256 742 256 782 q 229 676 256 700 q 164 653 203 653 m 478 653 q 413 676 439 653 q 386 742 386 700 q 413 806 386 782 q 478 831 439 831 q 544 806 518 831 q 571 742 571 782 q 544 676 571 700 q 478 653 518 653 z "},"ȧ":{"ha":657,"x_min":47,"x_max":639,"o":"m 639 104 l 639 0 l 425 0 l 413 50 q 232 -15 332 -15 q 98 30 149 -15 q 47 147 47 75 q 109 278 47 236 q 267 319 171 319 q 400 301 336 319 l 400 340 q 371 424 400 396 q 286 453 342 453 q 101 404 203 453 l 61 503 q 187 551 119 535 q 318 567 254 567 q 500 509 435 567 q 565 351 565 451 l 565 104 l 639 104 m 199 158 q 222 101 199 122 q 283 79 244 79 q 400 122 346 79 l 400 226 q 300 242 354 242 q 228 222 257 242 q 199 158 199 201 m 321 656 q 251 682 278 656 q 224 749 224 708 q 251 815 224 789 q 321 840 278 840 q 392 815 365 840 q 418 746 418 789 q 391 681 418 706 q 321 656 364 656 z "},"ạ":{"ha":657,"x_min":47,"x_max":639,"o":"m 639 104 l 639 0 l 425 0 l 413 50 q 232 -15 332 -15 q 98 30 149 -15 q 47 147 47 75 q 109 278 47 236 q 267 319 171 319 q 400 301 336 319 l 400 340 q 371 424 400 396 q 286 453 342 453 q 101 404 203 453 l 61 503 q 187 551 119 535 q 318 567 254 567 q 500 509 435 567 q 565 351 565 451 l 565 104 l 639 104 m 199 158 q 222 101 199 122 q 283 79 244 79 q 400 122 346 79 l 400 226 q 300 242 354 242 q 228 222 257 242 q 199 158 199 201 m 349 -242 q 283 -218 308 -242 q 258 -158 258 -194 q 283 -98 258 -121 q 349 -75 308 -75 q 415 -98 390 -75 q 439 -161 439 -121 q 414 -219 439 -196 q 349 -242 389 -242 z "},"à":{"ha":657,"x_min":47,"x_max":639,"o":"m 639 104 l 639 0 l 425 0 l 413 50 q 232 -15 332 -15 q 98 30 149 -15 q 47 147 47 75 q 109 278 47 236 q 267 319 171 319 q 400 301 336 319 l 400 340 q 371 424 400 396 q 286 453 342 453 q 101 404 203 453 l 61 503 q 187 551 119 535 q 318 567 254 567 q 500 509 435 567 q 565 351 565 451 l 565 104 l 639 104 m 199 158 q 222 101 199 122 q 283 79 244 79 q 400 122 346 79 l 400 226 q 300 242 354 242 q 228 222 257 242 q 199 158 199 201 m 139 876 l 303 876 l 368 651 l 269 651 l 139 876 z "},"ả":{"ha":657,"x_min":47,"x_max":639,"o":"m 639 104 l 639 0 l 425 0 l 413 50 q 232 -15 332 -15 q 98 30 149 -15 q 47 147 47 75 q 109 278 47 236 q 267 319 171 319 q 400 301 336 319 l 400 340 q 371 424 400 396 q 286 453 342 453 q 101 404 203 453 l 61 503 q 187 551 119 535 q 318 567 254 567 q 500 509 435 567 q 565 351 565 451 l 565 104 l 639 104 m 199 158 q 222 101 199 122 q 283 79 244 79 q 400 122 346 79 l 400 226 q 300 242 354 242 q 228 222 257 242 q 199 158 199 201 m 296 674 q 342 726 342 692 q 327 757 342 746 q 289 768 313 768 q 217 746 253 768 l 194 811 q 310 850 249 850 q 401 819 367 850 q 436 740 436 789 q 405 660 436 692 q 315 613 374 628 l 296 674 z "},"ȃ":{"ha":657,"x_min":47,"x_max":639,"o":"m 639 104 l 639 0 l 425 0 l 413 50 q 232 -15 332 -15 q 98 30 149 -15 q 47 147 47 75 q 109 278 47 236 q 267 319 171 319 q 400 301 336 319 l 400 340 q 371 424 400 396 q 286 453 342 453 q 101 404 203 453 l 61 503 q 187 551 119 535 q 318 567 254 567 q 500 509 435 567 q 565 351 565 451 l 565 104 l 639 104 m 199 158 q 222 101 199 122 q 283 79 244 79 q 400 122 346 79 l 400 226 q 300 242 354 242 q 228 222 257 242 q 199 158 199 201 m 125 622 q 182 763 131 714 q 321 813 233 813 q 458 763 407 813 q 515 622 510 713 l 407 622 q 321 703 394 703 q 262 682 285 703 q 233 622 239 661 l 125 622 z "},"ā":{"ha":657,"x_min":47,"x_max":639,"o":"m 639 104 l 639 0 l 425 0 l 413 50 q 232 -15 332 -15 q 98 30 149 -15 q 47 147 47 75 q 109 278 47 236 q 267 319 171 319 q 400 301 336 319 l 400 340 q 371 424 400 396 q 286 453 342 453 q 101 404 203 453 l 61 503 q 187 551 119 535 q 318 567 254 567 q 500 509 435 567 q 565 351 565 451 l 565 104 l 639 104 m 199 158 q 222 101 199 122 q 283 79 244 79 q 400 122 346 79 l 400 226 q 300 242 354 242 q 228 222 257 242 q 199 158 199 201 m 153 746 l 489 746 l 489 653 l 153 653 l 153 746 z "},"ą":{"ha":657,"x_min":47,"x_max":656,"o":"m 597 -169 q 656 -156 628 -169 l 656 -231 q 556 -257 603 -257 q 468 -226 501 -257 q 435 -146 435 -194 q 519 0 435 -74 l 425 0 l 413 50 q 232 -15 332 -15 q 98 30 149 -15 q 47 147 47 75 q 109 278 47 236 q 267 319 171 319 q 400 301 336 319 l 400 340 q 371 424 400 396 q 286 453 342 453 q 101 404 203 453 l 61 503 q 187 551 119 535 q 318 567 254 567 q 500 509 435 567 q 565 351 565 451 l 565 104 l 639 104 l 639 0 l 588 0 q 542 -60 557 -33 q 526 -111 526 -86 q 546 -153 526 -137 q 597 -169 565 -169 m 199 158 q 222 101 199 122 q 283 79 244 79 q 400 122 346 79 l 400 226 q 300 242 354 242 q 228 222 257 242 q 199 158 199 201 z "},"å":{"ha":657,"x_min":47,"x_max":639,"o":"m 639 104 l 639 0 l 425 0 l 413 50 q 232 -15 332 -15 q 98 30 149 -15 q 47 147 47 75 q 109 278 47 236 q 267 319 171 319 q 400 301 336 319 l 400 340 q 371 424 400 396 q 286 453 342 453 q 101 404 203 453 l 61 503 q 187 551 119 535 q 318 567 254 567 q 500 509 435 567 q 565 351 565 451 l 565 104 l 639 104 m 199 158 q 222 101 199 122 q 283 79 244 79 q 400 122 346 79 l 400 226 q 300 242 354 242 q 228 222 257 242 q 199 158 199 201 m 324 618 q 232 650 265 618 q 199 735 199 682 q 231 820 199 789 q 321 851 263 851 q 410 820 378 851 q 443 735 443 789 q 411 651 443 683 q 324 618 379 618 m 321 674 q 366 690 350 674 q 382 735 382 707 q 366 781 382 764 q 321 797 350 797 q 275 780 292 797 q 258 735 258 763 q 275 690 258 707 q 321 674 292 674 z "},"ǻ":{"ha":657,"x_min":47,"x_max":639,"o":"m 639 104 l 639 0 l 425 0 l 413 50 q 232 -15 332 -15 q 98 30 149 -15 q 47 147 47 75 q 109 278 47 236 q 267 319 171 319 q 400 301 336 319 l 400 340 q 371 424 400 396 q 286 453 342 453 q 101 404 203 453 l 61 503 q 187 551 119 535 q 318 567 254 567 q 500 509 435 567 q 565 351 565 451 l 565 104 l 639 104 m 199 158 q 222 101 199 122 q 283 79 244 79 q 400 122 346 79 l 400 226 q 300 242 354 242 q 228 222 257 242 q 199 158 199 201 m 324 618 q 232 650 265 618 q 199 735 199 682 q 231 820 199 789 q 321 851 263 851 q 410 820 378 851 q 443 735 443 789 q 411 651 443 683 q 324 618 379 618 m 321 674 q 366 690 350 674 q 382 735 382 707 q 366 781 382 764 q 321 797 350 797 q 275 780 292 797 q 258 735 258 763 q 275 690 258 707 q 321 674 292 674 m 338 1131 l 501 1131 l 371 906 l 272 906 l 338 1131 z "},"ã":{"ha":657,"x_min":47,"x_max":639,"o":"m 639 104 l 639 0 l 425 0 l 413 50 q 232 -15 332 -15 q 98 30 149 -15 q 47 147 47 75 q 109 278 47 236 q 267 319 171 319 q 400 301 336 319 l 400 340 q 371 424 400 396 q 286 453 342 453 q 101 404 203 453 l 61 503 q 187 551 119 535 q 318 567 254 567 q 500 509 435 567 q 565 351 565 451 l 565 104 l 639 104 m 199 158 q 222 101 199 122 q 283 79 244 79 q 400 122 346 79 l 400 226 q 300 242 354 242 q 228 222 257 242 q 199 158 199 201 m 417 653 q 363 662 390 653 q 297 688 335 671 q 264 701 290 690 q 218 713 238 713 q 167 660 172 713 l 89 660 q 133 790 96 749 q 228 832 171 832 q 277 824 253 832 q 342 799 301 815 q 422 772 400 772 q 478 826 468 772 l 553 826 q 511 697 547 742 q 417 653 475 653 z "},"æ":{"ha":1008,"x_min":47,"x_max":974,"o":"m 247 -15 q 101 28 156 -15 q 47 147 47 72 q 115 277 47 236 q 286 318 182 318 l 400 318 l 400 343 q 370 425 400 397 q 286 453 340 453 q 101 404 203 453 l 61 503 q 186 551 121 535 q 314 567 251 567 q 506 499 440 567 q 704 567 585 567 q 901 488 829 567 q 974 282 974 410 l 974 247 l 567 247 q 622 147 578 183 q 733 111 667 111 q 833 130 786 111 q 918 182 881 149 l 968 81 q 858 10 922 36 q 718 -15 794 -15 q 478 76 565 -15 q 247 -15 374 -15 m 815 326 q 783 421 815 388 q 696 454 751 454 q 608 420 643 454 q 565 326 572 386 l 815 326 m 292 79 q 363 93 329 79 q 433 138 397 107 q 404 239 408 189 l 314 239 q 231 219 264 239 q 199 158 199 200 q 224 101 199 122 q 292 79 249 79 z "},"ǽ":{"ha":1008,"x_min":47,"x_max":974,"o":"m 247 -15 q 101 28 156 -15 q 47 147 47 72 q 115 277 47 236 q 286 318 182 318 l 400 318 l 400 343 q 370 425 400 397 q 286 453 340 453 q 101 404 203 453 l 61 503 q 186 551 121 535 q 314 567 251 567 q 506 499 440 567 q 704 567 585 567 q 901 488 829 567 q 974 282 974 410 l 974 247 l 567 247 q 622 147 578 183 q 733 111 667 111 q 833 130 786 111 q 918 182 881 149 l 968 81 q 858 10 922 36 q 718 -15 794 -15 q 478 76 565 -15 q 247 -15 374 -15 m 815 326 q 783 421 815 388 q 696 454 751 454 q 608 420 643 454 q 565 326 572 386 l 815 326 m 292 79 q 363 93 329 79 q 433 138 397 107 q 404 239 408 189 l 314 239 q 231 219 264 239 q 199 158 199 200 q 224 101 199 122 q 292 79 249 79 m 521 876 l 685 876 l 554 651 l 456 651 l 521 876 z "},"ǣ":{"ha":1008,"x_min":47,"x_max":974,"o":"m 247 -15 q 101 28 156 -15 q 47 147 47 72 q 115 277 47 236 q 286 318 182 318 l 400 318 l 400 343 q 370 425 400 397 q 286 453 340 453 q 101 404 203 453 l 61 503 q 186 551 121 535 q 314 567 251 567 q 506 499 440 567 q 704 567 585 567 q 901 488 829 567 q 974 282 974 410 l 974 247 l 567 247 q 622 147 578 183 q 733 111 667 111 q 833 130 786 111 q 918 182 881 149 l 968 81 q 858 10 922 36 q 718 -15 794 -15 q 478 76 565 -15 q 247 -15 374 -15 m 815 326 q 783 421 815 388 q 696 454 751 454 q 608 420 643 454 q 565 326 572 386 l 815 326 m 292 79 q 363 93 329 79 q 433 138 397 107 q 404 239 408 189 l 314 239 q 231 219 264 239 q 199 158 199 200 q 224 101 199 122 q 292 79 249 79 m 336 746 l 672 746 l 672 653 l 336 653 l 336 746 z "},"b":{"ha":736,"x_min":25,"x_max":707,"o":"m 451 567 q 637 490 567 567 q 707 283 707 414 q 672 126 707 193 q 576 22 638 58 q 439 -14 515 -14 q 268 42 340 -14 l 267 0 l 25 0 l 25 104 l 107 104 l 107 706 l 26 706 l 26 808 l 276 808 l 276 504 q 358 550 313 533 q 451 567 403 567 m 385 111 q 491 155 450 111 q 532 275 532 199 q 492 396 532 353 q 388 439 453 439 q 276 399 325 439 l 276 147 q 385 111 325 111 z "},"ḃ":{"ha":736,"x_min":25,"x_max":707,"o":"m 451 567 q 637 490 567 567 q 707 283 707 414 q 672 126 707 193 q 576 22 638 58 q 439 -14 515 -14 q 268 42 340 -14 l 267 0 l 25 0 l 25 104 l 107 104 l 107 706 l 26 706 l 26 808 l 250 808 q 226 872 226 835 q 253 938 226 913 q 324 964 281 964 q 394 938 368 964 q 421 869 421 913 q 394 804 421 829 q 324 779 367 779 q 276 789 301 779 l 276 504 q 358 550 313 533 q 451 567 403 567 m 385 111 q 491 155 450 111 q 532 275 532 199 q 492 396 532 353 q 388 439 453 439 q 276 399 325 439 l 276 147 q 385 111 325 111 z "},"c":{"ha":640,"x_min":29,"x_max":597,"o":"m 597 89 q 338 -14 497 -14 q 177 24 247 -14 q 68 128 107 61 q 29 282 29 196 q 66 431 29 365 q 166 531 103 496 q 308 567 229 567 q 471 504 415 567 l 471 554 l 589 554 l 589 336 l 481 336 q 438 421 472 390 q 344 451 403 451 q 233 407 275 451 q 190 289 190 363 q 238 161 190 210 q 363 113 285 113 q 462 133 418 113 q 544 189 506 153 l 597 89 z "},"ć":{"ha":640,"x_min":29,"x_max":597,"o":"m 597 89 q 338 -14 497 -14 q 177 24 247 -14 q 68 128 107 61 q 29 282 29 196 q 66 431 29 365 q 166 531 103 496 q 308 567 229 567 q 471 504 415 567 l 471 554 l 589 554 l 589 336 l 481 336 q 438 421 472 390 q 344 451 403 451 q 233 407 275 451 q 190 289 190 363 q 238 161 190 210 q 363 113 285 113 q 462 133 418 113 q 544 189 506 153 l 597 89 m 353 876 l 517 876 l 386 651 l 288 651 l 353 876 z "},"č":{"ha":640,"x_min":29,"x_max":597,"o":"m 597 89 q 338 -14 497 -14 q 177 24 247 -14 q 68 128 107 61 q 29 282 29 196 q 66 431 29 365 q 166 531 103 496 q 308 567 229 567 q 471 504 415 567 l 471 554 l 589 554 l 589 336 l 481 336 q 438 421 472 390 q 344 451 403 451 q 233 407 275 451 q 190 289 190 363 q 238 161 190 210 q 363 113 285 113 q 462 133 418 113 q 544 189 506 153 l 597 89 m 142 864 l 256 864 l 340 710 l 424 864 l 529 864 l 429 633 l 251 633 l 142 864 z "},"ç":{"ha":640,"x_min":29,"x_max":597,"o":"m 597 89 q 374 -12 510 0 l 356 -79 q 431 -112 406 -86 q 457 -175 457 -139 q 424 -244 457 -221 q 340 -268 390 -268 q 218 -236 278 -268 l 218 -187 q 296 -204 271 -204 q 333 -194 319 -204 q 347 -164 347 -185 q 267 -118 347 -122 l 308 -12 q 163 32 226 -7 q 65 135 100 71 q 29 282 29 200 q 66 431 29 365 q 166 531 103 496 q 308 567 229 567 q 471 504 415 567 l 471 554 l 589 554 l 589 336 l 481 336 q 438 421 472 390 q 344 451 403 451 q 233 407 275 451 q 190 289 190 363 q 238 161 190 210 q 363 113 285 113 q 462 133 418 113 q 544 189 506 153 l 597 89 z "},"ḉ":{"ha":640,"x_min":29,"x_max":597,"o":"m 386 651 l 288 651 l 353 876 l 517 876 l 386 651 m 597 89 q 374 -12 510 0 l 356 -79 q 431 -112 406 -86 q 457 -175 457 -139 q 424 -244 457 -221 q 340 -268 390 -268 q 218 -236 278 -268 l 218 -187 q 296 -204 271 -204 q 333 -194 319 -204 q 347 -164 347 -185 q 267 -118 347 -122 l 308 -12 q 163 32 226 -7 q 65 135 100 71 q 29 282 29 200 q 66 431 29 365 q 166 531 103 496 q 308 567 229 567 q 471 504 415 567 l 471 554 l 589 554 l 589 336 l 481 336 q 438 421 472 390 q 344 451 403 451 q 233 407 275 451 q 190 289 190 363 q 238 161 190 210 q 363 113 285 113 q 462 133 418 113 q 544 189 506 153 l 597 89 z "},"ĉ":{"ha":640,"x_min":29,"x_max":597,"o":"m 597 89 q 338 -14 497 -14 q 177 24 247 -14 q 68 128 107 61 q 29 282 29 196 q 66 431 29 365 q 166 531 103 496 q 308 567 229 567 q 471 504 415 567 l 471 554 l 589 554 l 589 336 l 481 336 q 438 421 472 390 q 344 451 403 451 q 233 407 275 451 q 190 289 190 363 q 238 161 190 210 q 363 113 285 113 q 462 133 418 113 q 544 189 506 153 l 597 89 m 250 868 l 424 868 l 540 635 l 429 635 l 336 799 l 243 635 l 132 635 l 250 868 z "},"ċ":{"ha":640,"x_min":29,"x_max":597,"o":"m 597 89 q 338 -14 497 -14 q 177 24 247 -14 q 68 128 107 61 q 29 282 29 196 q 66 431 29 365 q 166 531 103 496 q 308 567 229 567 q 471 504 415 567 l 471 554 l 589 554 l 589 336 l 481 336 q 438 421 472 390 q 344 451 403 451 q 233 407 275 451 q 190 289 190 363 q 238 161 190 210 q 363 113 285 113 q 462 133 418 113 q 544 189 506 153 l 597 89 m 336 656 q 266 682 293 656 q 239 749 239 708 q 266 815 239 789 q 336 840 293 840 q 407 815 381 840 q 433 746 433 789 q 406 681 433 706 q 336 656 379 656 z "},"d":{"ha":728,"x_min":31,"x_max":706,"o":"m 706 104 l 706 0 l 472 0 l 471 40 q 296 -15 393 -15 q 160 21 219 -15 q 65 123 100 57 q 31 278 31 189 q 65 431 31 365 q 158 531 99 496 q 290 567 217 567 q 463 508 390 567 l 463 706 l 372 706 l 372 808 l 631 808 l 631 104 l 706 104 m 206 272 q 247 155 206 199 q 353 111 288 111 q 463 144 411 111 l 463 400 q 347 440 410 440 q 244 397 283 440 q 206 272 206 353 z "},"ð":{"ha":676,"x_min":42,"x_max":636,"o":"m 426 717 q 636 282 636 504 q 599 125 636 192 q 493 22 561 58 q 336 -14 425 -14 q 120 62 199 -14 q 42 260 42 138 q 115 458 42 381 q 314 535 188 535 q 432 504 378 535 q 304 663 394 572 l 136 588 l 94 672 l 228 732 q 89 840 153 794 l 167 936 q 353 788 272 858 l 517 860 l 560 776 l 426 717 m 336 114 q 440 157 404 114 q 476 267 476 200 q 439 372 476 333 q 336 410 401 410 q 235 369 271 410 q 199 260 199 329 q 235 156 199 197 q 336 114 272 114 z "},"ď":{"ha":843,"x_min":31,"x_max":863,"o":"m 706 104 l 706 0 l 472 0 l 471 40 q 296 -15 393 -15 q 160 21 219 -15 q 65 123 100 57 q 31 278 31 189 q 65 431 31 365 q 158 531 99 496 q 290 567 217 567 q 463 508 390 567 l 463 706 l 372 706 l 372 808 l 631 808 l 631 104 l 706 104 m 206 272 q 247 155 206 199 q 353 111 288 111 q 463 144 411 111 l 463 400 q 347 440 410 440 q 244 397 283 440 q 206 272 206 353 m 690 553 q 756 582 735 558 q 776 657 776 606 l 690 657 l 690 810 l 863 810 l 863 675 q 822 540 863 586 q 690 493 782 493 l 690 553 z "},"đ":{"ha":750,"x_min":31,"x_max":704,"o":"m 631 638 l 631 110 l 704 110 l 704 0 l 472 0 l 471 40 q 296 -15 393 -15 q 160 21 219 -15 q 65 123 100 57 q 31 278 31 189 q 65 431 31 365 q 158 531 99 496 q 290 567 217 567 q 463 508 390 567 l 463 638 l 311 638 l 311 718 l 463 718 l 463 803 l 631 803 l 631 718 l 704 718 l 704 638 l 631 638 m 206 272 q 247 155 206 199 q 353 111 288 111 q 463 144 411 111 l 463 400 q 347 440 410 440 q 244 397 283 440 q 206 272 206 353 z "},"ḋ":{"ha":728,"x_min":31,"x_max":706,"o":"m 706 104 l 706 0 l 472 0 l 471 40 q 296 -15 393 -15 q 160 21 219 -15 q 65 123 100 57 q 31 278 31 189 q 65 431 31 365 q 158 531 99 496 q 290 567 217 567 q 463 508 390 567 l 463 706 l 372 706 l 372 808 l 631 808 l 631 104 l 706 104 m 206 272 q 247 155 206 199 q 353 111 288 111 q 463 144 411 111 l 463 400 q 347 440 410 440 q 244 397 283 440 q 206 272 206 353 m 547 911 q 477 938 504 911 q 450 1004 450 964 q 477 1070 450 1044 q 547 1096 504 1096 q 618 1070 592 1096 q 644 1001 644 1044 q 617 936 644 961 q 547 911 590 911 z "},"ḍ":{"ha":728,"x_min":31,"x_max":706,"o":"m 706 104 l 706 0 l 472 0 l 471 40 q 296 -15 393 -15 q 160 21 219 -15 q 65 123 100 57 q 31 278 31 189 q 65 431 31 365 q 158 531 99 496 q 290 567 217 567 q 463 508 390 567 l 463 706 l 372 706 l 372 808 l 631 808 l 631 104 l 706 104 m 206 272 q 247 155 206 199 q 353 111 288 111 q 463 144 411 111 l 463 400 q 347 440 410 440 q 244 397 283 440 q 206 272 206 353 m 381 -242 q 315 -218 340 -242 q 290 -158 290 -194 q 315 -98 290 -121 q 381 -75 340 -75 q 447 -98 422 -75 q 471 -161 471 -121 q 446 -219 471 -196 q 381 -242 421 -242 z "},"ḏ":{"ha":728,"x_min":31,"x_max":706,"o":"m 706 104 l 706 0 l 472 0 l 471 40 q 296 -15 393 -15 q 160 21 219 -15 q 65 123 100 57 q 31 278 31 189 q 65 431 31 365 q 158 531 99 496 q 290 567 217 567 q 463 508 390 567 l 463 706 l 372 706 l 372 808 l 631 808 l 631 104 l 706 104 m 206 272 q 247 155 206 199 q 353 111 288 111 q 463 144 411 111 l 463 400 q 347 440 410 440 q 244 397 283 440 q 206 272 206 353 m 213 -85 l 549 -85 l 549 -178 l 213 -178 l 213 -85 z "},"ǳ":{"ha":1351,"x_min":31,"x_max":1304,"o":"m 706 104 l 706 0 l 472 0 l 471 40 q 296 -15 393 -15 q 160 21 219 -15 q 65 123 100 57 q 31 278 31 189 q 65 431 31 365 q 158 531 99 496 q 290 567 217 567 q 463 508 390 567 l 463 706 l 372 706 l 372 808 l 631 808 l 631 104 l 706 104 m 206 272 q 247 155 206 199 q 353 111 288 111 q 463 144 411 111 l 463 400 q 347 440 410 440 q 244 397 283 440 q 206 272 206 353 m 781 90 l 1099 453 l 892 453 l 892 346 l 785 346 l 785 553 l 1294 553 l 1294 460 l 974 97 l 1197 97 l 1197 218 l 1304 218 l 1304 0 l 781 0 l 781 90 z "},"ǆ":{"ha":1351,"x_min":31,"x_max":1304,"o":"m 706 104 l 706 0 l 472 0 l 471 40 q 296 -15 393 -15 q 160 21 219 -15 q 65 123 100 57 q 31 278 31 189 q 65 431 31 365 q 158 531 99 496 q 290 567 217 567 q 463 508 390 567 l 463 706 l 372 706 l 372 808 l 631 808 l 631 104 l 706 104 m 206 272 q 247 155 206 199 q 353 111 288 111 q 463 144 411 111 l 463 400 q 347 440 410 440 q 244 397 283 440 q 206 272 206 353 m 781 90 l 1099 453 l 892 453 l 892 346 l 785 346 l 785 553 l 1294 553 l 1294 460 l 974 97 l 1197 97 l 1197 218 l 1304 218 l 1304 0 l 781 0 l 781 90 m 856 864 l 969 864 l 1054 710 l 1138 864 l 1243 864 l 1143 633 l 965 633 l 856 864 z "},"e":{"ha":636,"x_min":29,"x_max":601,"o":"m 601 247 l 192 247 q 248 147 203 182 q 361 111 293 111 q 546 182 464 111 l 594 81 q 485 10 549 36 q 344 -15 421 -15 q 116 63 203 -15 q 29 276 29 142 q 67 427 29 361 q 174 530 106 493 q 326 567 242 567 q 528 488 454 567 q 601 282 601 410 l 601 247 m 443 326 q 411 421 443 388 q 324 454 379 454 q 235 421 269 454 q 192 326 200 388 l 443 326 z "},"é":{"ha":636,"x_min":29,"x_max":601,"o":"m 601 247 l 192 247 q 248 147 203 182 q 361 111 293 111 q 546 182 464 111 l 594 81 q 485 10 549 36 q 344 -15 421 -15 q 116 63 203 -15 q 29 276 29 142 q 67 427 29 361 q 174 530 106 493 q 326 567 242 567 q 528 488 454 567 q 601 282 601 410 l 601 247 m 443 326 q 411 421 443 388 q 324 454 379 454 q 235 421 269 454 q 192 326 200 388 l 443 326 m 356 876 l 519 876 l 389 651 l 290 651 l 356 876 z "},"ĕ":{"ha":636,"x_min":29,"x_max":601,"o":"m 601 247 l 192 247 q 248 147 203 182 q 361 111 293 111 q 546 182 464 111 l 594 81 q 485 10 549 36 q 344 -15 421 -15 q 116 63 203 -15 q 29 276 29 142 q 67 427 29 361 q 174 530 106 493 q 326 567 242 567 q 528 488 454 567 q 601 282 601 410 l 601 247 m 443 326 q 411 421 443 388 q 324 454 379 454 q 235 421 269 454 q 192 326 200 388 l 443 326 m 339 642 q 199 688 250 642 q 142 818 147 733 l 253 818 q 339 735 265 735 q 397 756 375 735 q 425 818 419 778 l 536 818 q 477 688 528 733 q 339 642 426 643 z "},"ě":{"ha":636,"x_min":29,"x_max":601,"o":"m 601 247 l 192 247 q 248 147 203 182 q 361 111 293 111 q 546 182 464 111 l 594 81 q 485 10 549 36 q 344 -15 421 -15 q 116 63 203 -15 q 29 276 29 142 q 67 427 29 361 q 174 530 106 493 q 326 567 242 567 q 528 488 454 567 q 601 282 601 410 l 601 247 m 443 326 q 411 421 443 388 q 324 454 379 454 q 235 421 269 454 q 192 326 200 388 l 443 326 m 144 864 l 258 864 l 343 710 l 426 864 l 532 864 l 432 633 l 254 633 l 144 864 z "},"ȩ":{"ha":636,"x_min":29,"x_max":601,"o":"m 601 247 l 192 247 q 248 147 203 182 q 361 111 293 111 q 546 182 464 111 l 594 81 q 376 -14 506 -4 l 358 -79 q 434 -112 408 -86 q 460 -175 460 -139 q 426 -244 460 -221 q 343 -268 393 -268 q 221 -236 281 -268 l 221 -187 q 299 -204 274 -204 q 336 -194 322 -204 q 350 -164 350 -185 q 269 -118 350 -122 l 311 -14 q 106 73 183 -4 q 29 276 29 150 q 67 427 29 361 q 174 530 106 493 q 326 567 242 567 q 528 488 454 567 q 601 282 601 410 l 601 247 m 443 326 q 411 421 443 388 q 324 454 379 454 q 235 421 269 454 q 192 326 200 388 l 443 326 z "},"ḝ":{"ha":636,"x_min":29,"x_max":601,"o":"m 339 642 q 199 688 250 642 q 142 818 147 733 l 253 818 q 339 735 265 735 q 397 756 375 735 q 425 818 419 778 l 536 818 q 477 688 528 733 q 339 642 426 643 m 601 247 l 192 247 q 248 147 203 182 q 361 111 293 111 q 546 182 464 111 l 594 81 q 376 -14 506 -4 l 358 -79 q 434 -112 408 -86 q 460 -175 460 -139 q 426 -244 460 -221 q 343 -268 393 -268 q 221 -236 281 -268 l 221 -187 q 299 -204 274 -204 q 336 -194 322 -204 q 350 -164 350 -185 q 269 -118 350 -122 l 311 -14 q 106 73 183 -4 q 29 276 29 150 q 67 427 29 361 q 174 530 106 493 q 326 567 242 567 q 528 488 454 567 q 601 282 601 410 l 601 247 m 443 326 q 411 421 443 388 q 324 454 379 454 q 235 421 269 454 q 192 326 200 388 l 443 326 z "},"ê":{"ha":636,"x_min":29,"x_max":601,"o":"m 601 247 l 192 247 q 248 147 203 182 q 361 111 293 111 q 546 182 464 111 l 594 81 q 485 10 549 36 q 344 -15 421 -15 q 116 63 203 -15 q 29 276 29 142 q 67 427 29 361 q 174 530 106 493 q 326 567 242 567 q 528 488 454 567 q 601 282 601 410 l 601 247 m 443 326 q 411 421 443 388 q 324 454 379 454 q 235 421 269 454 q 192 326 200 388 l 443 326 m 253 868 l 426 868 l 543 635 l 432 635 l 339 799 l 246 635 l 135 635 l 253 868 z "},"ế":{"ha":636,"x_min":29,"x_max":693,"o":"m 601 247 l 192 247 q 248 147 203 182 q 361 111 293 111 q 546 182 464 111 l 594 81 q 485 10 549 36 q 344 -15 421 -15 q 116 63 203 -15 q 29 276 29 142 q 67 427 29 361 q 174 530 106 493 q 326 567 242 567 q 528 488 454 567 q 601 282 601 410 l 601 247 m 443 326 q 411 421 443 388 q 324 454 379 454 q 235 421 269 454 q 192 326 200 388 l 443 326 m 561 940 l 693 940 l 586 763 l 501 763 l 561 940 m 260 819 l 419 819 l 536 635 l 426 635 l 339 750 l 251 635 l 142 635 l 260 819 z "},"ệ":{"ha":636,"x_min":29,"x_max":601,"o":"m 601 247 l 192 247 q 248 147 203 182 q 361 111 293 111 q 546 182 464 111 l 594 81 q 485 10 549 36 q 344 -15 421 -15 q 116 63 203 -15 q 29 276 29 142 q 67 427 29 361 q 174 530 106 493 q 326 567 242 567 q 528 488 454 567 q 601 282 601 410 l 601 247 m 443 326 q 411 421 443 388 q 324 454 379 454 q 235 421 269 454 q 192 326 200 388 l 443 326 m 347 -242 q 282 -218 307 -242 q 257 -158 257 -194 q 282 -98 257 -121 q 347 -75 307 -75 q 413 -98 389 -75 q 438 -161 438 -121 q 413 -219 438 -196 q 347 -242 388 -242 m 253 868 l 426 868 l 543 635 l 432 635 l 339 799 l 246 635 l 135 635 l 253 868 z "},"ề":{"ha":636,"x_min":29,"x_max":624,"o":"m 601 247 l 192 247 q 248 147 203 182 q 361 111 293 111 q 546 182 464 111 l 594 81 q 485 10 549 36 q 344 -15 421 -15 q 116 63 203 -15 q 29 276 29 142 q 67 427 29 361 q 174 530 106 493 q 326 567 242 567 q 528 488 454 567 q 601 282 601 410 l 601 247 m 443 326 q 411 421 443 388 q 324 454 379 454 q 235 421 269 454 q 192 326 200 388 l 443 326 m 538 763 l 432 940 l 564 940 l 624 763 l 538 763 m 260 819 l 419 819 l 536 635 l 426 635 l 339 750 l 251 635 l 142 635 l 260 819 z "},"ể":{"ha":636,"x_min":29,"x_max":638,"o":"m 601 247 l 192 247 q 248 147 203 182 q 361 111 293 111 q 546 182 464 111 l 594 81 q 485 10 549 36 q 344 -15 421 -15 q 116 63 203 -15 q 29 276 29 142 q 67 427 29 361 q 174 530 106 493 q 326 567 242 567 q 528 488 454 567 q 601 282 601 410 l 601 247 m 443 326 q 411 421 443 388 q 324 454 379 454 q 235 421 269 454 q 192 326 200 388 l 443 326 m 497 804 q 543 857 543 822 q 528 888 543 876 q 490 899 514 899 q 418 876 454 899 l 396 942 q 511 981 450 981 q 603 950 568 981 q 638 871 638 919 q 606 790 638 822 q 517 743 575 758 l 497 804 m 260 819 l 419 819 l 536 635 l 426 635 l 339 750 l 251 635 l 142 635 l 260 819 z "},"ễ":{"ha":636,"x_min":29,"x_max":601,"o":"m 601 247 l 192 247 q 248 147 203 182 q 361 111 293 111 q 546 182 464 111 l 594 81 q 485 10 549 36 q 344 -15 421 -15 q 116 63 203 -15 q 29 276 29 142 q 67 427 29 361 q 174 530 106 493 q 326 567 242 567 q 528 488 454 567 q 601 282 601 410 l 601 247 m 443 326 q 411 421 443 388 q 324 454 379 454 q 235 421 269 454 q 192 326 200 388 l 443 326 m 438 868 q 388 876 413 868 q 331 899 363 885 q 288 916 310 908 q 249 924 265 924 q 214 911 226 924 q 197 871 201 899 l 121 871 q 160 988 126 950 q 244 1026 193 1026 q 290 1019 267 1026 q 346 996 314 1011 q 389 978 367 986 q 426 971 411 971 q 465 983 451 971 q 483 1021 478 994 l 558 1021 q 438 868 546 868 m 260 819 l 419 819 l 536 635 l 426 635 l 339 750 l 251 635 l 142 635 l 260 819 z "},"ȅ":{"ha":636,"x_min":26,"x_max":601,"o":"m 601 247 l 192 247 q 248 147 203 182 q 361 111 293 111 q 546 182 464 111 l 594 81 q 485 10 549 36 q 344 -15 421 -15 q 116 63 203 -15 q 29 276 29 142 q 67 427 29 361 q 174 530 106 493 q 326 567 242 567 q 528 488 454 567 q 601 282 601 410 l 601 247 m 443 326 q 411 421 443 388 q 324 454 379 454 q 235 421 269 454 q 192 326 200 388 l 443 326 m 26 882 l 190 882 l 260 651 l 161 651 l 26 882 m 267 882 l 431 882 l 499 651 l 400 651 l 267 882 z "},"ë":{"ha":636,"x_min":29,"x_max":601,"o":"m 601 247 l 192 247 q 248 147 203 182 q 361 111 293 111 q 546 182 464 111 l 594 81 q 485 10 549 36 q 344 -15 421 -15 q 116 63 203 -15 q 29 276 29 142 q 67 427 29 361 q 174 530 106 493 q 326 567 242 567 q 528 488 454 567 q 601 282 601 410 l 601 247 m 443 326 q 411 421 443 388 q 324 454 379 454 q 235 421 269 454 q 192 326 200 388 l 443 326 m 182 653 q 115 676 142 653 q 89 742 89 700 q 115 806 89 782 q 182 831 142 831 q 247 806 221 831 q 274 742 274 782 q 247 676 274 700 q 182 653 221 653 m 496 653 q 431 676 457 653 q 404 742 404 700 q 431 806 404 782 q 496 831 457 831 q 563 806 536 831 q 589 742 589 782 q 563 676 589 700 q 496 653 536 653 z "},"ė":{"ha":636,"x_min":29,"x_max":601,"o":"m 601 247 l 192 247 q 248 147 203 182 q 361 111 293 111 q 546 182 464 111 l 594 81 q 485 10 549 36 q 344 -15 421 -15 q 116 63 203 -15 q 29 276 29 142 q 67 427 29 361 q 174 530 106 493 q 326 567 242 567 q 528 488 454 567 q 601 282 601 410 l 601 247 m 443 326 q 411 421 443 388 q 324 454 379 454 q 235 421 269 454 q 192 326 200 388 l 443 326 m 339 656 q 269 682 296 656 q 242 749 242 708 q 269 815 242 789 q 339 840 296 840 q 410 815 383 840 q 436 746 436 789 q 409 681 436 706 q 339 656 382 656 z "},"ẹ":{"ha":636,"x_min":29,"x_max":601,"o":"m 601 247 l 192 247 q 248 147 203 182 q 361 111 293 111 q 546 182 464 111 l 594 81 q 485 10 549 36 q 344 -15 421 -15 q 116 63 203 -15 q 29 276 29 142 q 67 427 29 361 q 174 530 106 493 q 326 567 242 567 q 528 488 454 567 q 601 282 601 410 l 601 247 m 443 326 q 411 421 443 388 q 324 454 379 454 q 235 421 269 454 q 192 326 200 388 l 443 326 m 347 -242 q 282 -218 307 -242 q 257 -158 257 -194 q 282 -98 257 -121 q 347 -75 307 -75 q 413 -98 389 -75 q 438 -161 438 -121 q 413 -219 438 -196 q 347 -242 388 -242 z "},"è":{"ha":636,"x_min":29,"x_max":601,"o":"m 601 247 l 192 247 q 248 147 203 182 q 361 111 293 111 q 546 182 464 111 l 594 81 q 485 10 549 36 q 344 -15 421 -15 q 116 63 203 -15 q 29 276 29 142 q 67 427 29 361 q 174 530 106 493 q 326 567 242 567 q 528 488 454 567 q 601 282 601 410 l 601 247 m 443 326 q 411 421 443 388 q 324 454 379 454 q 235 421 269 454 q 192 326 200 388 l 443 326 m 157 876 l 321 876 l 386 651 l 288 651 l 157 876 z "},"ẻ":{"ha":636,"x_min":29,"x_max":601,"o":"m 601 247 l 192 247 q 248 147 203 182 q 361 111 293 111 q 546 182 464 111 l 594 81 q 485 10 549 36 q 344 -15 421 -15 q 116 63 203 -15 q 29 276 29 142 q 67 427 29 361 q 174 530 106 493 q 326 567 242 567 q 528 488 454 567 q 601 282 601 410 l 601 247 m 443 326 q 411 421 443 388 q 324 454 379 454 q 235 421 269 454 q 192 326 200 388 l 443 326 m 314 674 q 360 726 360 692 q 345 757 360 746 q 307 768 331 768 q 235 746 271 768 l 213 811 q 328 850 267 850 q 419 819 385 850 q 454 740 454 789 q 423 660 454 692 q 333 613 392 628 l 314 674 z "},"ȇ":{"ha":636,"x_min":29,"x_max":601,"o":"m 601 247 l 192 247 q 248 147 203 182 q 361 111 293 111 q 546 182 464 111 l 594 81 q 485 10 549 36 q 344 -15 421 -15 q 116 63 203 -15 q 29 276 29 142 q 67 427 29 361 q 174 530 106 493 q 326 567 242 567 q 528 488 454 567 q 601 282 601 410 l 601 247 m 443 326 q 411 421 443 388 q 324 454 379 454 q 235 421 269 454 q 192 326 200 388 l 443 326 m 143 622 q 200 763 149 714 q 339 813 251 813 q 476 763 425 813 q 533 622 528 713 l 425 622 q 339 703 413 703 q 280 682 303 703 q 251 622 257 661 l 143 622 z "},"ē":{"ha":636,"x_min":29,"x_max":601,"o":"m 601 247 l 192 247 q 248 147 203 182 q 361 111 293 111 q 546 182 464 111 l 594 81 q 485 10 549 36 q 344 -15 421 -15 q 116 63 203 -15 q 29 276 29 142 q 67 427 29 361 q 174 530 106 493 q 326 567 242 567 q 528 488 454 567 q 601 282 601 410 l 601 247 m 443 326 q 411 421 443 388 q 324 454 379 454 q 235 421 269 454 q 192 326 200 388 l 443 326 m 171 746 l 507 746 l 507 653 l 171 653 l 171 746 z "},"ḗ":{"ha":636,"x_min":29,"x_max":601,"o":"m 601 247 l 192 247 q 248 147 203 182 q 361 111 293 111 q 546 182 464 111 l 594 81 q 485 10 549 36 q 344 -15 421 -15 q 116 63 203 -15 q 29 276 29 142 q 67 427 29 361 q 174 530 106 493 q 326 567 242 567 q 528 488 454 567 q 601 282 601 410 l 601 247 m 443 326 q 411 421 443 388 q 324 454 379 454 q 235 421 269 454 q 192 326 200 388 l 443 326 m 171 746 l 507 746 l 507 653 l 171 653 l 171 746 m 356 1063 l 519 1063 l 389 838 l 290 838 l 356 1063 z "},"ḕ":{"ha":636,"x_min":29,"x_max":601,"o":"m 601 247 l 192 247 q 248 147 203 182 q 361 111 293 111 q 546 182 464 111 l 594 81 q 485 10 549 36 q 344 -15 421 -15 q 116 63 203 -15 q 29 276 29 142 q 67 427 29 361 q 174 530 106 493 q 326 567 242 567 q 528 488 454 567 q 601 282 601 410 l 601 247 m 443 326 q 411 421 443 388 q 324 454 379 454 q 235 421 269 454 q 192 326 200 388 l 443 326 m 171 746 l 507 746 l 507 653 l 171 653 l 171 746 m 157 1063 l 321 1063 l 386 838 l 288 838 l 157 1063 z "},"ę":{"ha":636,"x_min":29,"x_max":601,"o":"m 601 247 l 192 247 q 248 147 203 182 q 361 111 293 111 q 546 182 464 111 l 594 81 q 396 -12 513 3 q 360 -62 372 -40 q 349 -107 349 -85 q 368 -149 349 -133 q 419 -165 388 -165 q 478 -151 450 -165 l 478 -226 q 378 -253 425 -253 q 290 -222 324 -253 q 257 -142 257 -190 q 321 -15 257 -79 q 109 69 189 -8 q 29 276 29 147 q 67 427 29 361 q 174 530 106 493 q 326 567 242 567 q 528 488 454 567 q 601 282 601 410 l 601 247 m 443 326 q 411 421 443 388 q 324 454 379 454 q 235 421 269 454 q 192 326 200 388 l 443 326 z "},"ẽ":{"ha":636,"x_min":29,"x_max":601,"o":"m 601 247 l 192 247 q 248 147 203 182 q 361 111 293 111 q 546 182 464 111 l 594 81 q 485 10 549 36 q 344 -15 421 -15 q 116 63 203 -15 q 29 276 29 142 q 67 427 29 361 q 174 530 106 493 q 326 567 242 567 q 528 488 454 567 q 601 282 601 410 l 601 247 m 443 326 q 411 421 443 388 q 324 454 379 454 q 235 421 269 454 q 192 326 200 388 l 443 326 m 435 653 q 381 662 408 653 q 315 688 353 671 q 282 701 308 690 q 236 713 256 713 q 185 660 190 713 l 107 660 q 151 790 114 749 q 246 832 189 832 q 295 824 271 832 q 360 799 319 815 q 440 772 418 772 q 496 826 486 772 l 571 826 q 529 697 565 742 q 435 653 493 653 z "},"ə":{"ha":636,"x_min":35,"x_max":607,"o":"m 304 568 q 524 490 440 568 q 607 278 607 411 q 569 125 607 192 q 465 22 532 58 q 314 -15 399 -15 q 108 63 181 -15 q 35 271 35 140 l 35 306 l 443 306 q 390 406 433 371 q 282 440 347 440 q 179 422 228 440 q 90 371 131 403 l 42 472 q 158 541 90 514 q 304 568 226 568 m 319 97 q 403 131 371 97 q 443 225 435 164 l 193 225 q 227 131 193 165 q 319 97 261 97 z "},"f":{"ha":440,"x_min":36,"x_max":547,"o":"m 36 104 l 122 104 l 122 449 l 38 449 l 38 553 l 122 553 l 122 640 q 178 790 122 733 q 346 846 235 846 q 488 806 436 846 q 547 689 539 767 l 418 663 q 401 722 415 701 q 356 742 386 742 q 292 642 292 742 l 292 553 l 439 553 l 439 449 l 292 449 l 292 104 l 406 104 l 406 0 l 36 0 l 36 104 z "},"ḟ":{"ha":440,"x_min":36,"x_max":547,"o":"m 36 104 l 122 104 l 122 449 l 38 449 l 38 553 l 122 553 l 122 640 q 178 790 122 733 q 346 846 235 846 q 488 806 436 846 q 547 689 539 767 l 418 663 q 401 722 415 701 q 356 742 386 742 q 292 642 292 742 l 292 553 l 439 553 l 439 449 l 292 449 l 292 104 l 406 104 l 406 0 l 36 0 l 36 104 m 346 935 q 276 961 303 935 q 249 1028 249 988 q 276 1094 249 1068 q 346 1119 303 1119 q 417 1094 390 1119 q 443 1025 443 1068 q 416 960 443 985 q 346 935 389 935 z "},"g":{"ha":732,"x_min":35,"x_max":715,"o":"m 715 553 l 715 449 l 639 449 l 639 14 q 559 -196 639 -125 q 342 -267 479 -267 q 110 -226 233 -267 l 138 -117 q 317 -149 238 -149 q 431 -112 392 -149 q 471 -7 471 -76 l 471 46 q 304 -8 400 -8 q 109 69 183 -8 q 35 278 35 146 q 108 488 35 410 q 303 565 182 565 q 397 548 351 565 q 476 501 443 531 l 478 553 l 715 553 m 208 275 q 249 157 208 200 q 356 114 290 114 q 471 149 418 114 l 469 403 q 350 444 410 444 q 247 401 286 444 q 208 275 208 357 z "},"ǵ":{"ha":732,"x_min":35,"x_max":715,"o":"m 715 553 l 715 449 l 639 449 l 639 14 q 559 -196 639 -125 q 342 -267 479 -267 q 110 -226 233 -267 l 138 -117 q 317 -149 238 -149 q 431 -112 392 -149 q 471 -7 471 -76 l 471 46 q 304 -8 400 -8 q 109 69 183 -8 q 35 278 35 146 q 108 488 35 410 q 303 565 182 565 q 397 548 351 565 q 476 501 443 531 l 478 553 l 715 553 m 208 275 q 249 157 208 200 q 356 114 290 114 q 471 149 418 114 l 469 403 q 350 444 410 444 q 247 401 286 444 q 208 275 208 357 m 383 876 l 547 876 l 417 651 l 318 651 l 383 876 z "},"ğ":{"ha":732,"x_min":35,"x_max":715,"o":"m 715 553 l 715 449 l 639 449 l 639 14 q 559 -196 639 -125 q 342 -267 479 -267 q 110 -226 233 -267 l 138 -117 q 317 -149 238 -149 q 431 -112 392 -149 q 471 -7 471 -76 l 471 46 q 304 -8 400 -8 q 109 69 183 -8 q 35 278 35 146 q 108 488 35 410 q 303 565 182 565 q 397 548 351 565 q 476 501 443 531 l 478 553 l 715 553 m 208 275 q 249 157 208 200 q 356 114 290 114 q 471 149 418 114 l 469 403 q 350 444 410 444 q 247 401 286 444 q 208 275 208 357 m 367 642 q 226 688 278 642 q 169 818 175 733 l 281 818 q 367 735 293 735 q 425 756 403 735 q 453 818 447 778 l 564 818 q 505 688 556 733 q 367 642 454 643 z "},"ǧ":{"ha":732,"x_min":35,"x_max":715,"o":"m 715 553 l 715 449 l 639 449 l 639 14 q 559 -196 639 -125 q 342 -267 479 -267 q 110 -226 233 -267 l 138 -117 q 317 -149 238 -149 q 431 -112 392 -149 q 471 -7 471 -76 l 471 46 q 304 -8 400 -8 q 109 69 183 -8 q 35 278 35 146 q 108 488 35 410 q 303 565 182 565 q 397 548 351 565 q 476 501 443 531 l 478 553 l 715 553 m 208 275 q 249 157 208 200 q 356 114 290 114 q 471 149 418 114 l 469 403 q 350 444 410 444 q 247 401 286 444 q 208 275 208 357 m 172 864 l 286 864 l 371 710 l 454 864 l 560 864 l 460 633 l 282 633 l 172 864 z "},"ĝ":{"ha":732,"x_min":35,"x_max":715,"o":"m 715 553 l 715 449 l 639 449 l 639 14 q 559 -196 639 -125 q 342 -267 479 -267 q 110 -226 233 -267 l 138 -117 q 317 -149 238 -149 q 431 -112 392 -149 q 471 -7 471 -76 l 471 46 q 304 -8 400 -8 q 109 69 183 -8 q 35 278 35 146 q 108 488 35 410 q 303 565 182 565 q 397 548 351 565 q 476 501 443 531 l 478 553 l 715 553 m 208 275 q 249 157 208 200 q 356 114 290 114 q 471 149 418 114 l 469 403 q 350 444 410 444 q 247 401 286 444 q 208 275 208 357 m 281 868 l 454 868 l 571 635 l 460 635 l 367 799 l 274 635 l 163 635 l 281 868 z "},"ģ":{"ha":732,"x_min":35,"x_max":715,"o":"m 715 553 l 715 449 l 639 449 l 639 14 q 559 -196 639 -125 q 342 -267 479 -267 q 110 -226 233 -267 l 138 -117 q 317 -149 238 -149 q 431 -112 392 -149 q 471 -7 471 -76 l 471 46 q 304 -8 400 -8 q 109 69 183 -8 q 35 278 35 146 q 108 488 35 410 q 303 565 182 565 q 397 548 351 565 q 476 501 443 531 l 478 553 l 715 553 m 208 275 q 249 157 208 200 q 356 114 290 114 q 471 149 418 114 l 469 403 q 350 444 410 444 q 247 401 286 444 q 208 275 208 357 m 446 917 q 383 885 403 910 q 364 813 364 861 l 451 813 l 451 665 l 279 665 l 279 794 q 318 931 279 886 q 446 975 357 975 l 446 917 z "},"ġ":{"ha":732,"x_min":35,"x_max":715,"o":"m 715 553 l 715 449 l 639 449 l 639 14 q 559 -196 639 -125 q 342 -267 479 -267 q 110 -226 233 -267 l 138 -117 q 317 -149 238 -149 q 431 -112 392 -149 q 471 -7 471 -76 l 471 46 q 304 -8 400 -8 q 109 69 183 -8 q 35 278 35 146 q 108 488 35 410 q 303 565 182 565 q 397 548 351 565 q 476 501 443 531 l 478 553 l 715 553 m 208 275 q 249 157 208 200 q 356 114 290 114 q 471 149 418 114 l 469 403 q 350 444 410 444 q 247 401 286 444 q 208 275 208 357 m 367 656 q 297 682 324 656 q 269 749 269 708 q 297 815 269 789 q 367 840 324 840 q 438 815 411 840 q 464 746 464 789 q 437 681 464 706 q 367 656 410 656 z "},"ḡ":{"ha":732,"x_min":35,"x_max":715,"o":"m 715 553 l 715 449 l 639 449 l 639 14 q 559 -196 639 -125 q 342 -267 479 -267 q 110 -226 233 -267 l 138 -117 q 317 -149 238 -149 q 431 -112 392 -149 q 471 -7 471 -76 l 471 46 q 304 -8 400 -8 q 109 69 183 -8 q 35 278 35 146 q 108 488 35 410 q 303 565 182 565 q 397 548 351 565 q 476 501 443 531 l 478 553 l 715 553 m 208 275 q 249 157 208 200 q 356 114 290 114 q 471 149 418 114 l 469 403 q 350 444 410 444 q 247 401 286 444 q 208 275 208 357 m 199 746 l 535 746 l 535 653 l 199 653 l 199 746 z "},"h":{"ha":740,"x_min":15,"x_max":725,"o":"m 725 104 l 725 0 l 404 0 l 404 104 l 475 104 l 475 349 q 453 422 475 396 q 390 449 431 449 q 267 408 335 449 l 267 104 l 336 104 l 336 0 l 15 0 l 15 104 l 97 104 l 97 706 l 17 706 l 17 808 l 267 808 l 267 503 q 457 567 365 567 q 592 515 542 567 q 643 376 643 463 l 643 104 l 725 104 z "},"ħ":{"ha":740,"x_min":14,"x_max":725,"o":"m 725 104 l 725 0 l 404 0 l 404 104 l 475 104 l 475 349 q 453 422 475 396 q 390 449 431 449 q 267 408 335 449 l 267 104 l 336 104 l 336 0 l 15 0 l 15 104 l 97 104 l 97 706 l 17 706 l 17 808 l 267 808 l 267 503 q 457 567 365 567 q 592 515 542 567 q 643 376 643 463 l 643 104 l 725 104 m 14 1003 l 350 1003 l 350 910 l 14 910 l 14 1003 z "},"ḫ":{"ha":740,"x_min":15,"x_max":725,"o":"m 725 104 l 725 0 l 404 0 l 404 104 l 475 104 l 475 349 q 453 422 475 396 q 390 449 431 449 q 267 408 335 449 l 267 104 l 336 104 l 336 0 l 15 0 l 15 104 l 97 104 l 97 706 l 17 706 l 17 808 l 267 808 l 267 503 q 457 567 365 567 q 592 515 542 567 q 643 376 643 463 l 643 104 l 725 104 m 371 -251 q 231 -206 282 -251 q 174 -75 179 -160 l 285 -75 q 371 -158 297 -158 q 429 -137 407 -158 q 457 -75 451 -115 l 568 -75 q 509 -205 560 -160 q 371 -251 458 -250 z "},"ȟ":{"ha":740,"x_min":-12,"x_max":725,"o":"m 725 104 l 725 0 l 404 0 l 404 104 l 475 104 l 475 349 q 453 422 475 396 q 390 449 431 449 q 267 408 335 449 l 267 104 l 336 104 l 336 0 l 15 0 l 15 104 l 97 104 l 97 706 l 17 706 l 17 808 l 267 808 l 267 503 q 457 567 365 567 q 592 515 542 567 q 643 376 643 463 l 643 104 l 725 104 m -12 1121 l 101 1121 l 186 967 l 269 1121 l 375 1121 l 275 890 l 97 890 l -12 1121 z "},"ĥ":{"ha":740,"x_min":-22,"x_max":725,"o":"m 725 104 l 725 0 l 404 0 l 404 104 l 475 104 l 475 349 q 453 422 475 396 q 390 449 431 449 q 267 408 335 449 l 267 104 l 336 104 l 336 0 l 15 0 l 15 104 l 97 104 l 97 706 l 17 706 l 17 808 l 267 808 l 267 503 q 457 567 365 567 q 592 515 542 567 q 643 376 643 463 l 643 104 l 725 104 m 96 1125 l 269 1125 l 386 892 l 275 892 l 182 1056 l 89 892 l -22 892 l 96 1125 z "},"ḥ":{"ha":740,"x_min":15,"x_max":725,"o":"m 725 104 l 725 0 l 404 0 l 404 104 l 475 104 l 475 349 q 453 422 475 396 q 390 449 431 449 q 267 408 335 449 l 267 104 l 336 104 l 336 0 l 15 0 l 15 104 l 97 104 l 97 706 l 17 706 l 17 808 l 267 808 l 267 503 q 457 567 365 567 q 592 515 542 567 q 643 376 643 463 l 643 104 l 725 104 m 371 -242 q 306 -218 331 -242 q 281 -158 281 -194 q 306 -98 281 -121 q 371 -75 331 -75 q 437 -98 413 -75 q 461 -161 461 -121 q 436 -219 461 -196 q 371 -242 411 -242 z "},"i":{"ha":382,"x_min":25,"x_max":358,"o":"m 179 661 q 104 689 133 661 q 75 760 75 717 q 104 832 75 804 q 179 860 133 860 q 253 832 225 860 q 282 760 282 804 q 254 689 283 717 q 179 661 225 661 m 25 104 l 110 104 l 110 449 l 26 449 l 26 553 l 278 553 l 278 104 l 358 104 l 358 0 l 25 0 l 25 104 z "},"ı":{"ha":390,"x_min":25,"x_max":367,"o":"m 25 110 l 118 110 l 118 442 l 31 442 l 31 553 l 283 553 l 283 110 l 367 110 l 367 0 l 25 0 l 25 110 z "},"í":{"ha":390,"x_min":25,"x_max":375,"o":"m 25 110 l 118 110 l 118 442 l 31 442 l 31 553 l 283 553 l 283 110 l 367 110 l 367 0 l 25 0 l 25 110 m 211 875 l 375 875 l 244 650 l 146 650 l 211 875 z "},"ĭ":{"ha":390,"x_min":-3,"x_max":392,"o":"m 25 110 l 118 110 l 118 442 l 31 442 l 31 553 l 283 553 l 283 110 l 367 110 l 367 0 l 25 0 l 25 110 m 194 640 q 54 686 106 640 q -3 817 3 732 l 108 817 q 194 733 121 733 q 253 755 231 733 q 281 817 275 776 l 392 817 q 333 687 383 732 q 194 640 282 642 z "},"ǐ":{"ha":390,"x_min":0,"x_max":388,"o":"m 25 110 l 118 110 l 118 442 l 31 442 l 31 553 l 283 553 l 283 110 l 367 110 l 367 0 l 25 0 l 25 110 m 0 863 l 114 863 l 199 708 l 282 863 l 388 863 l 288 632 l 110 632 l 0 863 z "},"î":{"ha":390,"x_min":-10,"x_max":399,"o":"m 25 110 l 118 110 l 118 442 l 31 442 l 31 553 l 283 553 l 283 110 l 367 110 l 367 0 l 25 0 l 25 110 m 108 867 l 282 867 l 399 633 l 288 633 l 194 797 l 101 633 l -10 633 l 108 867 z "},"ȉ":{"ha":390,"x_min":-118,"x_max":367,"o":"m 25 110 l 118 110 l 118 442 l 31 442 l 31 553 l 283 553 l 283 110 l 367 110 l 367 0 l 25 0 l 25 110 m -118 881 l 46 881 l 115 650 l 17 650 l -118 881 m 122 881 l 286 881 l 354 650 l 256 650 l 122 881 z "},"ï":{"ha":390,"x_min":-56,"x_max":444,"o":"m 25 110 l 118 110 l 118 442 l 31 442 l 31 553 l 283 553 l 283 110 l 367 110 l 367 0 l 25 0 l 25 110 m 38 651 q -29 675 -3 651 q -56 740 -56 699 q -29 805 -56 781 q 38 829 -3 829 q 103 805 76 829 q 129 740 129 781 q 103 675 129 699 q 38 651 76 651 m 351 651 q 286 675 313 651 q 260 740 260 699 q 286 805 260 781 q 351 829 313 829 q 418 805 392 829 q 444 740 444 781 q 418 675 444 699 q 351 651 392 651 z "},"ḯ":{"ha":390,"x_min":-56,"x_max":444,"o":"m 25 110 l 118 110 l 118 442 l 31 442 l 31 553 l 283 553 l 283 110 l 367 110 l 367 0 l 25 0 l 25 110 m 38 651 q -29 675 -3 651 q -56 740 -56 699 q -29 805 -56 781 q 38 829 -3 829 q 103 805 76 829 q 129 740 129 781 q 103 675 129 699 q 38 651 76 651 m 351 651 q 286 675 313 651 q 260 740 260 699 q 286 805 260 781 q 351 829 313 829 q 418 805 392 829 q 444 740 444 781 q 418 675 444 699 q 351 651 392 651 m 211 1133 l 375 1133 l 244 908 l 146 908 l 211 1133 z "},"ị":{"ha":382,"x_min":25,"x_max":358,"o":"m 179 661 q 104 689 133 661 q 75 760 75 717 q 104 832 75 804 q 179 860 133 860 q 253 832 225 860 q 282 760 282 804 q 254 689 283 717 q 179 661 225 661 m 25 104 l 110 104 l 110 449 l 26 449 l 26 553 l 278 553 l 278 104 l 358 104 l 358 0 l 25 0 l 25 104 m 194 -242 q 129 -218 154 -242 q 104 -158 104 -194 q 129 -98 104 -121 q 194 -75 154 -75 q 260 -98 236 -75 q 285 -161 285 -121 q 260 -219 285 -196 q 194 -242 235 -242 z "},"ì":{"ha":390,"x_min":13,"x_max":367,"o":"m 25 110 l 118 110 l 118 442 l 31 442 l 31 553 l 283 553 l 283 110 l 367 110 l 367 0 l 25 0 l 25 110 m 13 875 l 176 875 l 242 650 l 143 650 l 13 875 z "},"ỉ":{"ha":390,"x_min":25,"x_max":367,"o":"m 25 110 l 118 110 l 118 442 l 31 442 l 31 553 l 283 553 l 283 110 l 367 110 l 367 0 l 25 0 l 25 110 m 169 672 q 215 725 215 690 q 201 756 215 744 q 163 767 186 767 q 90 744 126 767 l 68 810 q 183 849 122 849 q 275 818 240 849 q 310 739 310 788 q 278 658 310 690 q 189 611 247 626 l 169 672 z "},"ȋ":{"ha":390,"x_min":-1,"x_max":389,"o":"m 25 110 l 118 110 l 118 442 l 31 442 l 31 553 l 283 553 l 283 110 l 367 110 l 367 0 l 25 0 l 25 110 m -1 621 q 56 762 4 713 q 194 811 107 811 q 332 761 281 811 q 389 621 383 711 l 281 621 q 194 701 268 701 q 135 681 158 701 q 107 621 113 660 l -1 621 z "},"ĳ":{"ha":771,"x_min":25,"x_max":704,"o":"m 179 661 q 104 689 133 661 q 75 760 75 717 q 104 832 75 804 q 179 860 133 860 q 253 832 225 860 q 282 760 282 804 q 254 689 283 717 q 179 661 225 661 m 25 104 l 110 104 l 110 449 l 26 449 l 26 553 l 278 553 l 278 104 l 358 104 l 358 0 l 25 0 l 25 104 m 597 661 q 522 689 551 661 q 493 761 493 717 q 522 832 493 804 q 597 860 551 860 q 673 833 644 860 q 701 761 701 806 q 673 689 701 717 q 597 661 644 661 m 379 -96 l 435 -96 q 513 -71 492 -96 q 535 15 535 -46 l 535 442 l 428 442 l 428 553 l 704 553 l 704 40 q 644 -158 704 -94 q 447 -222 585 -222 l 379 -222 l 379 -96 z "},"ī":{"ha":390,"x_min":25,"x_max":367,"o":"m 25 110 l 118 110 l 118 442 l 31 442 l 31 553 l 283 553 l 283 110 l 367 110 l 367 0 l 25 0 l 25 110 m 26 744 l 363 744 l 363 651 l 26 651 l 26 744 z "},"į":{"ha":390,"x_min":25,"x_max":367,"o":"m 25 110 l 118 110 l 118 442 l 31 442 l 31 553 l 283 553 l 283 110 l 367 110 l 367 0 l 25 0 l 25 110 m 179 -257 q 92 -226 125 -257 q 58 -146 58 -194 q 143 0 58 -74 l 211 0 q 165 -60 181 -33 q 150 -111 150 -86 q 169 -153 150 -137 q 221 -169 189 -169 q 279 -156 251 -169 l 279 -231 q 179 -257 226 -257 m 194 654 q 124 681 151 654 q 97 747 97 707 q 124 813 97 788 q 194 839 151 839 q 265 813 239 839 q 292 744 292 788 q 265 679 292 704 q 194 654 238 654 z "},"ĩ":{"ha":390,"x_min":-37,"x_max":426,"o":"m 25 110 l 118 110 l 118 442 l 31 442 l 31 553 l 283 553 l 283 110 l 367 110 l 367 0 l 25 0 l 25 110 m 290 651 q 236 660 264 651 q 171 686 208 669 q 138 700 164 689 q 92 711 111 711 q 40 658 46 711 l -37 658 q 7 789 -31 747 q 101 831 44 831 q 151 822 126 831 q 215 797 175 814 q 296 771 274 771 q 351 825 342 771 l 426 825 q 385 696 421 740 q 290 651 349 651 z "},"j":{"ha":389,"x_min":-3,"x_max":322,"o":"m 215 661 q 140 689 169 661 q 111 761 111 717 q 140 832 111 804 q 215 860 169 860 q 291 833 263 860 q 319 761 319 806 q 291 689 319 717 q 215 661 263 661 m -3 -96 l 53 -96 q 131 -71 110 -96 q 153 15 153 -46 l 153 442 l 46 442 l 46 553 l 322 553 l 322 40 q 263 -158 322 -94 q 65 -222 203 -222 l -3 -222 l -3 -96 z "},"ȷ":{"ha":390,"x_min":-3,"x_max":324,"o":"m -3 -96 l 53 -96 q 131 -70 110 -96 q 153 18 153 -44 l 153 442 l 44 442 l 44 553 l 324 553 l 324 46 q 265 -157 324 -92 q 65 -222 207 -222 l -3 -222 l -3 -96 z "},"ǰ":{"ha":390,"x_min":-3,"x_max":399,"o":"m -3 -96 l 53 -96 q 131 -70 110 -96 q 153 18 153 -44 l 153 442 l 44 442 l 44 553 l 324 553 l 324 46 q 265 -157 324 -92 q 65 -222 207 -222 l -3 -222 l -3 -96 m 11 864 l 125 864 l 210 710 l 293 864 l 399 864 l 299 633 l 121 633 l 11 864 z "},"ĵ":{"ha":390,"x_min":-3,"x_max":410,"o":"m -3 -96 l 53 -96 q 131 -70 110 -96 q 153 18 153 -44 l 153 442 l 44 442 l 44 553 l 324 553 l 324 46 q 265 -157 324 -92 q 65 -222 207 -222 l -3 -222 l -3 -96 m 119 868 l 293 868 l 410 635 l 299 635 l 206 799 l 113 635 l 1 635 l 119 868 z "},"k":{"ha":725,"x_min":26,"x_max":706,"o":"m 26 104 l 110 104 l 110 706 l 28 706 l 28 808 l 276 808 l 276 294 l 478 449 l 394 449 l 394 553 l 701 553 l 701 449 l 635 449 l 443 297 l 628 104 l 706 104 l 706 0 l 524 0 l 276 271 l 276 104 l 353 104 l 353 0 l 26 0 l 26 104 z "},"ǩ":{"ha":725,"x_min":-1,"x_max":706,"o":"m 26 104 l 110 104 l 110 706 l 28 706 l 28 808 l 276 808 l 276 294 l 478 449 l 394 449 l 394 553 l 701 553 l 701 449 l 635 449 l 443 297 l 628 104 l 706 104 l 706 0 l 524 0 l 276 271 l 276 104 l 353 104 l 353 0 l 26 0 l 26 104 m -1 1119 l 113 1119 l 197 965 l 281 1119 l 386 1119 l 286 889 l 108 889 l -1 1119 z "},"ķ":{"ha":725,"x_min":26,"x_max":706,"o":"m 26 104 l 110 104 l 110 706 l 28 706 l 28 808 l 276 808 l 276 294 l 478 449 l 394 449 l 394 553 l 701 553 l 701 449 l 635 449 l 443 297 l 628 104 l 706 104 l 706 0 l 524 0 l 276 271 l 276 104 l 353 104 l 353 0 l 26 0 l 26 104 m 317 -326 q 379 -295 360 -319 q 399 -222 399 -271 l 311 -222 l 311 -75 l 483 -75 l 483 -204 q 444 -340 483 -296 q 317 -385 406 -385 l 317 -326 z "},"ĸ":{"ha":818,"x_min":75,"x_max":819,"o":"m 819 111 l 819 0 l 656 0 l 342 263 l 342 111 l 411 111 l 411 0 l 75 0 l 75 111 l 175 111 l 175 436 l 75 436 l 75 546 l 342 546 l 342 276 l 538 436 l 451 436 l 451 546 l 808 546 l 808 436 l 710 436 l 503 278 l 710 111 l 819 111 z "},"l":{"ha":375,"x_min":28,"x_max":353,"o":"m 28 104 l 110 104 l 110 706 l 29 706 l 29 808 l 276 808 l 276 104 l 353 104 l 353 0 l 28 0 l 28 104 z "},"ĺ":{"ha":375,"x_min":28,"x_max":374,"o":"m 28 104 l 110 104 l 110 706 l 29 706 l 29 808 l 276 808 l 276 104 l 353 104 l 353 0 l 28 0 l 28 104 m 210 1133 l 374 1133 l 243 908 l 144 908 l 210 1133 z "},"ľ":{"ha":519,"x_min":28,"x_max":508,"o":"m 28 104 l 110 104 l 110 706 l 29 706 l 29 808 l 276 808 l 276 104 l 353 104 l 353 0 l 28 0 l 28 104 m 336 553 q 401 582 381 558 q 422 657 422 606 l 336 657 l 336 810 l 508 810 l 508 675 q 468 540 508 586 q 336 493 428 493 l 336 553 z "},"ļ":{"ha":375,"x_min":28,"x_max":353,"o":"m 28 104 l 110 104 l 110 706 l 29 706 l 29 808 l 276 808 l 276 104 l 353 104 l 353 0 l 28 0 l 28 104 m 113 -326 q 175 -295 156 -319 q 194 -222 194 -271 l 107 -222 l 107 -75 l 279 -75 l 279 -204 q 240 -340 279 -296 q 113 -385 201 -385 l 113 -326 z "},"ŀ":{"ha":432,"x_min":28,"x_max":499,"o":"m 28 104 l 110 104 l 110 706 l 29 706 l 29 808 l 276 808 l 276 104 l 353 104 l 353 0 l 28 0 l 28 104 m 411 374 q 350 397 375 374 q 325 456 325 421 q 350 513 325 490 q 411 536 375 536 q 474 513 449 536 q 499 456 499 490 q 474 397 499 421 q 411 374 449 374 z "},"ḷ":{"ha":375,"x_min":28,"x_max":353,"o":"m 28 104 l 110 104 l 110 706 l 29 706 l 29 808 l 276 808 l 276 104 l 353 104 l 353 0 l 28 0 l 28 104 m 192 -242 q 126 -218 151 -242 q 101 -158 101 -194 q 126 -98 101 -121 q 192 -75 151 -75 q 258 -98 233 -75 q 282 -161 282 -121 q 257 -219 282 -196 q 192 -242 232 -242 z "},"ǉ":{"ha":764,"x_min":28,"x_max":697,"o":"m 28 104 l 110 104 l 110 706 l 29 706 l 29 808 l 276 808 l 276 104 l 353 104 l 353 0 l 28 0 l 28 104 m 590 661 q 515 689 544 661 q 486 761 486 717 q 515 832 486 804 q 590 860 544 860 q 666 833 638 860 q 694 761 694 806 q 666 689 694 717 q 590 661 638 661 m 372 -96 l 428 -96 q 506 -71 485 -96 q 528 15 528 -46 l 528 442 l 421 442 l 421 553 l 697 553 l 697 40 q 638 -158 697 -94 q 440 -222 578 -222 l 372 -222 l 372 -96 z "},"ḻ":{"ha":375,"x_min":24,"x_max":360,"o":"m 28 104 l 110 104 l 110 706 l 29 706 l 29 808 l 276 808 l 276 104 l 353 104 l 353 0 l 28 0 l 28 104 m 24 -85 l 360 -85 l 360 -178 l 24 -178 l 24 -85 z "},"ł":{"ha":372,"x_min":19,"x_max":385,"o":"m 276 397 l 276 104 l 353 104 l 353 0 l 28 0 l 28 104 l 110 104 l 110 308 l 19 260 l 19 388 l 110 438 l 110 706 l 29 706 l 29 808 l 276 808 l 276 528 l 385 588 l 385 456 l 276 397 z "},"m":{"ha":1118,"x_min":25,"x_max":1110,"o":"m 1110 104 l 1110 0 l 789 0 l 789 104 l 860 104 l 860 349 q 838 422 860 396 q 775 449 815 449 q 647 404 711 449 q 649 375 649 394 l 649 104 l 731 104 l 731 0 l 410 0 l 410 104 l 481 104 l 481 349 q 458 422 481 396 q 394 449 435 449 q 278 413 343 449 l 278 104 l 353 104 l 353 0 l 25 0 l 25 104 l 110 104 l 110 449 l 26 449 l 26 553 l 268 553 l 271 501 q 463 567 369 567 q 558 544 517 567 q 622 482 599 522 q 731 545 678 524 q 843 567 785 567 q 977 515 926 567 q 1028 376 1028 463 l 1028 104 l 1110 104 z "},"ṁ":{"ha":1118,"x_min":25,"x_max":1110,"o":"m 1110 104 l 1110 0 l 789 0 l 789 104 l 860 104 l 860 349 q 838 422 860 396 q 775 449 815 449 q 647 404 711 449 q 649 375 649 394 l 649 104 l 731 104 l 731 0 l 410 0 l 410 104 l 481 104 l 481 349 q 458 422 481 396 q 394 449 435 449 q 278 413 343 449 l 278 104 l 353 104 l 353 0 l 25 0 l 25 104 l 110 104 l 110 449 l 26 449 l 26 553 l 268 553 l 271 501 q 463 567 369 567 q 558 544 517 567 q 622 482 599 522 q 731 545 678 524 q 843 567 785 567 q 977 515 926 567 q 1028 376 1028 463 l 1028 104 l 1110 104 m 588 656 q 517 682 544 656 q 490 749 490 708 q 517 815 490 789 q 588 840 544 840 q 658 815 632 840 q 685 746 685 789 q 658 681 685 706 q 588 656 631 656 z "},"ṃ":{"ha":1118,"x_min":25,"x_max":1110,"o":"m 1110 104 l 1110 0 l 789 0 l 789 104 l 860 104 l 860 349 q 838 422 860 396 q 775 449 815 449 q 647 404 711 449 q 649 375 649 394 l 649 104 l 731 104 l 731 0 l 410 0 l 410 104 l 481 104 l 481 349 q 458 422 481 396 q 394 449 435 449 q 278 413 343 449 l 278 104 l 353 104 l 353 0 l 25 0 l 25 104 l 110 104 l 110 449 l 26 449 l 26 553 l 268 553 l 271 501 q 463 567 369 567 q 558 544 517 567 q 622 482 599 522 q 731 545 678 524 q 843 567 785 567 q 977 515 926 567 q 1028 376 1028 463 l 1028 104 l 1110 104 m 565 -242 q 500 -218 525 -242 q 475 -158 475 -194 q 500 -98 475 -121 q 565 -75 525 -75 q 631 -98 607 -75 q 656 -161 656 -121 q 631 -219 656 -196 q 565 -242 606 -242 z "},"n":{"ha":740,"x_min":25,"x_max":732,"o":"m 732 104 l 732 0 l 411 0 l 411 104 l 482 104 l 482 349 q 460 422 482 396 q 397 449 438 449 q 278 411 342 449 l 278 104 l 353 104 l 353 0 l 25 0 l 25 104 l 110 104 l 110 449 l 25 449 l 25 553 l 268 553 l 269 501 q 464 567 371 567 q 599 515 549 567 q 650 376 650 463 l 650 104 l 732 104 z "},"ń":{"ha":740,"x_min":25,"x_max":732,"o":"m 732 104 l 732 0 l 411 0 l 411 104 l 482 104 l 482 349 q 460 422 482 396 q 397 449 438 449 q 278 411 342 449 l 278 104 l 353 104 l 353 0 l 25 0 l 25 104 l 110 104 l 110 449 l 25 449 l 25 553 l 268 553 l 269 501 q 464 567 371 567 q 599 515 549 567 q 650 376 650 463 l 650 104 l 732 104 m 396 876 l 560 876 l 429 651 l 331 651 l 396 876 z "},"ŉ":{"ha":1067,"x_min":140,"x_max":1058,"o":"m 140 661 q 206 690 185 667 q 226 765 226 714 l 140 765 l 140 918 l 313 918 l 313 783 q 272 648 313 694 q 140 601 232 601 l 140 661 m 1058 104 l 1058 0 l 738 0 l 738 104 l 808 104 l 808 349 q 786 422 808 396 q 724 449 764 449 q 604 411 668 449 l 604 104 l 679 104 l 679 0 l 351 0 l 351 104 l 436 104 l 436 449 l 351 449 l 351 553 l 594 553 l 596 501 q 790 567 697 567 q 926 515 875 567 q 976 376 976 463 l 976 104 l 1058 104 z "},"ň":{"ha":740,"x_min":25,"x_max":732,"o":"m 732 104 l 732 0 l 411 0 l 411 104 l 482 104 l 482 349 q 460 422 482 396 q 397 449 438 449 q 278 411 342 449 l 278 104 l 353 104 l 353 0 l 25 0 l 25 104 l 110 104 l 110 449 l 25 449 l 25 553 l 268 553 l 269 501 q 464 567 371 567 q 599 515 549 567 q 650 376 650 463 l 650 104 l 732 104 m 185 864 l 299 864 l 383 710 l 467 864 l 572 864 l 472 633 l 294 633 l 185 864 z "},"ņ":{"ha":740,"x_min":25,"x_max":732,"o":"m 732 104 l 732 0 l 411 0 l 411 104 l 482 104 l 482 349 q 460 422 482 396 q 397 449 438 449 q 278 411 342 449 l 278 104 l 353 104 l 353 0 l 25 0 l 25 104 l 110 104 l 110 449 l 25 449 l 25 553 l 268 553 l 269 501 q 464 567 371 567 q 599 515 549 567 q 650 376 650 463 l 650 104 l 732 104 m 308 -326 q 371 -295 351 -319 q 390 -222 390 -271 l 303 -222 l 303 -75 l 475 -75 l 475 -204 q 436 -340 475 -296 q 308 -385 397 -385 l 308 -326 z "},"ṅ":{"ha":740,"x_min":25,"x_max":732,"o":"m 732 104 l 732 0 l 411 0 l 411 104 l 482 104 l 482 349 q 460 422 482 396 q 397 449 438 449 q 278 411 342 449 l 278 104 l 353 104 l 353 0 l 25 0 l 25 104 l 110 104 l 110 449 l 25 449 l 25 553 l 268 553 l 269 501 q 464 567 371 567 q 599 515 549 567 q 650 376 650 463 l 650 104 l 732 104 m 379 656 q 309 682 336 656 q 282 749 282 708 q 309 815 282 789 q 379 840 336 840 q 450 815 424 840 q 476 746 476 789 q 449 681 476 706 q 379 656 422 656 z "},"ṇ":{"ha":740,"x_min":25,"x_max":732,"o":"m 732 104 l 732 0 l 411 0 l 411 104 l 482 104 l 482 349 q 460 422 482 396 q 397 449 438 449 q 278 411 342 449 l 278 104 l 353 104 l 353 0 l 25 0 l 25 104 l 110 104 l 110 449 l 25 449 l 25 553 l 268 553 l 269 501 q 464 567 371 567 q 599 515 549 567 q 650 376 650 463 l 650 104 l 732 104 m 388 -242 q 322 -218 347 -242 q 297 -158 297 -194 q 322 -98 297 -121 q 388 -75 347 -75 q 453 -98 429 -75 q 478 -161 478 -121 q 453 -219 478 -196 q 388 -242 428 -242 z "},"ǹ":{"ha":740,"x_min":25,"x_max":732,"o":"m 732 104 l 732 0 l 411 0 l 411 104 l 482 104 l 482 349 q 460 422 482 396 q 397 449 438 449 q 278 411 342 449 l 278 104 l 353 104 l 353 0 l 25 0 l 25 104 l 110 104 l 110 449 l 25 449 l 25 553 l 268 553 l 269 501 q 464 567 371 567 q 599 515 549 567 q 650 376 650 463 l 650 104 l 732 104 m 197 876 l 361 876 l 426 651 l 328 651 l 197 876 z "},"ŋ":{"ha":747,"x_min":25,"x_max":660,"o":"m 339 -111 q 456 -72 419 -111 q 492 61 492 -32 l 492 349 q 468 422 492 396 q 401 449 444 449 q 278 411 346 449 l 278 104 l 353 104 l 353 0 l 25 0 l 25 104 l 110 104 l 110 449 l 26 449 l 26 553 l 268 553 l 271 501 q 468 567 375 567 q 608 515 556 567 q 660 376 660 463 l 660 68 q 338 -229 660 -229 l 339 -111 z "},"ǌ":{"ha":1129,"x_min":25,"x_max":1063,"o":"m 732 104 l 732 0 l 411 0 l 411 104 l 482 104 l 482 349 q 460 422 482 396 q 397 449 438 449 q 278 411 342 449 l 278 104 l 353 104 l 353 0 l 25 0 l 25 104 l 110 104 l 110 449 l 25 449 l 25 553 l 268 553 l 269 501 q 464 567 371 567 q 599 515 549 567 q 650 376 650 463 l 650 104 l 732 104 m 956 661 q 881 689 910 661 q 851 761 851 717 q 881 832 851 804 q 956 860 910 860 q 1031 833 1003 860 q 1060 761 1060 806 q 1031 689 1060 717 q 956 661 1003 661 m 738 -96 l 793 -96 q 872 -71 850 -96 q 893 15 893 -46 l 893 442 l 786 442 l 786 553 l 1063 553 l 1063 40 q 1003 -158 1063 -94 q 806 -222 943 -222 l 738 -222 l 738 -96 z "},"ṉ":{"ha":740,"x_min":25,"x_max":732,"o":"m 732 104 l 732 0 l 411 0 l 411 104 l 482 104 l 482 349 q 460 422 482 396 q 397 449 438 449 q 278 411 342 449 l 278 104 l 353 104 l 353 0 l 25 0 l 25 104 l 110 104 l 110 449 l 25 449 l 25 553 l 268 553 l 269 501 q 464 567 371 567 q 599 515 549 567 q 650 376 650 463 l 650 104 l 732 104 m 219 -85 l 556 -85 l 556 -178 l 219 -178 l 219 -85 z "},"ñ":{"ha":740,"x_min":25,"x_max":732,"o":"m 732 104 l 732 0 l 411 0 l 411 104 l 482 104 l 482 349 q 460 422 482 396 q 397 449 438 449 q 278 411 342 449 l 278 104 l 353 104 l 353 0 l 25 0 l 25 104 l 110 104 l 110 449 l 25 449 l 25 553 l 268 553 l 269 501 q 464 567 371 567 q 599 515 549 567 q 650 376 650 463 l 650 104 l 732 104 m 475 653 q 421 662 449 653 q 356 688 393 671 q 322 701 349 690 q 276 713 296 713 q 225 660 231 713 l 147 660 q 192 790 154 749 q 286 832 229 832 q 335 824 311 832 q 400 799 360 815 q 481 772 458 772 q 536 826 526 772 l 611 826 q 569 697 606 742 q 475 653 533 653 z "},"o":{"ha":667,"x_min":29,"x_max":638,"o":"m 332 -15 q 173 21 242 -15 q 67 124 104 57 q 29 276 29 190 q 67 428 29 363 q 173 531 104 494 q 332 567 242 567 q 492 531 422 567 q 599 429 561 494 q 638 278 638 364 q 599 124 638 190 q 492 21 561 57 q 332 -15 422 -15 m 332 113 q 438 156 399 111 q 478 278 478 201 q 438 395 478 351 q 332 439 399 439 q 228 395 267 439 q 189 276 189 351 q 228 156 189 201 q 332 113 267 111 z "},"ó":{"ha":667,"x_min":29,"x_max":638,"o":"m 332 -15 q 173 21 242 -15 q 67 124 104 57 q 29 276 29 190 q 67 428 29 363 q 173 531 104 494 q 332 567 242 567 q 492 531 422 567 q 599 429 561 494 q 638 278 638 364 q 599 124 638 190 q 492 21 561 57 q 332 -15 422 -15 m 332 113 q 438 156 399 111 q 478 278 478 201 q 438 395 478 351 q 332 439 399 439 q 228 395 267 439 q 189 276 189 351 q 228 156 189 201 q 332 113 267 111 m 349 876 l 513 876 l 382 651 l 283 651 l 349 876 z "},"ŏ":{"ha":667,"x_min":29,"x_max":638,"o":"m 332 -15 q 173 21 242 -15 q 67 124 104 57 q 29 276 29 190 q 67 428 29 363 q 173 531 104 494 q 332 567 242 567 q 492 531 422 567 q 599 429 561 494 q 638 278 638 364 q 599 124 638 190 q 492 21 561 57 q 332 -15 422 -15 m 332 113 q 438 156 399 111 q 478 278 478 201 q 438 395 478 351 q 332 439 399 439 q 228 395 267 439 q 189 276 189 351 q 228 156 189 201 q 332 113 267 111 m 332 642 q 192 688 243 642 q 135 818 140 733 l 246 818 q 332 735 258 735 q 390 756 368 735 q 418 818 413 778 l 529 818 q 470 688 521 733 q 332 642 419 643 z "},"ǒ":{"ha":667,"x_min":29,"x_max":638,"o":"m 332 -15 q 173 21 242 -15 q 67 124 104 57 q 29 276 29 190 q 67 428 29 363 q 173 531 104 494 q 332 567 242 567 q 492 531 422 567 q 599 429 561 494 q 638 278 638 364 q 599 124 638 190 q 492 21 561 57 q 332 -15 422 -15 m 332 113 q 438 156 399 111 q 478 278 478 201 q 438 395 478 351 q 332 439 399 439 q 228 395 267 439 q 189 276 189 351 q 228 156 189 201 q 332 113 267 111 m 138 864 l 251 864 l 336 710 l 419 864 l 525 864 l 425 633 l 247 633 l 138 864 z "},"ô":{"ha":667,"x_min":29,"x_max":638,"o":"m 332 -15 q 173 21 242 -15 q 67 124 104 57 q 29 276 29 190 q 67 428 29 363 q 173 531 104 494 q 332 567 242 567 q 492 531 422 567 q 599 429 561 494 q 638 278 638 364 q 599 124 638 190 q 492 21 561 57 q 332 -15 422 -15 m 332 113 q 438 156 399 111 q 478 278 478 201 q 438 395 478 351 q 332 439 399 439 q 228 395 267 439 q 189 276 189 351 q 228 156 189 201 q 332 113 267 111 m 246 868 l 419 868 l 536 635 l 425 635 l 332 799 l 239 635 l 128 635 l 246 868 z "},"ố":{"ha":667,"x_min":29,"x_max":686,"o":"m 332 -15 q 173 21 242 -15 q 67 124 104 57 q 29 276 29 190 q 67 428 29 363 q 173 531 104 494 q 332 567 242 567 q 492 531 422 567 q 599 429 561 494 q 638 278 638 364 q 599 124 638 190 q 492 21 561 57 q 332 -15 422 -15 m 332 113 q 438 156 399 111 q 478 278 478 201 q 438 395 478 351 q 332 439 399 439 q 228 395 267 439 q 189 276 189 351 q 228 156 189 201 q 332 113 267 111 m 554 940 l 686 940 l 579 763 l 494 763 l 554 940 m 253 819 l 413 819 l 529 635 l 419 635 l 332 750 l 244 635 l 135 635 l 253 819 z "},"ộ":{"ha":667,"x_min":29,"x_max":638,"o":"m 332 -15 q 173 21 242 -15 q 67 124 104 57 q 29 276 29 190 q 67 428 29 363 q 173 531 104 494 q 332 567 242 567 q 492 531 422 567 q 599 429 561 494 q 638 278 638 364 q 599 124 638 190 q 492 21 561 57 q 332 -15 422 -15 m 332 113 q 438 156 399 111 q 478 278 478 201 q 438 395 478 351 q 332 439 399 439 q 228 395 267 439 q 189 276 189 351 q 228 156 189 201 q 332 113 267 111 m 333 -242 q 268 -218 293 -242 q 243 -158 243 -194 q 268 -98 243 -121 q 333 -75 293 -75 q 399 -98 375 -75 q 424 -161 424 -121 q 399 -219 424 -196 q 333 -242 374 -242 m 246 868 l 419 868 l 536 635 l 425 635 l 332 799 l 239 635 l 128 635 l 246 868 z "},"ồ":{"ha":667,"x_min":29,"x_max":638,"o":"m 332 -15 q 173 21 242 -15 q 67 124 104 57 q 29 276 29 190 q 67 428 29 363 q 173 531 104 494 q 332 567 242 567 q 492 531 422 567 q 599 429 561 494 q 638 278 638 364 q 599 124 638 190 q 492 21 561 57 q 332 -15 422 -15 m 332 113 q 438 156 399 111 q 478 278 478 201 q 438 395 478 351 q 332 439 399 439 q 228 395 267 439 q 189 276 189 351 q 228 156 189 201 q 332 113 267 111 m 531 763 l 425 940 l 557 940 l 617 763 l 531 763 m 253 819 l 413 819 l 529 635 l 419 635 l 332 750 l 244 635 l 135 635 l 253 819 z "},"ổ":{"ha":667,"x_min":29,"x_max":638,"o":"m 332 -15 q 173 21 242 -15 q 67 124 104 57 q 29 276 29 190 q 67 428 29 363 q 173 531 104 494 q 332 567 242 567 q 492 531 422 567 q 599 429 561 494 q 638 278 638 364 q 599 124 638 190 q 492 21 561 57 q 332 -15 422 -15 m 332 113 q 438 156 399 111 q 478 278 478 201 q 438 395 478 351 q 332 439 399 439 q 228 395 267 439 q 189 276 189 351 q 228 156 189 201 q 332 113 267 111 m 490 804 q 536 857 536 822 q 522 888 536 876 q 483 899 507 899 q 411 876 447 899 l 389 942 q 504 981 443 981 q 596 950 561 981 q 631 871 631 919 q 599 790 631 822 q 510 743 568 758 l 490 804 m 253 819 l 413 819 l 529 635 l 419 635 l 332 750 l 244 635 l 135 635 l 253 819 z "},"ỗ":{"ha":667,"x_min":29,"x_max":638,"o":"m 332 -15 q 173 21 242 -15 q 67 124 104 57 q 29 276 29 190 q 67 428 29 363 q 173 531 104 494 q 332 567 242 567 q 492 531 422 567 q 599 429 561 494 q 638 278 638 364 q 599 124 638 190 q 492 21 561 57 q 332 -15 422 -15 m 332 113 q 438 156 399 111 q 478 278 478 201 q 438 395 478 351 q 332 439 399 439 q 228 395 267 439 q 189 276 189 351 q 228 156 189 201 q 332 113 267 111 m 431 868 q 381 876 406 868 q 324 899 356 885 q 281 916 303 908 q 242 924 258 924 q 207 911 219 924 q 190 871 194 899 l 114 871 q 153 988 119 950 q 238 1026 186 1026 q 283 1019 260 1026 q 339 996 307 1011 q 382 978 360 986 q 419 971 404 971 q 458 983 444 971 q 476 1021 471 994 l 551 1021 q 431 868 539 868 m 253 819 l 413 819 l 529 635 l 419 635 l 332 750 l 244 635 l 135 635 l 253 819 z "},"ȍ":{"ha":667,"x_min":19,"x_max":638,"o":"m 332 -15 q 173 21 242 -15 q 67 124 104 57 q 29 276 29 190 q 67 428 29 363 q 173 531 104 494 q 332 567 242 567 q 492 531 422 567 q 599 429 561 494 q 638 278 638 364 q 599 124 638 190 q 492 21 561 57 q 332 -15 422 -15 m 332 113 q 438 156 399 111 q 478 278 478 201 q 438 395 478 351 q 332 439 399 439 q 228 395 267 439 q 189 276 189 351 q 228 156 189 201 q 332 113 267 111 m 19 882 l 183 882 l 253 651 l 154 651 l 19 882 m 260 882 l 424 882 l 492 651 l 393 651 l 260 882 z "},"ö":{"ha":667,"x_min":29,"x_max":638,"o":"m 332 -15 q 173 21 242 -15 q 67 124 104 57 q 29 276 29 190 q 67 428 29 363 q 173 531 104 494 q 332 567 242 567 q 492 531 422 567 q 599 429 561 494 q 638 278 638 364 q 599 124 638 190 q 492 21 561 57 q 332 -15 422 -15 m 332 113 q 438 156 399 111 q 478 278 478 201 q 438 395 478 351 q 332 439 399 439 q 228 395 267 439 q 189 276 189 351 q 228 156 189 201 q 332 113 267 111 m 175 653 q 108 676 135 653 q 82 742 82 700 q 108 806 82 782 q 175 831 135 831 q 240 806 214 831 q 267 742 267 782 q 240 676 267 700 q 175 653 214 653 m 489 653 q 424 676 450 653 q 397 742 397 700 q 424 806 397 782 q 489 831 450 831 q 556 806 529 831 q 582 742 582 782 q 556 676 582 700 q 489 653 529 653 z "},"ȫ":{"ha":667,"x_min":29,"x_max":638,"o":"m 332 -15 q 173 21 242 -15 q 67 124 104 57 q 29 276 29 190 q 67 428 29 363 q 173 531 104 494 q 332 567 242 567 q 492 531 422 567 q 599 429 561 494 q 638 278 638 364 q 599 124 638 190 q 492 21 561 57 q 332 -15 422 -15 m 332 113 q 438 156 399 111 q 478 278 478 201 q 438 395 478 351 q 332 439 399 439 q 228 395 267 439 q 189 276 189 351 q 228 156 189 201 q 332 113 267 111 m 175 653 q 108 676 135 653 q 82 742 82 700 q 108 806 82 782 q 175 831 135 831 q 240 806 214 831 q 267 742 267 782 q 240 676 267 700 q 175 653 214 653 m 489 653 q 424 676 450 653 q 397 742 397 700 q 424 806 397 782 q 489 831 450 831 q 556 806 529 831 q 582 742 582 782 q 556 676 582 700 q 489 653 529 653 m 164 1004 l 500 1004 l 500 911 l 164 911 l 164 1004 z "}}}
